<?xml version="1.0" encoding="UTF-8" standalone="no"?>
<!DOCTYPE svg PUBLIC "-//W3C//DTD SVG 1.1//EN"
 "http://www.w3.org/Graphics/SVG/1.1/DTD/svg11.dtd">
<!-- Generated by graphviz version 14.1.1 (20251213.1925)
 -->
<!-- Pages: 1 -->
<svg width="612pt" height="743pt"
 viewBox="0.00 0.00 612.00 743.00" xmlns="http://www.w3.org/2000/svg" xmlns:xlink="http://www.w3.org/1999/xlink">
<g id="graph0" class="graph" transform="scale(1 1) rotate(0) translate(4 739.25)">
<polygon fill="#eeeeee" stroke="none" points="-4,4 -4,-739.25 607.99,-739.25 607.99,4 -4,4"/>
<!-- AppUser -->
<g id="node1" class="node">
<title>AppUser</title>
<g id="a_node1"><a xlink:href="http://AppUser_details.html" xlink:title="&lt;TABLE&gt;">
<polygon fill="#3f51b5" stroke="none" points="297.12,-712.5 297.12,-731.25 466.62,-731.25 466.62,-712.5 297.12,-712.5"/>
<polygon fill="none" stroke="black" points="297.12,-712.5 297.12,-731.25 466.62,-731.25 466.62,-712.5 297.12,-712.5"/>
<text xml:space="preserve" text-anchor="start" x="358.25" y="-716.85" font-family="Roboto" font-size="12.00" fill="white">AppUser</text>
<polygon fill="#bbdefb" stroke="none" points="297.12,-693.75 297.12,-712.5 379.62,-712.5 379.62,-693.75 297.12,-693.75"/>
<polygon fill="none" stroke="black" points="297.12,-693.75 297.12,-712.5 379.62,-712.5 379.62,-693.75 297.12,-693.75"/>
<text xml:space="preserve" text-anchor="start" x="333.5" y="-698.1" font-family="Roboto" font-size="12.00">id</text>
<polygon fill="#bbdefb" stroke="none" points="379.62,-693.75 379.62,-712.5 466.62,-712.5 466.62,-693.75 379.62,-693.75"/>
<polygon fill="none" stroke="black" points="379.62,-693.75 379.62,-712.5 466.62,-712.5 466.62,-693.75 379.62,-693.75"/>
<text xml:space="preserve" text-anchor="start" x="394.62" y="-698.1" font-family="Roboto" font-size="12.00">UUID (PK)</text>
<polygon fill="#bbdefb" stroke="none" points="297.12,-675 297.12,-693.75 379.62,-693.75 379.62,-675 297.12,-675"/>
<polygon fill="none" stroke="black" points="297.12,-675 297.12,-693.75 379.62,-693.75 379.62,-675 297.12,-675"/>
<text xml:space="preserve" text-anchor="start" x="300.12" y="-679.35" font-family="Roboto" font-size="12.00">auth0_user_id</text>
<polygon fill="#bbdefb" stroke="none" points="379.62,-675 379.62,-693.75 466.62,-693.75 466.62,-675 379.62,-675"/>
<polygon fill="none" stroke="black" points="379.62,-675 379.62,-693.75 466.62,-693.75 466.62,-675 379.62,-675"/>
<text xml:space="preserve" text-anchor="start" x="382.62" y="-679.35" font-family="Roboto" font-size="12.00">TEXT (Unique)</text>
<polygon fill="#bbdefb" stroke="none" points="297.12,-656.25 297.12,-675 379.62,-675 379.62,-656.25 297.12,-656.25"/>
<polygon fill="none" stroke="black" points="297.12,-656.25 297.12,-675 379.62,-675 379.62,-656.25 297.12,-656.25"/>
<text xml:space="preserve" text-anchor="start" x="323.38" y="-660.6" font-family="Roboto" font-size="12.00">name</text>
<polygon fill="#bbdefb" stroke="none" points="379.62,-656.25 379.62,-675 466.62,-675 466.62,-656.25 379.62,-656.25"/>
<polygon fill="none" stroke="black" points="379.62,-656.25 379.62,-675 466.62,-675 466.62,-656.25 379.62,-656.25"/>
<text xml:space="preserve" text-anchor="start" x="402.12" y="-660.6" font-family="Roboto" font-size="12.00">TEXT ()</text>
<polygon fill="#bbdefb" stroke="none" points="297.12,-637.5 297.12,-656.25 379.62,-656.25 379.62,-637.5 297.12,-637.5"/>
<polygon fill="none" stroke="black" points="297.12,-637.5 297.12,-656.25 379.62,-656.25 379.62,-637.5 297.12,-637.5"/>
<text xml:space="preserve" text-anchor="start" x="323.75" y="-641.85" font-family="Roboto" font-size="12.00">email</text>
<polygon fill="#bbdefb" stroke="none" points="379.62,-637.5 379.62,-656.25 466.62,-656.25 466.62,-637.5 379.62,-637.5"/>
<polygon fill="none" stroke="black" points="379.62,-637.5 379.62,-656.25 466.62,-656.25 466.62,-637.5 379.62,-637.5"/>
<text xml:space="preserve" text-anchor="start" x="382.62" y="-641.85" font-family="Roboto" font-size="12.00">TEXT (Unique)</text>
</a>
</g>
</g>
<!-- WorkflowRun -->
<g id="node2" class="node">
<title>WorkflowRun</title>
<g id="a_node2"><a xlink:href="http://WorkflowRun_details.html" xlink:title="&lt;TABLE&gt;">
<polygon fill="#3f51b5" stroke="none" points="297.88,-563.5 297.88,-582.25 465.88,-582.25 465.88,-563.5 297.88,-563.5"/>
<polygon fill="none" stroke="black" points="297.88,-563.5 297.88,-582.25 465.88,-582.25 465.88,-563.5 297.88,-563.5"/>
<text xml:space="preserve" text-anchor="start" x="345.88" y="-567.85" font-family="Roboto" font-size="12.00" fill="white">WorkflowRun</text>
<polygon fill="#bbdefb" stroke="none" points="297.88,-544.75 297.88,-563.5 402.88,-563.5 402.88,-544.75 297.88,-544.75"/>
<polygon fill="none" stroke="black" points="297.88,-544.75 297.88,-563.5 402.88,-563.5 402.88,-544.75 297.88,-544.75"/>
<text xml:space="preserve" text-anchor="start" x="345.5" y="-549.1" font-family="Roboto" font-size="12.00">id</text>
<polygon fill="#bbdefb" stroke="none" points="402.88,-544.75 402.88,-563.5 465.88,-563.5 465.88,-544.75 402.88,-544.75"/>
<polygon fill="none" stroke="black" points="402.88,-544.75 402.88,-563.5 465.88,-563.5 465.88,-544.75 402.88,-544.75"/>
<text xml:space="preserve" text-anchor="start" x="405.88" y="-549.1" font-family="Roboto" font-size="12.00">UUID (PK)</text>
<polygon fill="#bbdefb" stroke="none" points="297.88,-526 297.88,-544.75 402.88,-544.75 402.88,-526 297.88,-526"/>
<polygon fill="none" stroke="black" points="297.88,-526 297.88,-544.75 402.88,-544.75 402.88,-526 297.88,-526"/>
<text xml:space="preserve" text-anchor="start" x="318.5" y="-530.35" font-family="Roboto" font-size="12.00">workflow_id</text>
<polygon fill="#bbdefb" stroke="none" points="402.88,-526 402.88,-544.75 465.88,-544.75 465.88,-526 402.88,-526"/>
<polygon fill="none" stroke="black" points="402.88,-526 402.88,-544.75 465.88,-544.75 465.88,-526 402.88,-526"/>
<text xml:space="preserve" text-anchor="start" x="414.12" y="-530.35" font-family="Roboto" font-size="12.00">UUID ()</text>
<polygon fill="#bbdefb" stroke="none" points="297.88,-507.25 297.88,-526 402.88,-526 402.88,-507.25 297.88,-507.25"/>
<polygon fill="none" stroke="black" points="297.88,-507.25 297.88,-526 402.88,-526 402.88,-507.25 297.88,-507.25"/>
<text xml:space="preserve" text-anchor="start" x="310.62" y="-511.6" font-family="Roboto" font-size="12.00">owner_user_id</text>
<polygon fill="#bbdefb" stroke="none" points="402.88,-507.25 402.88,-526 465.88,-526 465.88,-507.25 402.88,-507.25"/>
<polygon fill="none" stroke="black" points="402.88,-507.25 402.88,-526 465.88,-526 465.88,-507.25 402.88,-507.25"/>
<text xml:space="preserve" text-anchor="start" x="414.12" y="-511.6" font-family="Roboto" font-size="12.00">UUID ()</text>
<polygon fill="#bbdefb" stroke="none" points="297.88,-488.5 297.88,-507.25 402.88,-507.25 402.88,-488.5 297.88,-488.5"/>
<polygon fill="none" stroke="black" points="297.88,-488.5 297.88,-507.25 402.88,-507.25 402.88,-488.5 297.88,-488.5"/>
<text xml:space="preserve" text-anchor="start" x="300.88" y="-492.85" font-family="Roboto" font-size="12.00">seqera_dataset_id</text>
<polygon fill="#bbdefb" stroke="none" points="402.88,-488.5 402.88,-507.25 465.88,-507.25 465.88,-488.5 402.88,-488.5"/>
<polygon fill="none" stroke="black" points="402.88,-488.5 402.88,-507.25 465.88,-507.25 465.88,-488.5 402.88,-488.5"/>
<text xml:space="preserve" text-anchor="start" x="413.38" y="-492.85" font-family="Roboto" font-size="12.00">TEXT ()</text>
<polygon fill="#bbdefb" stroke="none" points="297.88,-469.75 297.88,-488.5 402.88,-488.5 402.88,-469.75 297.88,-469.75"/>
<polygon fill="none" stroke="black" points="297.88,-469.75 297.88,-488.5 402.88,-488.5 402.88,-469.75 297.88,-469.75"/>
<text xml:space="preserve" text-anchor="start" x="311.75" y="-474.1" font-family="Roboto" font-size="12.00">seqera_run_id</text>
<polygon fill="#bbdefb" stroke="none" points="402.88,-469.75 402.88,-488.5 465.88,-488.5 465.88,-469.75 402.88,-469.75"/>
<polygon fill="none" stroke="black" points="402.88,-469.75 402.88,-488.5 465.88,-488.5 465.88,-469.75 402.88,-469.75"/>
<text xml:space="preserve" text-anchor="start" x="413.38" y="-474.1" font-family="Roboto" font-size="12.00">TEXT ()</text>
<polygon fill="#bbdefb" stroke="none" points="297.88,-451 297.88,-469.75 402.88,-469.75 402.88,-451 297.88,-451"/>
<polygon fill="none" stroke="black" points="297.88,-451 297.88,-469.75 402.88,-469.75 402.88,-451 297.88,-451"/>
<text xml:space="preserve" text-anchor="start" x="323.38" y="-455.35" font-family="Roboto" font-size="12.00">run_name</text>
<polygon fill="#bbdefb" stroke="none" points="402.88,-451 402.88,-469.75 465.88,-469.75 465.88,-451 402.88,-451"/>
<polygon fill="none" stroke="black" points="402.88,-451 402.88,-469.75 465.88,-469.75 465.88,-451 402.88,-451"/>
<text xml:space="preserve" text-anchor="start" x="413.38" y="-455.35" font-family="Roboto" font-size="12.00">TEXT ()</text>
<polygon fill="#bbdefb" stroke="none" points="297.88,-432.25 297.88,-451 402.88,-451 402.88,-432.25 297.88,-432.25"/>
<polygon fill="none" stroke="black" points="297.88,-432.25 297.88,-451 402.88,-451 402.88,-432.25 297.88,-432.25"/>
<text xml:space="preserve" text-anchor="start" x="327.5" y="-436.6" font-family="Roboto" font-size="12.00">work_dir</text>
<polygon fill="#bbdefb" stroke="none" points="402.88,-432.25 402.88,-451 465.88,-451 465.88,-432.25 402.88,-432.25"/>
<polygon fill="none" stroke="black" points="402.88,-432.25 402.88,-451 465.88,-451 465.88,-432.25 402.88,-432.25"/>
<text xml:space="preserve" text-anchor="start" x="413.38" y="-436.6" font-family="Roboto" font-size="12.00">TEXT ()</text>
</a>
</g>
</g>
<!-- AppUser&#45;&gt;WorkflowRun -->
<g id="edge1" class="edge">
<title>AppUser&#45;&gt;WorkflowRun</title>
<g id="a_edge1"><a xlink:title="Relation between AppUser and WorkflowRun">
<path fill="none" stroke="#1e88e5" stroke-dasharray="5,2" d="M346.98,-633.66C344.09,-627.75 341.62,-621.63 339.88,-615.5 338.17,-609.49 337.5,-603.35 337.65,-597.2"/>
<polygon fill="#1e88e5" stroke="#1e88e5" points="341.09,-597.95 338.59,-587.65 334.12,-597.25 341.09,-597.95"/>
</a>
</g>
<text xml:space="preserve" text-anchor="middle" x="371.38" y="-606" font-family="Roboto" font-size="10.00">workflow_runs</text>
</g>
<!-- WorkflowRun&#45;&gt;AppUser -->
<g id="edge3" class="edge">
<title>WorkflowRun&#45;&gt;AppUser</title>
<g id="a_edge3"><a xlink:title="Relation between WorkflowRun and AppUser">
<path fill="none" stroke="#1e88e5" stroke-dasharray="5,2" d="M403.49,-586.02C404.36,-595.92 404.32,-605.93 402.88,-615.5 402.52,-617.83 402.1,-620.2 401.63,-622.58"/>
<polygon fill="#1e88e5" stroke="#1e88e5" points="398.24,-621.73 399.43,-632.25 405.06,-623.28 398.24,-621.73"/>
</a>
</g>
<text xml:space="preserve" text-anchor="middle" x="416.94" y="-606" font-family="Roboto" font-size="10.00">owner</text>
</g>
<!-- Workflow -->
<g id="node3" class="node">
<title>Workflow</title>
<g id="a_node3"><a xlink:href="http://Workflow_details.html" xlink:title="&lt;TABLE&gt;">
<polygon fill="#3f51b5" stroke="none" points="8,-358.25 8,-377 161.75,-377 161.75,-358.25 8,-358.25"/>
<polygon fill="none" stroke="black" points="8,-358.25 8,-377 161.75,-377 161.75,-358.25 8,-358.25"/>
<text xml:space="preserve" text-anchor="start" x="60.12" y="-362.6" font-family="Roboto" font-size="12.00" fill="white">Workflow</text>
<polygon fill="#bbdefb" stroke="none" points="8,-339.5 8,-358.25 98.75,-358.25 98.75,-339.5 8,-339.5"/>
<polygon fill="none" stroke="black" points="8,-339.5 8,-358.25 98.75,-358.25 98.75,-339.5 8,-339.5"/>
<text xml:space="preserve" text-anchor="start" x="48.5" y="-343.85" font-family="Roboto" font-size="12.00">id</text>
<polygon fill="#bbdefb" stroke="none" points="98.75,-339.5 98.75,-358.25 161.75,-358.25 161.75,-339.5 98.75,-339.5"/>
<polygon fill="none" stroke="black" points="98.75,-339.5 98.75,-358.25 161.75,-358.25 161.75,-339.5 98.75,-339.5"/>
<text xml:space="preserve" text-anchor="start" x="101.75" y="-343.85" font-family="Roboto" font-size="12.00">UUID (PK)</text>
<polygon fill="#bbdefb" stroke="none" points="8,-320.75 8,-339.5 98.75,-339.5 98.75,-320.75 8,-320.75"/>
<polygon fill="none" stroke="black" points="8,-320.75 8,-339.5 98.75,-339.5 98.75,-320.75 8,-320.75"/>
<text xml:space="preserve" text-anchor="start" x="38.38" y="-325.1" font-family="Roboto" font-size="12.00">name</text>
<polygon fill="#bbdefb" stroke="none" points="98.75,-320.75 98.75,-339.5 161.75,-339.5 161.75,-320.75 98.75,-320.75"/>
<polygon fill="none" stroke="black" points="98.75,-320.75 98.75,-339.5 161.75,-339.5 161.75,-320.75 98.75,-320.75"/>
<text xml:space="preserve" text-anchor="start" x="109.25" y="-325.1" font-family="Roboto" font-size="12.00">TEXT ()</text>
<polygon fill="#bbdefb" stroke="none" points="8,-302 8,-320.75 98.75,-320.75 98.75,-302 8,-302"/>
<polygon fill="none" stroke="black" points="8,-302 8,-320.75 98.75,-320.75 98.75,-302 8,-302"/>
<text xml:space="preserve" text-anchor="start" x="24.12" y="-306.35" font-family="Roboto" font-size="12.00">description</text>
<polygon fill="#bbdefb" stroke="none" points="98.75,-302 98.75,-320.75 161.75,-320.75 161.75,-302 98.75,-302"/>
<polygon fill="none" stroke="black" points="98.75,-302 98.75,-320.75 161.75,-320.75 161.75,-302 98.75,-302"/>
<text xml:space="preserve" text-anchor="start" x="109.25" y="-306.35" font-family="Roboto" font-size="12.00">TEXT ()</text>
<polygon fill="#bbdefb" stroke="none" points="8,-283.25 8,-302 98.75,-302 98.75,-283.25 8,-283.25"/>
<polygon fill="none" stroke="black" points="8,-283.25 8,-302 98.75,-302 98.75,-283.25 8,-283.25"/>
<text xml:space="preserve" text-anchor="start" x="31.25" y="-287.6" font-family="Roboto" font-size="12.00">repo_url</text>
<polygon fill="#bbdefb" stroke="none" points="98.75,-283.25 98.75,-302 161.75,-302 161.75,-283.25 98.75,-283.25"/>
<polygon fill="none" stroke="black" points="98.75,-283.25 98.75,-302 161.75,-302 161.75,-283.25 98.75,-283.25"/>
<text xml:space="preserve" text-anchor="start" x="109.25" y="-287.6" font-family="Roboto" font-size="12.00">TEXT ()</text>
<polygon fill="#bbdefb" stroke="none" points="8,-264.5 8,-283.25 98.75,-283.25 98.75,-264.5 8,-264.5"/>
<polygon fill="none" stroke="black" points="8,-264.5 8,-283.25 98.75,-283.25 98.75,-264.5 8,-264.5"/>
<text xml:space="preserve" text-anchor="start" x="11" y="-268.85" font-family="Roboto" font-size="12.00">default_revision</text>
<polygon fill="#bbdefb" stroke="none" points="98.75,-264.5 98.75,-283.25 161.75,-283.25 161.75,-264.5 98.75,-264.5"/>
<polygon fill="none" stroke="black" points="98.75,-264.5 98.75,-283.25 161.75,-283.25 161.75,-264.5 98.75,-264.5"/>
<text xml:space="preserve" text-anchor="start" x="109.25" y="-268.85" font-family="Roboto" font-size="12.00">TEXT ()</text>
</a>
</g>
</g>
<!-- WorkflowRun&#45;&gt;Workflow -->
<g id="edge4" class="edge">
<title>WorkflowRun&#45;&gt;Workflow</title>
<g id="a_edge4"><a xlink:title="Relation between WorkflowRun and Workflow">
<path fill="none" stroke="#1e88e5" stroke-dasharray="5,2" d="M289.9,-474.33C250.4,-458.32 204.92,-436.67 167.88,-410.25 159,-403.92 150.32,-396.53 142.12,-388.77"/>
<polygon fill="#1e88e5" stroke="#1e88e5" points="144.77,-386.47 135.18,-381.98 139.88,-391.47 144.77,-386.47"/>
</a>
</g>
<text xml:space="preserve" text-anchor="middle" x="187.38" y="-400.75" font-family="Roboto" font-size="10.00">workflow</text>
</g>
<!-- RunMetric -->
<g id="node4" class="node">
<title>RunMetric</title>
<g id="a_node4"><a xlink:href="http://RunMetric_details.html" xlink:title="&lt;TABLE&gt;">
<polygon fill="#3f51b5" stroke="none" points="195.38,-330.12 195.38,-348.88 360.38,-348.88 360.38,-330.12 195.38,-330.12"/>
<polygon fill="none" stroke="black" points="195.38,-330.12 195.38,-348.88 360.38,-348.88 360.38,-330.12 195.38,-330.12"/>
<text xml:space="preserve" text-anchor="start" x="250.5" y="-334.48" font-family="Roboto" font-size="12.00" fill="white">RunMetric</text>
<polygon fill="#bbdefb" stroke="none" points="195.38,-311.38 195.38,-330.12 259.88,-330.12 259.88,-311.38 195.38,-311.38"/>
<polygon fill="none" stroke="black" points="195.38,-311.38 195.38,-330.12 259.88,-330.12 259.88,-311.38 195.38,-311.38"/>
<text xml:space="preserve" text-anchor="start" x="210.75" y="-315.73" font-family="Roboto" font-size="12.00">run_id</text>
<polygon fill="#bbdefb" stroke="none" points="259.88,-311.38 259.88,-330.12 360.38,-330.12 360.38,-311.38 259.88,-311.38"/>
<polygon fill="none" stroke="black" points="259.88,-311.38 259.88,-330.12 360.38,-330.12 360.38,-311.38 259.88,-311.38"/>
<text xml:space="preserve" text-anchor="start" x="281.62" y="-315.73" font-family="Roboto" font-size="12.00">UUID (PK)</text>
<polygon fill="#bbdefb" stroke="none" points="195.38,-292.62 195.38,-311.38 259.88,-311.38 259.88,-292.62 195.38,-292.62"/>
<polygon fill="none" stroke="black" points="195.38,-292.62 195.38,-311.38 259.88,-311.38 259.88,-292.62 195.38,-292.62"/>
<text xml:space="preserve" text-anchor="start" x="198.38" y="-296.98" font-family="Roboto" font-size="12.00">max_score</text>
<polygon fill="#bbdefb" stroke="none" points="259.88,-292.62 259.88,-311.38 360.38,-311.38 360.38,-292.62 259.88,-292.62"/>
<polygon fill="none" stroke="black" points="259.88,-292.62 259.88,-311.38 360.38,-311.38 360.38,-292.62 259.88,-292.62"/>
<text xml:space="preserve" text-anchor="start" x="262.88" y="-296.98" font-family="Roboto" font-size="12.00">NUMERIC(8, 2) ()</text>
</a>
</g>
</g>
<!-- WorkflowRun&#45;&gt;RunMetric -->
<g id="edge5" class="edge">
<title>WorkflowRun&#45;&gt;RunMetric</title>
<g id="a_edge5"><a xlink:title="Relation between WorkflowRun and RunMetric">
<path fill="none" stroke="#1e88e5" stroke-dasharray="5,2" d="M315.28,-428.28C311.42,-422.35 307.82,-416.3 304.62,-410.25 296.97,-395.74 291.16,-378.71 286.95,-363.49"/>
<polygon fill="#1e88e5" stroke="#1e88e5" points="290.45,-363.04 284.54,-354.25 283.68,-364.81 290.45,-363.04"/>
</a>
</g>
<text xml:space="preserve" text-anchor="middle" x="320.75" y="-400.75" font-family="Roboto" font-size="10.00">metrics</text>
</g>
<!-- RunInput -->
<g id="node5" class="node">
<title>RunInput</title>
<g id="a_node5"><a xlink:href="http://RunInput_details.html" xlink:title="&lt;TABLE&gt;">
<polygon fill="#3f51b5" stroke="none" points="398.5,-41.5 398.5,-60.25 537.25,-60.25 537.25,-41.5 398.5,-41.5"/>
<polygon fill="none" stroke="black" points="398.5,-41.5 398.5,-60.25 537.25,-60.25 537.25,-41.5 398.5,-41.5"/>
<text xml:space="preserve" text-anchor="start" x="443.5" y="-45.85" font-family="Roboto" font-size="12.00" fill="white">RunInput</text>
<polygon fill="#bbdefb" stroke="none" points="398.5,-22.75 398.5,-41.5 472.75,-41.5 472.75,-22.75 398.5,-22.75"/>
<polygon fill="none" stroke="black" points="398.5,-22.75 398.5,-41.5 472.75,-41.5 472.75,-22.75 398.5,-22.75"/>
<text xml:space="preserve" text-anchor="start" x="418.75" y="-27.1" font-family="Roboto" font-size="12.00">run_id</text>
<polygon fill="#bbdefb" stroke="none" points="472.75,-22.75 472.75,-41.5 537.25,-41.5 537.25,-22.75 472.75,-22.75"/>
<polygon fill="none" stroke="black" points="472.75,-22.75 472.75,-41.5 537.25,-41.5 537.25,-22.75 472.75,-22.75"/>
<text xml:space="preserve" text-anchor="start" x="476.5" y="-27.1" font-family="Roboto" font-size="12.00">UUID (PK)</text>
<polygon fill="#bbdefb" stroke="none" points="398.5,-4 398.5,-22.75 472.75,-22.75 472.75,-4 398.5,-4"/>
<polygon fill="none" stroke="black" points="398.5,-4 398.5,-22.75 472.75,-22.75 472.75,-4 398.5,-4"/>
<text xml:space="preserve" text-anchor="start" x="401.5" y="-8.35" font-family="Roboto" font-size="12.00">s3_object_id</text>
<polygon fill="#bbdefb" stroke="none" points="472.75,-4 472.75,-22.75 537.25,-22.75 537.25,-4 472.75,-4"/>
<polygon fill="none" stroke="black" points="472.75,-4 472.75,-22.75 537.25,-22.75 537.25,-4 472.75,-4"/>
<text xml:space="preserve" text-anchor="start" x="475.75" y="-8.35" font-family="Roboto" font-size="12.00">TEXT (PK)</text>
</a>
</g>
</g>
<!-- WorkflowRun&#45;&gt;RunInput -->
<g id="edge6" class="edge">
<title>WorkflowRun&#45;&gt;RunInput</title>
<g id="a_edge6"><a xlink:title="Relation between WorkflowRun and RunInput">
<path fill="none" stroke="#1e88e5" stroke-dasharray="5,2" d="M385.68,-428.56C390.5,-348.55 400.73,-220.53 420.88,-111.5 423.32,-98.25 422.78,-94.27 428.88,-82.25 430.35,-79.34 432.02,-76.43 433.81,-73.57"/>
<polygon fill="#1e88e5" stroke="#1e88e5" points="436.68,-75.57 439.43,-65.33 430.9,-71.62 436.68,-75.57"/>
</a>
</g>
<text xml:space="preserve" text-anchor="middle" x="416.1" y="-233" font-family="Roboto" font-size="10.00">inputs</text>
</g>
<!-- RunOutput -->
<g id="node6" class="node">
<title>RunOutput</title>
<g id="a_node6"><a xlink:href="http://RunOutput_details.html" xlink:title="&lt;TABLE&gt;">
<polygon fill="#3f51b5" stroke="none" points="432.5,-330.12 432.5,-348.88 571.25,-348.88 571.25,-330.12 432.5,-330.12"/>
<polygon fill="none" stroke="black" points="432.5,-330.12 432.5,-348.88 571.25,-348.88 571.25,-330.12 432.5,-330.12"/>
<text xml:space="preserve" text-anchor="start" x="473" y="-334.48" font-family="Roboto" font-size="12.00" fill="white">RunOutput</text>
<polygon fill="#bbdefb" stroke="none" points="432.5,-311.38 432.5,-330.12 506.75,-330.12 506.75,-311.38 432.5,-311.38"/>
<polygon fill="none" stroke="black" points="432.5,-311.38 432.5,-330.12 506.75,-330.12 506.75,-311.38 432.5,-311.38"/>
<text xml:space="preserve" text-anchor="start" x="452.75" y="-315.73" font-family="Roboto" font-size="12.00">run_id</text>
<polygon fill="#bbdefb" stroke="none" points="506.75,-311.38 506.75,-330.12 571.25,-330.12 571.25,-311.38 506.75,-311.38"/>
<polygon fill="none" stroke="black" points="506.75,-311.38 506.75,-330.12 571.25,-330.12 571.25,-311.38 506.75,-311.38"/>
<text xml:space="preserve" text-anchor="start" x="510.5" y="-315.73" font-family="Roboto" font-size="12.00">UUID (PK)</text>
<polygon fill="#bbdefb" stroke="none" points="432.5,-292.62 432.5,-311.38 506.75,-311.38 506.75,-292.62 432.5,-292.62"/>
<polygon fill="none" stroke="black" points="432.5,-292.62 432.5,-311.38 506.75,-311.38 506.75,-292.62 432.5,-292.62"/>
<text xml:space="preserve" text-anchor="start" x="435.5" y="-296.98" font-family="Roboto" font-size="12.00">s3_object_id</text>
<polygon fill="#bbdefb" stroke="none" points="506.75,-292.62 506.75,-311.38 571.25,-311.38 571.25,-292.62 506.75,-292.62"/>
<polygon fill="none" stroke="black" points="506.75,-292.62 506.75,-311.38 571.25,-311.38 571.25,-292.62 506.75,-292.62"/>
<text xml:space="preserve" text-anchor="start" x="509.75" y="-296.98" font-family="Roboto" font-size="12.00">TEXT (PK)</text>
</a>
</g>
</g>
<!-- WorkflowRun&#45;&gt;RunOutput -->
<g id="edge7" class="edge">
<title>WorkflowRun&#45;&gt;RunOutput</title>
<g id="a_edge7"><a xlink:title="Relation between WorkflowRun and RunOutput">
<path fill="none" stroke="#1e88e5" stroke-dasharray="5,2" d="M421.53,-428.5C427.32,-418.41 433.43,-408.34 439.62,-399 448.05,-386.31 458.09,-373.16 467.61,-361.4"/>
<polygon fill="#1e88e5" stroke="#1e88e5" points="470.16,-363.81 473.8,-353.86 464.75,-359.37 470.16,-363.81"/>
</a>
</g>
<text xml:space="preserve" text-anchor="middle" x="455.75" y="-400.75" font-family="Roboto" font-size="10.00">outputs</text>
</g>
<!-- Workflow&#45;&gt;WorkflowRun -->
<g id="edge2" class="edge">
<title>Workflow&#45;&gt;WorkflowRun</title>
<g id="a_edge2"><a xlink:title="Relation between Workflow and WorkflowRun">
<path fill="none" stroke="#1e88e5" stroke-dasharray="5,2" d="M169.48,-375.74C172.31,-377.52 175.12,-379.27 177.88,-381 211.15,-401.81 247.63,-424.31 280.43,-444.42"/>
<polygon fill="#1e88e5" stroke="#1e88e5" points="278.38,-447.27 288.73,-449.51 282.04,-441.3 278.38,-447.27"/>
</a>
</g>
<text xml:space="preserve" text-anchor="middle" x="231.8" y="-400.75" font-family="Roboto" font-size="10.00">runs</text>
</g>
<!-- RunMetric&#45;&gt;WorkflowRun -->
<g id="edge14" class="edge">
<title>RunMetric&#45;&gt;WorkflowRun</title>
<g id="a_edge14"><a xlink:title="Relation between RunMetric and WorkflowRun">
<path fill="none" stroke="#1e88e5" stroke-dasharray="5,2" d="M304.48,-352.79C315.37,-366.41 327.57,-382.93 336.88,-399 340.39,-405.08 343.79,-411.48 347.02,-418.02"/>
<polygon fill="#1e88e5" stroke="#1e88e5" points="343.85,-419.49 351.32,-426.99 350.16,-416.46 343.85,-419.49"/>
</a>
</g>
<text xml:space="preserve" text-anchor="middle" x="349.7" y="-400.75" font-family="Roboto" font-size="10.00">run</text>
</g>
<!-- RunInput&#45;&gt;WorkflowRun -->
<g id="edge10" class="edge">
<title>RunInput&#45;&gt;WorkflowRun</title>
<g id="a_edge10"><a xlink:title="Relation between RunInput and WorkflowRun">
<path fill="none" stroke="#1e88e5" stroke-dasharray="5,2" d="M535.5,-64.24C554.1,-76.26 572.1,-91.92 582.88,-111.5 586.63,-118.33 597.75,-363.43 587.88,-381 565.23,-421.27 523.81,-450.1 484.02,-469.87"/>
<polygon fill="#1e88e5" stroke="#1e88e5" points="482.54,-466.7 475.04,-474.17 485.57,-473.01 482.54,-466.7"/>
</a>
</g>
<text xml:space="preserve" text-anchor="middle" x="597.24" y="-233" font-family="Roboto" font-size="10.00">run</text>
</g>
<!-- S3Object -->
<g id="node7" class="node">
<title>S3Object</title>
<g id="a_node7"><a xlink:href="http://S3Object_details.html" xlink:title="&lt;TABLE&gt;">
<polygon fill="#3f51b5" stroke="none" points="437.75,-190.5 437.75,-209.25 566,-209.25 566,-190.5 437.75,-190.5"/>
<polygon fill="none" stroke="black" points="437.75,-190.5 437.75,-209.25 566,-209.25 566,-190.5 437.75,-190.5"/>
<text xml:space="preserve" text-anchor="start" x="477.12" y="-194.85" font-family="Roboto" font-size="12.00" fill="white">S3Object</text>
<polygon fill="#bbdefb" stroke="none" points="437.75,-171.75 437.75,-190.5 501.5,-190.5 501.5,-171.75 437.75,-171.75"/>
<polygon fill="none" stroke="black" points="437.75,-171.75 437.75,-190.5 501.5,-190.5 501.5,-171.75 437.75,-171.75"/>
<text xml:space="preserve" text-anchor="start" x="440.75" y="-176.1" font-family="Roboto" font-size="12.00">object_key</text>
<polygon fill="#bbdefb" stroke="none" points="501.5,-171.75 501.5,-190.5 566,-190.5 566,-171.75 501.5,-171.75"/>
<polygon fill="none" stroke="black" points="501.5,-171.75 501.5,-190.5 566,-190.5 566,-171.75 501.5,-171.75"/>
<text xml:space="preserve" text-anchor="start" x="504.5" y="-176.1" font-family="Roboto" font-size="12.00">TEXT (PK)</text>
<polygon fill="#bbdefb" stroke="none" points="437.75,-153 437.75,-171.75 501.5,-171.75 501.5,-153 437.75,-153"/>
<polygon fill="none" stroke="black" points="437.75,-153 437.75,-171.75 501.5,-171.75 501.5,-153 437.75,-153"/>
<text xml:space="preserve" text-anchor="start" x="459.12" y="-157.35" font-family="Roboto" font-size="12.00">URI</text>
<polygon fill="#bbdefb" stroke="none" points="501.5,-153 501.5,-171.75 566,-171.75 566,-153 501.5,-153"/>
<polygon fill="none" stroke="black" points="501.5,-153 501.5,-171.75 566,-171.75 566,-153 501.5,-153"/>
<text xml:space="preserve" text-anchor="start" x="512.75" y="-157.35" font-family="Roboto" font-size="12.00">TEXT ()</text>
<polygon fill="#bbdefb" stroke="none" points="437.75,-134.25 437.75,-153 501.5,-153 501.5,-134.25 437.75,-134.25"/>
<polygon fill="none" stroke="black" points="437.75,-134.25 437.75,-153 501.5,-153 501.5,-134.25 437.75,-134.25"/>
<text xml:space="preserve" text-anchor="start" x="441.88" y="-138.6" font-family="Roboto" font-size="12.00">version_id</text>
<polygon fill="#bbdefb" stroke="none" points="501.5,-134.25 501.5,-153 566,-153 566,-134.25 501.5,-134.25"/>
<polygon fill="none" stroke="black" points="501.5,-134.25 501.5,-153 566,-153 566,-134.25 501.5,-134.25"/>
<text xml:space="preserve" text-anchor="start" x="512.75" y="-138.6" font-family="Roboto" font-size="12.00">TEXT ()</text>
<polygon fill="#bbdefb" stroke="none" points="437.75,-115.5 437.75,-134.25 501.5,-134.25 501.5,-115.5 437.75,-115.5"/>
<polygon fill="none" stroke="black" points="437.75,-115.5 437.75,-134.25 501.5,-134.25 501.5,-115.5 437.75,-115.5"/>
<text xml:space="preserve" text-anchor="start" x="441.12" y="-119.85" font-family="Roboto" font-size="12.00">size_bytes</text>
<polygon fill="#bbdefb" stroke="none" points="501.5,-115.5 501.5,-134.25 566,-134.25 566,-115.5 501.5,-115.5"/>
<polygon fill="none" stroke="black" points="501.5,-115.5 501.5,-134.25 566,-134.25 566,-115.5 501.5,-115.5"/>
<text xml:space="preserve" text-anchor="start" x="508.62" y="-119.85" font-family="Roboto" font-size="12.00">BIGINT ()</text>
</a>
</g>
</g>
<!-- RunInput&#45;&gt;S3Object -->
<g id="edge11" class="edge">
<title>RunInput&#45;&gt;S3Object</title>
<g id="a_edge11"><a xlink:title="Relation between RunInput and S3Object">
<path fill="none" stroke="#1e88e5" stroke-dasharray="5,2" d="M476.07,-64.05C479.01,-75.12 482.43,-88.01 485.79,-100.72"/>
<polygon fill="#1e88e5" stroke="#1e88e5" points="482.4,-101.56 488.34,-110.33 489.16,-99.76 482.4,-101.56"/>
</a>
</g>
<text xml:space="preserve" text-anchor="middle" x="504.86" y="-84" font-family="Roboto" font-size="10.00">s3_object</text>
</g>
<!-- RunOutput&#45;&gt;WorkflowRun -->
<g id="edge12" class="edge">
<title>RunOutput&#45;&gt;WorkflowRun</title>
<g id="a_edge12"><a xlink:title="Relation between RunOutput and WorkflowRun">
<path fill="none" stroke="#1e88e5" stroke-dasharray="5,2" d="M494.88,-352.64C490.05,-370.31 482.55,-392.44 471.88,-410.25 470.08,-413.24 468.18,-416.21 466.2,-419.16"/>
<polygon fill="#1e88e5" stroke="#1e88e5" points="463.39,-417.08 460.46,-427.26 469.1,-421.12 463.39,-417.08"/>
</a>
</g>
<text xml:space="preserve" text-anchor="middle" x="484.65" y="-400.75" font-family="Roboto" font-size="10.00">run</text>
</g>
<!-- RunOutput&#45;&gt;S3Object -->
<g id="edge13" class="edge">
<title>RunOutput&#45;&gt;S3Object</title>
<g id="a_edge13"><a xlink:title="Relation between RunOutput and S3Object">
<path fill="none" stroke="#1e88e5" stroke-dasharray="5,2" d="M472.16,-288.99C459.83,-272.49 449.68,-251.45 455.88,-231.25 456.67,-228.67 457.6,-226.09 458.64,-223.54"/>
<polygon fill="#1e88e5" stroke="#1e88e5" points="461.76,-225.13 462.83,-214.59 455.42,-222.16 461.76,-225.13"/>
</a>
</g>
<text xml:space="preserve" text-anchor="middle" x="476.88" y="-233" font-family="Roboto" font-size="10.00">s3_object</text>
</g>
<!-- S3Object&#45;&gt;RunInput -->
<g id="edge8" class="edge">
<title>S3Object&#45;&gt;RunInput</title>
<g id="a_edge8"><a xlink:title="Relation between S3Object and RunInput">
<path fill="none" stroke="#1e88e5" stroke-dasharray="5,2" d="M445.23,-111.87C441.09,-106.08 437.52,-99.93 434.88,-93.5 432.29,-87.2 432.49,-80.71 434.37,-74.43"/>
<polygon fill="#1e88e5" stroke="#1e88e5" points="437.47,-76.07 438.3,-65.51 431.07,-73.25 437.47,-76.07"/>
</a>
</g>
<text xml:space="preserve" text-anchor="middle" x="457.38" y="-84" font-family="Roboto" font-size="10.00">run_inputs</text>
</g>
<!-- S3Object&#45;&gt;RunOutput -->
<g id="edge9" class="edge">
<title>S3Object&#45;&gt;RunOutput</title>
<g id="a_edge9"><a xlink:title="Relation between S3Object and RunOutput">
<path fill="none" stroke="#1e88e5" stroke-dasharray="5,2" d="M501.88,-212.98C501.88,-233.68 501.88,-257.49 501.88,-277.36"/>
<polygon fill="#1e88e5" stroke="#1e88e5" points="498.38,-277.34 501.88,-287.34 505.38,-277.34 498.38,-277.34"/>
</a>
</g>
<text xml:space="preserve" text-anchor="middle" x="527.38" y="-233" font-family="Roboto" font-size="10.00">run_outputs</text>
</g>
</g>
</svg>
