<?xml version="1.0" encoding="UTF-8" standalone="no"?>
<!DOCTYPE svg PUBLIC "-//W3C//DTD SVG 1.1//EN"
 "http://www.w3.org/Graphics/SVG/1.1/DTD/svg11.dtd">
<!-- Generated by graphviz version 14.1.1 (20251213.1925)
 -->
<!-- Pages: 1 -->
<svg width="612pt" height="762pt"
 viewBox="0.00 0.00 612.00 762.00" xmlns="http://www.w3.org/2000/svg" xmlns:xlink="http://www.w3.org/1999/xlink">
<g id="graph0" class="graph" transform="scale(1 1) rotate(0) translate(4 758)">
<polygon fill="#eeeeee" stroke="none" points="-4,4 -4,-758 607.83,-758 607.83,4 -4,4"/>
<!-- AppUser -->
<g id="node1" class="node">
<title>AppUser</title>
<g id="a_node1"><a xlink:href="http://AppUser_details.html" xlink:title="&lt;TABLE&gt;">
<polygon fill="#3f51b5" stroke="none" points="297.12,-731.25 297.12,-750 466.62,-750 466.62,-731.25 297.12,-731.25"/>
<polygon fill="none" stroke="black" points="297.12,-731.25 297.12,-750 466.62,-750 466.62,-731.25 297.12,-731.25"/>
<text xml:space="preserve" text-anchor="start" x="358.25" y="-735.6" font-family="Roboto" font-size="12.00" fill="white">AppUser</text>
<polygon fill="#bbdefb" stroke="none" points="297.12,-712.5 297.12,-731.25 379.62,-731.25 379.62,-712.5 297.12,-712.5"/>
<polygon fill="none" stroke="black" points="297.12,-712.5 297.12,-731.25 379.62,-731.25 379.62,-712.5 297.12,-712.5"/>
<text xml:space="preserve" text-anchor="start" x="333.5" y="-716.85" font-family="Roboto" font-size="12.00">id</text>
<polygon fill="#bbdefb" stroke="none" points="379.62,-712.5 379.62,-731.25 466.62,-731.25 466.62,-712.5 379.62,-712.5"/>
<polygon fill="none" stroke="black" points="379.62,-712.5 379.62,-731.25 466.62,-731.25 466.62,-712.5 379.62,-712.5"/>
<text xml:space="preserve" text-anchor="start" x="394.62" y="-716.85" font-family="Roboto" font-size="12.00">UUID (PK)</text>
<polygon fill="#bbdefb" stroke="none" points="297.12,-693.75 297.12,-712.5 379.62,-712.5 379.62,-693.75 297.12,-693.75"/>
<polygon fill="none" stroke="black" points="297.12,-693.75 297.12,-712.5 379.62,-712.5 379.62,-693.75 297.12,-693.75"/>
<text xml:space="preserve" text-anchor="start" x="300.12" y="-698.1" font-family="Roboto" font-size="12.00">auth0_user_id</text>
<polygon fill="#bbdefb" stroke="none" points="379.62,-693.75 379.62,-712.5 466.62,-712.5 466.62,-693.75 379.62,-693.75"/>
<polygon fill="none" stroke="black" points="379.62,-693.75 379.62,-712.5 466.62,-712.5 466.62,-693.75 379.62,-693.75"/>
<text xml:space="preserve" text-anchor="start" x="382.62" y="-698.1" font-family="Roboto" font-size="12.00">TEXT (Unique)</text>
<polygon fill="#bbdefb" stroke="none" points="297.12,-675 297.12,-693.75 379.62,-693.75 379.62,-675 297.12,-675"/>
<polygon fill="none" stroke="black" points="297.12,-675 297.12,-693.75 379.62,-693.75 379.62,-675 297.12,-675"/>
<text xml:space="preserve" text-anchor="start" x="323.38" y="-679.35" font-family="Roboto" font-size="12.00">name</text>
<polygon fill="#bbdefb" stroke="none" points="379.62,-675 379.62,-693.75 466.62,-693.75 466.62,-675 379.62,-675"/>
<polygon fill="none" stroke="black" points="379.62,-675 379.62,-693.75 466.62,-693.75 466.62,-675 379.62,-675"/>
<text xml:space="preserve" text-anchor="start" x="402.12" y="-679.35" font-family="Roboto" font-size="12.00">TEXT ()</text>
<polygon fill="#bbdefb" stroke="none" points="297.12,-656.25 297.12,-675 379.62,-675 379.62,-656.25 297.12,-656.25"/>
<polygon fill="none" stroke="black" points="297.12,-656.25 297.12,-675 379.62,-675 379.62,-656.25 297.12,-656.25"/>
<text xml:space="preserve" text-anchor="start" x="323.75" y="-660.6" font-family="Roboto" font-size="12.00">email</text>
<polygon fill="#bbdefb" stroke="none" points="379.62,-656.25 379.62,-675 466.62,-675 466.62,-656.25 379.62,-656.25"/>
<polygon fill="none" stroke="black" points="379.62,-656.25 379.62,-675 466.62,-675 466.62,-656.25 379.62,-656.25"/>
<text xml:space="preserve" text-anchor="start" x="382.62" y="-660.6" font-family="Roboto" font-size="12.00">TEXT (Unique)</text>
</a>
</g>
</g>
<!-- WorkflowRun -->
<g id="node2" class="node">
<title>WorkflowRun</title>
<g id="a_node2"><a xlink:href="http://WorkflowRun_details.html" xlink:title="&lt;TABLE&gt;">
<polygon fill="#3f51b5" stroke="none" points="297.88,-582.25 297.88,-601 465.88,-601 465.88,-582.25 297.88,-582.25"/>
<polygon fill="none" stroke="black" points="297.88,-582.25 297.88,-601 465.88,-601 465.88,-582.25 297.88,-582.25"/>
<text xml:space="preserve" text-anchor="start" x="345.88" y="-586.6" font-family="Roboto" font-size="12.00" fill="white">WorkflowRun</text>
<polygon fill="#bbdefb" stroke="none" points="297.88,-563.5 297.88,-582.25 402.88,-582.25 402.88,-563.5 297.88,-563.5"/>
<polygon fill="none" stroke="black" points="297.88,-563.5 297.88,-582.25 402.88,-582.25 402.88,-563.5 297.88,-563.5"/>
<text xml:space="preserve" text-anchor="start" x="345.5" y="-567.85" font-family="Roboto" font-size="12.00">id</text>
<polygon fill="#bbdefb" stroke="none" points="402.88,-563.5 402.88,-582.25 465.88,-582.25 465.88,-563.5 402.88,-563.5"/>
<polygon fill="none" stroke="black" points="402.88,-563.5 402.88,-582.25 465.88,-582.25 465.88,-563.5 402.88,-563.5"/>
<text xml:space="preserve" text-anchor="start" x="405.88" y="-567.85" font-family="Roboto" font-size="12.00">UUID (PK)</text>
<polygon fill="#bbdefb" stroke="none" points="297.88,-544.75 297.88,-563.5 402.88,-563.5 402.88,-544.75 297.88,-544.75"/>
<polygon fill="none" stroke="black" points="297.88,-544.75 297.88,-563.5 402.88,-563.5 402.88,-544.75 297.88,-544.75"/>
<text xml:space="preserve" text-anchor="start" x="318.5" y="-549.1" font-family="Roboto" font-size="12.00">workflow_id</text>
<polygon fill="#bbdefb" stroke="none" points="402.88,-544.75 402.88,-563.5 465.88,-563.5 465.88,-544.75 402.88,-544.75"/>
<polygon fill="none" stroke="black" points="402.88,-544.75 402.88,-563.5 465.88,-563.5 465.88,-544.75 402.88,-544.75"/>
<text xml:space="preserve" text-anchor="start" x="414.12" y="-549.1" font-family="Roboto" font-size="12.00">UUID ()</text>
<polygon fill="#bbdefb" stroke="none" points="297.88,-526 297.88,-544.75 402.88,-544.75 402.88,-526 297.88,-526"/>
<polygon fill="none" stroke="black" points="297.88,-526 297.88,-544.75 402.88,-544.75 402.88,-526 297.88,-526"/>
<text xml:space="preserve" text-anchor="start" x="310.62" y="-530.35" font-family="Roboto" font-size="12.00">owner_user_id</text>
<polygon fill="#bbdefb" stroke="none" points="402.88,-526 402.88,-544.75 465.88,-544.75 465.88,-526 402.88,-526"/>
<polygon fill="none" stroke="black" points="402.88,-526 402.88,-544.75 465.88,-544.75 465.88,-526 402.88,-526"/>
<text xml:space="preserve" text-anchor="start" x="414.12" y="-530.35" font-family="Roboto" font-size="12.00">UUID ()</text>
<polygon fill="#bbdefb" stroke="none" points="297.88,-507.25 297.88,-526 402.88,-526 402.88,-507.25 297.88,-507.25"/>
<polygon fill="none" stroke="black" points="297.88,-507.25 297.88,-526 402.88,-526 402.88,-507.25 297.88,-507.25"/>
<text xml:space="preserve" text-anchor="start" x="300.88" y="-511.6" font-family="Roboto" font-size="12.00">seqera_dataset_id</text>
<polygon fill="#bbdefb" stroke="none" points="402.88,-507.25 402.88,-526 465.88,-526 465.88,-507.25 402.88,-507.25"/>
<polygon fill="none" stroke="black" points="402.88,-507.25 402.88,-526 465.88,-526 465.88,-507.25 402.88,-507.25"/>
<text xml:space="preserve" text-anchor="start" x="413.38" y="-511.6" font-family="Roboto" font-size="12.00">TEXT ()</text>
<polygon fill="#bbdefb" stroke="none" points="297.88,-488.5 297.88,-507.25 402.88,-507.25 402.88,-488.5 297.88,-488.5"/>
<polygon fill="none" stroke="black" points="297.88,-488.5 297.88,-507.25 402.88,-507.25 402.88,-488.5 297.88,-488.5"/>
<text xml:space="preserve" text-anchor="start" x="311.75" y="-492.85" font-family="Roboto" font-size="12.00">seqera_run_id</text>
<polygon fill="#bbdefb" stroke="none" points="402.88,-488.5 402.88,-507.25 465.88,-507.25 465.88,-488.5 402.88,-488.5"/>
<polygon fill="none" stroke="black" points="402.88,-488.5 402.88,-507.25 465.88,-507.25 465.88,-488.5 402.88,-488.5"/>
<text xml:space="preserve" text-anchor="start" x="413.38" y="-492.85" font-family="Roboto" font-size="12.00">TEXT ()</text>
<polygon fill="#bbdefb" stroke="none" points="297.88,-469.75 297.88,-488.5 402.88,-488.5 402.88,-469.75 297.88,-469.75"/>
<polygon fill="none" stroke="black" points="297.88,-469.75 297.88,-488.5 402.88,-488.5 402.88,-469.75 297.88,-469.75"/>
<text xml:space="preserve" text-anchor="start" x="315.12" y="-474.1" font-family="Roboto" font-size="12.00">binder_name</text>
<polygon fill="#bbdefb" stroke="none" points="402.88,-469.75 402.88,-488.5 465.88,-488.5 465.88,-469.75 402.88,-469.75"/>
<polygon fill="none" stroke="black" points="402.88,-469.75 402.88,-488.5 465.88,-488.5 465.88,-469.75 402.88,-469.75"/>
<text xml:space="preserve" text-anchor="start" x="413.38" y="-474.1" font-family="Roboto" font-size="12.00">TEXT ()</text>
<polygon fill="#bbdefb" stroke="none" points="297.88,-451 297.88,-469.75 402.88,-469.75 402.88,-451 297.88,-451"/>
<polygon fill="none" stroke="black" points="297.88,-451 297.88,-469.75 402.88,-469.75 402.88,-451 297.88,-451"/>
<text xml:space="preserve" text-anchor="start" x="323.38" y="-455.35" font-family="Roboto" font-size="12.00">run_name</text>
<polygon fill="#bbdefb" stroke="none" points="402.88,-451 402.88,-469.75 465.88,-469.75 465.88,-451 402.88,-451"/>
<polygon fill="none" stroke="black" points="402.88,-451 402.88,-469.75 465.88,-469.75 465.88,-451 402.88,-451"/>
<text xml:space="preserve" text-anchor="start" x="413.38" y="-455.35" font-family="Roboto" font-size="12.00">TEXT ()</text>
<polygon fill="#bbdefb" stroke="none" points="297.88,-432.25 297.88,-451 402.88,-451 402.88,-432.25 297.88,-432.25"/>
<polygon fill="none" stroke="black" points="297.88,-432.25 297.88,-451 402.88,-451 402.88,-432.25 297.88,-432.25"/>
<text xml:space="preserve" text-anchor="start" x="327.5" y="-436.6" font-family="Roboto" font-size="12.00">work_dir</text>
<polygon fill="#bbdefb" stroke="none" points="402.88,-432.25 402.88,-451 465.88,-451 465.88,-432.25 402.88,-432.25"/>
<polygon fill="none" stroke="black" points="402.88,-432.25 402.88,-451 465.88,-451 465.88,-432.25 402.88,-432.25"/>
<text xml:space="preserve" text-anchor="start" x="413.38" y="-436.6" font-family="Roboto" font-size="12.00">TEXT ()</text>
</a>
</g>
</g>
<!-- AppUser&#45;&gt;WorkflowRun -->
<g id="edge1" class="edge">
<title>AppUser&#45;&gt;WorkflowRun</title>
<g id="a_edge1"><a xlink:title="Relation between AppUser and WorkflowRun">
<path fill="none" stroke="#1e88e5" stroke-dasharray="5,2" d="M346.98,-652.41C344.09,-646.5 341.62,-640.38 339.88,-634.25 338.16,-628.23 337.38,-622.08 337.34,-615.9"/>
<polygon fill="#1e88e5" stroke="#1e88e5" points="340.81,-616.47 337.94,-606.28 333.83,-616.04 340.81,-616.47"/>
</a>
</g>
<text xml:space="preserve" text-anchor="middle" x="371.38" y="-624.75" font-family="Roboto" font-size="10.00">workflow_runs</text>
</g>
<!-- WorkflowRun&#45;&gt;AppUser -->
<g id="edge3" class="edge">
<title>WorkflowRun&#45;&gt;AppUser</title>
<g id="a_edge3"><a xlink:title="Relation between WorkflowRun and AppUser">
<path fill="none" stroke="#1e88e5" stroke-dasharray="5,2" d="M403.9,-604.78C404.53,-614.71 404.32,-624.69 402.88,-634.25 402.52,-636.58 402.1,-638.95 401.63,-641.33"/>
<polygon fill="#1e88e5" stroke="#1e88e5" points="398.24,-640.48 399.43,-651 405.06,-642.03 398.24,-640.48"/>
</a>
</g>
<text xml:space="preserve" text-anchor="middle" x="417.03" y="-624.75" font-family="Roboto" font-size="10.00">owner</text>
</g>
<!-- Workflow -->
<g id="node3" class="node">
<title>Workflow</title>
<g id="a_node3"><a xlink:href="http://Workflow_details.html" xlink:title="&lt;TABLE&gt;">
<polygon fill="#3f51b5" stroke="none" points="8,-358.25 8,-377 161.75,-377 161.75,-358.25 8,-358.25"/>
<polygon fill="none" stroke="black" points="8,-358.25 8,-377 161.75,-377 161.75,-358.25 8,-358.25"/>
<text xml:space="preserve" text-anchor="start" x="60.12" y="-362.6" font-family="Roboto" font-size="12.00" fill="white">Workflow</text>
<polygon fill="#bbdefb" stroke="none" points="8,-339.5 8,-358.25 98.75,-358.25 98.75,-339.5 8,-339.5"/>
<polygon fill="none" stroke="black" points="8,-339.5 8,-358.25 98.75,-358.25 98.75,-339.5 8,-339.5"/>
<text xml:space="preserve" text-anchor="start" x="48.5" y="-343.85" font-family="Roboto" font-size="12.00">id</text>
<polygon fill="#bbdefb" stroke="none" points="98.75,-339.5 98.75,-358.25 161.75,-358.25 161.75,-339.5 98.75,-339.5"/>
<polygon fill="none" stroke="black" points="98.75,-339.5 98.75,-358.25 161.75,-358.25 161.75,-339.5 98.75,-339.5"/>
<text xml:space="preserve" text-anchor="start" x="101.75" y="-343.85" font-family="Roboto" font-size="12.00">UUID (PK)</text>
<polygon fill="#bbdefb" stroke="none" points="8,-320.75 8,-339.5 98.75,-339.5 98.75,-320.75 8,-320.75"/>
<polygon fill="none" stroke="black" points="8,-320.75 8,-339.5 98.75,-339.5 98.75,-320.75 8,-320.75"/>
<text xml:space="preserve" text-anchor="start" x="38.38" y="-325.1" font-family="Roboto" font-size="12.00">name</text>
<polygon fill="#bbdefb" stroke="none" points="98.75,-320.75 98.75,-339.5 161.75,-339.5 161.75,-320.75 98.75,-320.75"/>
<polygon fill="none" stroke="black" points="98.75,-320.75 98.75,-339.5 161.75,-339.5 161.75,-320.75 98.75,-320.75"/>
<text xml:space="preserve" text-anchor="start" x="109.25" y="-325.1" font-family="Roboto" font-size="12.00">TEXT ()</text>
<polygon fill="#bbdefb" stroke="none" points="8,-302 8,-320.75 98.75,-320.75 98.75,-302 8,-302"/>
<polygon fill="none" stroke="black" points="8,-302 8,-320.75 98.75,-320.75 98.75,-302 8,-302"/>
<text xml:space="preserve" text-anchor="start" x="24.12" y="-306.35" font-family="Roboto" font-size="12.00">description</text>
<polygon fill="#bbdefb" stroke="none" points="98.75,-302 98.75,-320.75 161.75,-320.75 161.75,-302 98.75,-302"/>
<polygon fill="none" stroke="black" points="98.75,-302 98.75,-320.75 161.75,-320.75 161.75,-302 98.75,-302"/>
<text xml:space="preserve" text-anchor="start" x="109.25" y="-306.35" font-family="Roboto" font-size="12.00">TEXT ()</text>
<polygon fill="#bbdefb" stroke="none" points="8,-283.25 8,-302 98.75,-302 98.75,-283.25 8,-283.25"/>
<polygon fill="none" stroke="black" points="8,-283.25 8,-302 98.75,-302 98.75,-283.25 8,-283.25"/>
<text xml:space="preserve" text-anchor="start" x="31.25" y="-287.6" font-family="Roboto" font-size="12.00">repo_url</text>
<polygon fill="#bbdefb" stroke="none" points="98.75,-283.25 98.75,-302 161.75,-302 161.75,-283.25 98.75,-283.25"/>
<polygon fill="none" stroke="black" points="98.75,-283.25 98.75,-302 161.75,-302 161.75,-283.25 98.75,-283.25"/>
<text xml:space="preserve" text-anchor="start" x="109.25" y="-287.6" font-family="Roboto" font-size="12.00">TEXT ()</text>
<polygon fill="#bbdefb" stroke="none" points="8,-264.5 8,-283.25 98.75,-283.25 98.75,-264.5 8,-264.5"/>
<polygon fill="none" stroke="black" points="8,-264.5 8,-283.25 98.75,-283.25 98.75,-264.5 8,-264.5"/>
<text xml:space="preserve" text-anchor="start" x="11" y="-268.85" font-family="Roboto" font-size="12.00">default_revision</text>
<polygon fill="#bbdefb" stroke="none" points="98.75,-264.5 98.75,-283.25 161.75,-283.25 161.75,-264.5 98.75,-264.5"/>
<polygon fill="none" stroke="black" points="98.75,-264.5 98.75,-283.25 161.75,-283.25 161.75,-264.5 98.75,-264.5"/>
<text xml:space="preserve" text-anchor="start" x="109.25" y="-268.85" font-family="Roboto" font-size="12.00">TEXT ()</text>
</a>
</g>
</g>
<!-- WorkflowRun&#45;&gt;Workflow -->
<g id="edge4" class="edge">
<title>WorkflowRun&#45;&gt;Workflow</title>
<g id="a_edge4"><a xlink:title="Relation between WorkflowRun and Workflow">
<path fill="none" stroke="#1e88e5" stroke-dasharray="5,2" d="M290.11,-480.84C249.34,-463.05 202.05,-439.04 163.88,-410.25 155.37,-403.83 147.07,-396.39 139.24,-388.61"/>
<polygon fill="#1e88e5" stroke="#1e88e5" points="142.12,-386.55 132.64,-381.82 137.1,-391.43 142.12,-386.55"/>
</a>
</g>
<text xml:space="preserve" text-anchor="middle" x="183.38" y="-400.75" font-family="Roboto" font-size="10.00">workflow</text>
</g>
<!-- RunMetric -->
<g id="node4" class="node">
<title>RunMetric</title>
<g id="a_node4"><a xlink:href="http://RunMetric_details.html" xlink:title="&lt;TABLE&gt;">
<polygon fill="#3f51b5" stroke="none" points="195.38,-330.12 195.38,-348.88 360.38,-348.88 360.38,-330.12 195.38,-330.12"/>
<polygon fill="none" stroke="black" points="195.38,-330.12 195.38,-348.88 360.38,-348.88 360.38,-330.12 195.38,-330.12"/>
<text xml:space="preserve" text-anchor="start" x="250.5" y="-334.48" font-family="Roboto" font-size="12.00" fill="white">RunMetric</text>
<polygon fill="#bbdefb" stroke="none" points="195.38,-311.38 195.38,-330.12 259.88,-330.12 259.88,-311.38 195.38,-311.38"/>
<polygon fill="none" stroke="black" points="195.38,-311.38 195.38,-330.12 259.88,-330.12 259.88,-311.38 195.38,-311.38"/>
<text xml:space="preserve" text-anchor="start" x="210.75" y="-315.73" font-family="Roboto" font-size="12.00">run_id</text>
<polygon fill="#bbdefb" stroke="none" points="259.88,-311.38 259.88,-330.12 360.38,-330.12 360.38,-311.38 259.88,-311.38"/>
<polygon fill="none" stroke="black" points="259.88,-311.38 259.88,-330.12 360.38,-330.12 360.38,-311.38 259.88,-311.38"/>
<text xml:space="preserve" text-anchor="start" x="281.62" y="-315.73" font-family="Roboto" font-size="12.00">UUID (PK)</text>
<polygon fill="#bbdefb" stroke="none" points="195.38,-292.62 195.38,-311.38 259.88,-311.38 259.88,-292.62 195.38,-292.62"/>
<polygon fill="none" stroke="black" points="195.38,-292.62 195.38,-311.38 259.88,-311.38 259.88,-292.62 195.38,-292.62"/>
<text xml:space="preserve" text-anchor="start" x="198.38" y="-296.98" font-family="Roboto" font-size="12.00">max_score</text>
<polygon fill="#bbdefb" stroke="none" points="259.88,-292.62 259.88,-311.38 360.38,-311.38 360.38,-292.62 259.88,-292.62"/>
<polygon fill="none" stroke="black" points="259.88,-292.62 259.88,-311.38 360.38,-311.38 360.38,-292.62 259.88,-292.62"/>
<text xml:space="preserve" text-anchor="start" x="262.88" y="-296.98" font-family="Roboto" font-size="12.00">NUMERIC(8, 2) ()</text>
</a>
</g>
</g>
<!-- WorkflowRun&#45;&gt;RunMetric -->
<g id="edge5" class="edge">
<title>WorkflowRun&#45;&gt;RunMetric</title>
<g id="a_edge5"><a xlink:title="Relation between WorkflowRun and RunMetric">
<path fill="none" stroke="#1e88e5" stroke-dasharray="5,2" d="M314.67,-428.49C311.05,-422.45 307.66,-416.34 304.62,-410.25 297.37,-395.72 291.67,-378.84 287.43,-363.75"/>
<polygon fill="#1e88e5" stroke="#1e88e5" points="290.81,-362.85 284.86,-354.09 284.05,-364.65 290.81,-362.85"/>
</a>
</g>
<text xml:space="preserve" text-anchor="middle" x="320.75" y="-400.75" font-family="Roboto" font-size="10.00">metrics</text>
</g>
<!-- RunInput -->
<g id="node5" class="node">
<title>RunInput</title>
<g id="a_node5"><a xlink:href="http://RunInput_details.html" xlink:title="&lt;TABLE&gt;">
<polygon fill="#3f51b5" stroke="none" points="398.5,-41.5 398.5,-60.25 537.25,-60.25 537.25,-41.5 398.5,-41.5"/>
<polygon fill="none" stroke="black" points="398.5,-41.5 398.5,-60.25 537.25,-60.25 537.25,-41.5 398.5,-41.5"/>
<text xml:space="preserve" text-anchor="start" x="443.5" y="-45.85" font-family="Roboto" font-size="12.00" fill="white">RunInput</text>
<polygon fill="#bbdefb" stroke="none" points="398.5,-22.75 398.5,-41.5 472.75,-41.5 472.75,-22.75 398.5,-22.75"/>
<polygon fill="none" stroke="black" points="398.5,-22.75 398.5,-41.5 472.75,-41.5 472.75,-22.75 398.5,-22.75"/>
<text xml:space="preserve" text-anchor="start" x="418.75" y="-27.1" font-family="Roboto" font-size="12.00">run_id</text>
<polygon fill="#bbdefb" stroke="none" points="472.75,-22.75 472.75,-41.5 537.25,-41.5 537.25,-22.75 472.75,-22.75"/>
<polygon fill="none" stroke="black" points="472.75,-22.75 472.75,-41.5 537.25,-41.5 537.25,-22.75 472.75,-22.75"/>
<text xml:space="preserve" text-anchor="start" x="476.5" y="-27.1" font-family="Roboto" font-size="12.00">UUID (PK)</text>
<polygon fill="#bbdefb" stroke="none" points="398.5,-4 398.5,-22.75 472.75,-22.75 472.75,-4 398.5,-4"/>
<polygon fill="none" stroke="black" points="398.5,-4 398.5,-22.75 472.75,-22.75 472.75,-4 398.5,-4"/>
<text xml:space="preserve" text-anchor="start" x="401.5" y="-8.35" font-family="Roboto" font-size="12.00">s3_object_id</text>
<polygon fill="#bbdefb" stroke="none" points="472.75,-4 472.75,-22.75 537.25,-22.75 537.25,-4 472.75,-4"/>
<polygon fill="none" stroke="black" points="472.75,-4 472.75,-22.75 537.25,-22.75 537.25,-4 472.75,-4"/>
<text xml:space="preserve" text-anchor="start" x="475.75" y="-8.35" font-family="Roboto" font-size="12.00">TEXT (PK)</text>
</a>
</g>
</g>
<!-- WorkflowRun&#45;&gt;RunInput -->
<g id="edge6" class="edge">
<title>WorkflowRun&#45;&gt;RunInput</title>
<g id="a_edge6"><a xlink:title="Relation between WorkflowRun and RunInput">
<path fill="none" stroke="#1e88e5" stroke-dasharray="5,2" d="M385.99,-428.31C390.88,-346.06 401.02,-219.65 420.88,-111.5 423.31,-98.24 422.78,-94.27 428.88,-82.25 430.35,-79.34 432.02,-76.43 433.81,-73.57"/>
<polygon fill="#1e88e5" stroke="#1e88e5" points="436.68,-75.57 439.43,-65.33 430.9,-71.62 436.68,-75.57"/>
</a>
</g>
<text xml:space="preserve" text-anchor="middle" x="415.88" y="-233" font-family="Roboto" font-size="10.00">inputs</text>
</g>
<!-- RunOutput -->
<g id="node6" class="node">
<title>RunOutput</title>
<g id="a_node6"><a xlink:href="http://RunOutput_details.html" xlink:title="&lt;TABLE&gt;">
<polygon fill="#3f51b5" stroke="none" points="432.5,-330.12 432.5,-348.88 571.25,-348.88 571.25,-330.12 432.5,-330.12"/>
<polygon fill="none" stroke="black" points="432.5,-330.12 432.5,-348.88 571.25,-348.88 571.25,-330.12 432.5,-330.12"/>
<text xml:space="preserve" text-anchor="start" x="473" y="-334.48" font-family="Roboto" font-size="12.00" fill="white">RunOutput</text>
<polygon fill="#bbdefb" stroke="none" points="432.5,-311.38 432.5,-330.12 506.75,-330.12 506.75,-311.38 432.5,-311.38"/>
<polygon fill="none" stroke="black" points="432.5,-311.38 432.5,-330.12 506.75,-330.12 506.75,-311.38 432.5,-311.38"/>
<text xml:space="preserve" text-anchor="start" x="452.75" y="-315.73" font-family="Roboto" font-size="12.00">run_id</text>
<polygon fill="#bbdefb" stroke="none" points="506.75,-311.38 506.75,-330.12 571.25,-330.12 571.25,-311.38 506.75,-311.38"/>
<polygon fill="none" stroke="black" points="506.75,-311.38 506.75,-330.12 571.25,-330.12 571.25,-311.38 506.75,-311.38"/>
<text xml:space="preserve" text-anchor="start" x="510.5" y="-315.73" font-family="Roboto" font-size="12.00">UUID (PK)</text>
<polygon fill="#bbdefb" stroke="none" points="432.5,-292.62 432.5,-311.38 506.75,-311.38 506.75,-292.62 432.5,-292.62"/>
<polygon fill="none" stroke="black" points="432.5,-292.62 432.5,-311.38 506.75,-311.38 506.75,-292.62 432.5,-292.62"/>
<text xml:space="preserve" text-anchor="start" x="435.5" y="-296.98" font-family="Roboto" font-size="12.00">s3_object_id</text>
<polygon fill="#bbdefb" stroke="none" points="506.75,-292.62 506.75,-311.38 571.25,-311.38 571.25,-292.62 506.75,-292.62"/>
<polygon fill="none" stroke="black" points="506.75,-292.62 506.75,-311.38 571.25,-311.38 571.25,-292.62 506.75,-292.62"/>
<text xml:space="preserve" text-anchor="start" x="509.75" y="-296.98" font-family="Roboto" font-size="12.00">TEXT (PK)</text>
</a>
</g>
</g>
<!-- WorkflowRun&#45;&gt;RunOutput -->
<g id="edge7" class="edge">
<title>WorkflowRun&#45;&gt;RunOutput</title>
<g id="a_edge7"><a xlink:title="Relation between WorkflowRun and RunOutput">
<path fill="none" stroke="#1e88e5" stroke-dasharray="5,2" d="M422.39,-428.48C427.86,-418.36 433.66,-408.33 439.62,-399 447.83,-386.17 457.8,-372.98 467.33,-361.21"/>
<polygon fill="#1e88e5" stroke="#1e88e5" points="469.87,-363.63 473.54,-353.69 464.47,-359.18 469.87,-363.63"/>
</a>
</g>
<text xml:space="preserve" text-anchor="middle" x="455.75" y="-400.75" font-family="Roboto" font-size="10.00">outputs</text>
</g>
<!-- Workflow&#45;&gt;WorkflowRun -->
<g id="edge2" class="edge">
<title>Workflow&#45;&gt;WorkflowRun</title>
<g id="a_edge2"><a xlink:title="Relation between Workflow and WorkflowRun">
<path fill="none" stroke="#1e88e5" stroke-dasharray="5,2" d="M169.56,-377.03C204.08,-399.56 244.29,-425.81 280.37,-449.36"/>
<polygon fill="#1e88e5" stroke="#1e88e5" points="278.38,-452.25 288.67,-454.78 282.21,-446.39 278.38,-452.25"/>
</a>
</g>
<text xml:space="preserve" text-anchor="middle" x="224.97" y="-400.75" font-family="Roboto" font-size="10.00">runs</text>
</g>
<!-- RunMetric&#45;&gt;WorkflowRun -->
<g id="edge14" class="edge">
<title>RunMetric&#45;&gt;WorkflowRun</title>
<g id="a_edge14"><a xlink:title="Relation between RunMetric and WorkflowRun">
<path fill="none" stroke="#1e88e5" stroke-dasharray="5,2" d="M304.71,-352.66C315.64,-366.26 327.81,-382.8 336.88,-399 340.28,-405.09 343.55,-411.49 346.64,-418.03"/>
<polygon fill="#1e88e5" stroke="#1e88e5" points="343.41,-419.37 350.75,-427.01 349.78,-416.46 343.41,-419.37"/>
</a>
</g>
<text xml:space="preserve" text-anchor="middle" x="348.41" y="-400.75" font-family="Roboto" font-size="10.00">run</text>
</g>
<!-- RunInput&#45;&gt;WorkflowRun -->
<g id="edge10" class="edge">
<title>RunInput&#45;&gt;WorkflowRun</title>
<g id="a_edge10"><a xlink:title="Relation between RunInput and WorkflowRun">
<path fill="none" stroke="#1e88e5" stroke-dasharray="5,2" d="M535.5,-64.24C554.1,-76.26 572.1,-91.92 582.88,-111.5 586.4,-117.91 597.56,-363.09 587.88,-381 565.38,-422.57 523.86,-453.35 483.96,-474.91"/>
<polygon fill="#1e88e5" stroke="#1e88e5" points="482.44,-471.75 475.2,-479.49 485.69,-477.95 482.44,-471.75"/>
</a>
</g>
<text xml:space="preserve" text-anchor="middle" x="597.08" y="-233" font-family="Roboto" font-size="10.00">run</text>
</g>
<!-- S3Object -->
<g id="node7" class="node">
<title>S3Object</title>
<g id="a_node7"><a xlink:href="http://S3Object_details.html" xlink:title="&lt;TABLE&gt;">
<polygon fill="#3f51b5" stroke="none" points="437.75,-190.5 437.75,-209.25 566,-209.25 566,-190.5 437.75,-190.5"/>
<polygon fill="none" stroke="black" points="437.75,-190.5 437.75,-209.25 566,-209.25 566,-190.5 437.75,-190.5"/>
<text xml:space="preserve" text-anchor="start" x="477.12" y="-194.85" font-family="Roboto" font-size="12.00" fill="white">S3Object</text>
<polygon fill="#bbdefb" stroke="none" points="437.75,-171.75 437.75,-190.5 501.5,-190.5 501.5,-171.75 437.75,-171.75"/>
<polygon fill="none" stroke="black" points="437.75,-171.75 437.75,-190.5 501.5,-190.5 501.5,-171.75 437.75,-171.75"/>
<text xml:space="preserve" text-anchor="start" x="440.75" y="-176.1" font-family="Roboto" font-size="12.00">object_key</text>
<polygon fill="#bbdefb" stroke="none" points="501.5,-171.75 501.5,-190.5 566,-190.5 566,-171.75 501.5,-171.75"/>
<polygon fill="none" stroke="black" points="501.5,-171.75 501.5,-190.5 566,-190.5 566,-171.75 501.5,-171.75"/>
<text xml:space="preserve" text-anchor="start" x="504.5" y="-176.1" font-family="Roboto" font-size="12.00">TEXT (PK)</text>
<polygon fill="#bbdefb" stroke="none" points="437.75,-153 437.75,-171.75 501.5,-171.75 501.5,-153 437.75,-153"/>
<polygon fill="none" stroke="black" points="437.75,-153 437.75,-171.75 501.5,-171.75 501.5,-153 437.75,-153"/>
<text xml:space="preserve" text-anchor="start" x="459.12" y="-157.35" font-family="Roboto" font-size="12.00">URI</text>
<polygon fill="#bbdefb" stroke="none" points="501.5,-153 501.5,-171.75 566,-171.75 566,-153 501.5,-153"/>
<polygon fill="none" stroke="black" points="501.5,-153 501.5,-171.75 566,-171.75 566,-153 501.5,-153"/>
<text xml:space="preserve" text-anchor="start" x="512.75" y="-157.35" font-family="Roboto" font-size="12.00">TEXT ()</text>
<polygon fill="#bbdefb" stroke="none" points="437.75,-134.25 437.75,-153 501.5,-153 501.5,-134.25 437.75,-134.25"/>
<polygon fill="none" stroke="black" points="437.75,-134.25 437.75,-153 501.5,-153 501.5,-134.25 437.75,-134.25"/>
<text xml:space="preserve" text-anchor="start" x="441.88" y="-138.6" font-family="Roboto" font-size="12.00">version_id</text>
<polygon fill="#bbdefb" stroke="none" points="501.5,-134.25 501.5,-153 566,-153 566,-134.25 501.5,-134.25"/>
<polygon fill="none" stroke="black" points="501.5,-134.25 501.5,-153 566,-153 566,-134.25 501.5,-134.25"/>
<text xml:space="preserve" text-anchor="start" x="512.75" y="-138.6" font-family="Roboto" font-size="12.00">TEXT ()</text>
<polygon fill="#bbdefb" stroke="none" points="437.75,-115.5 437.75,-134.25 501.5,-134.25 501.5,-115.5 437.75,-115.5"/>
<polygon fill="none" stroke="black" points="437.75,-115.5 437.75,-134.25 501.5,-134.25 501.5,-115.5 437.75,-115.5"/>
<text xml:space="preserve" text-anchor="start" x="441.12" y="-119.85" font-family="Roboto" font-size="12.00">size_bytes</text>
<polygon fill="#bbdefb" stroke="none" points="501.5,-115.5 501.5,-134.25 566,-134.25 566,-115.5 501.5,-115.5"/>
<polygon fill="none" stroke="black" points="501.5,-115.5 501.5,-134.25 566,-134.25 566,-115.5 501.5,-115.5"/>
<text xml:space="preserve" text-anchor="start" x="508.62" y="-119.85" font-family="Roboto" font-size="12.00">BIGINT ()</text>
</a>
</g>
</g>
<!-- RunInput&#45;&gt;S3Object -->
<g id="edge11" class="edge">
<title>RunInput&#45;&gt;S3Object</title>
<g id="a_edge11"><a xlink:title="Relation between RunInput and S3Object">
<path fill="none" stroke="#1e88e5" stroke-dasharray="5,2" d="M476.07,-64.05C479.01,-75.12 482.43,-88.01 485.79,-100.72"/>
<polygon fill="#1e88e5" stroke="#1e88e5" points="482.4,-101.56 488.34,-110.33 489.16,-99.76 482.4,-101.56"/>
</a>
</g>
<text xml:space="preserve" text-anchor="middle" x="504.86" y="-84" font-family="Roboto" font-size="10.00">s3_object</text>
</g>
<!-- RunOutput&#45;&gt;WorkflowRun -->
<g id="edge12" class="edge">
<title>RunOutput&#45;&gt;WorkflowRun</title>
<g id="a_edge12"><a xlink:title="Relation between RunOutput and WorkflowRun">
<path fill="none" stroke="#1e88e5" stroke-dasharray="5,2" d="M494.45,-352.87C489.52,-370.42 482.06,-392.34 471.88,-410.25 470.26,-413.09 468.56,-415.93 466.79,-418.76"/>
<polygon fill="#1e88e5" stroke="#1e88e5" points="463.92,-416.76 461.37,-427.04 469.78,-420.59 463.92,-416.76"/>
</a>
</g>
<text xml:space="preserve" text-anchor="middle" x="483.34" y="-400.75" font-family="Roboto" font-size="10.00">run</text>
</g>
<!-- RunOutput&#45;&gt;S3Object -->
<g id="edge13" class="edge">
<title>RunOutput&#45;&gt;S3Object</title>
<g id="a_edge13"><a xlink:title="Relation between RunOutput and S3Object">
<path fill="none" stroke="#1e88e5" stroke-dasharray="5,2" d="M472.16,-288.99C459.83,-272.49 449.68,-251.45 455.88,-231.25 456.67,-228.67 457.6,-226.09 458.64,-223.54"/>
<polygon fill="#1e88e5" stroke="#1e88e5" points="461.76,-225.13 462.83,-214.59 455.42,-222.16 461.76,-225.13"/>
</a>
</g>
<text xml:space="preserve" text-anchor="middle" x="476.88" y="-233" font-family="Roboto" font-size="10.00">s3_object</text>
</g>
<!-- S3Object&#45;&gt;RunInput -->
<g id="edge8" class="edge">
<title>S3Object&#45;&gt;RunInput</title>
<g id="a_edge8"><a xlink:title="Relation between S3Object and RunInput">
<path fill="none" stroke="#1e88e5" stroke-dasharray="5,2" d="M445.23,-111.87C441.09,-106.08 437.52,-99.93 434.88,-93.5 432.29,-87.2 432.49,-80.71 434.37,-74.43"/>
<polygon fill="#1e88e5" stroke="#1e88e5" points="437.47,-76.07 438.3,-65.51 431.07,-73.25 437.47,-76.07"/>
</a>
</g>
<text xml:space="preserve" text-anchor="middle" x="457.38" y="-84" font-family="Roboto" font-size="10.00">run_inputs</text>
</g>
<!-- S3Object&#45;&gt;RunOutput -->
<g id="edge9" class="edge">
<title>S3Object&#45;&gt;RunOutput</title>
<g id="a_edge9"><a xlink:title="Relation between S3Object and RunOutput">
<path fill="none" stroke="#1e88e5" stroke-dasharray="5,2" d="M501.88,-212.98C501.88,-233.68 501.88,-257.49 501.88,-277.36"/>
<polygon fill="#1e88e5" stroke="#1e88e5" points="498.38,-277.34 501.88,-287.34 505.38,-277.34 498.38,-277.34"/>
</a>
</g>
<text xml:space="preserve" text-anchor="middle" x="527.38" y="-233" font-family="Roboto" font-size="10.00">run_outputs</text>
</g>
</g>
</svg>
