<?xml version="1.0" encoding="UTF-8" standalone="no"?>
<!DOCTYPE svg PUBLIC "-//W3C//DTD SVG 1.1//EN"
 "http://www.w3.org/Graphics/SVG/1.1/DTD/svg11.dtd">
<!-- Generated by graphviz version 14.0.4 (20251115.1723)
 -->
<!-- Pages: 1 -->
<svg width="654pt" height="912pt"
 viewBox="0.00 0.00 654.00 912.00" xmlns="http://www.w3.org/2000/svg" xmlns:xlink="http://www.w3.org/1999/xlink">
<g id="graph0" class="graph" transform="scale(1 1) rotate(0) translate(4 908)">
<polygon fill="#eeeeee" stroke="none" points="-4,4 -4,-908 650.09,-908 650.09,4 -4,4"/>
<!-- AppUser -->
<g id="node1" class="node">
<title>AppUser</title>
<g id="a_node1"><a xlink:href="http://AppUser_details.html" xlink:title="&lt;TABLE&gt;">
<polygon fill="#3f51b5" stroke="none" points="328.88,-881.25 328.88,-900 520.88,-900 520.88,-881.25 328.88,-881.25"/>
<polygon fill="none" stroke="black" points="328.88,-881.25 328.88,-900 520.88,-900 520.88,-881.25 328.88,-881.25"/>
<text xml:space="preserve" text-anchor="start" x="401.25" y="-885.6" font-family="Roboto" font-size="12.00" fill="white">AppUser</text>
<polygon fill="#bbdefb" stroke="none" points="328.88,-862.5 328.88,-881.25 433.88,-881.25 433.88,-862.5 328.88,-862.5"/>
<polygon fill="none" stroke="black" points="328.88,-862.5 328.88,-881.25 433.88,-881.25 433.88,-862.5 328.88,-862.5"/>
<text xml:space="preserve" text-anchor="start" x="376.5" y="-866.85" font-family="Roboto" font-size="12.00">id</text>
<polygon fill="#bbdefb" stroke="none" points="433.88,-862.5 433.88,-881.25 520.88,-881.25 520.88,-862.5 433.88,-862.5"/>
<polygon fill="none" stroke="black" points="433.88,-862.5 433.88,-881.25 520.88,-881.25 520.88,-862.5 433.88,-862.5"/>
<text xml:space="preserve" text-anchor="start" x="448.88" y="-866.85" font-family="Roboto" font-size="12.00">UUID (PK)</text>
<polygon fill="#bbdefb" stroke="none" points="328.88,-843.75 328.88,-862.5 433.88,-862.5 433.88,-843.75 328.88,-843.75"/>
<polygon fill="none" stroke="black" points="328.88,-843.75 328.88,-862.5 433.88,-862.5 433.88,-843.75 328.88,-843.75"/>
<text xml:space="preserve" text-anchor="start" x="343.12" y="-848.1" font-family="Roboto" font-size="12.00">auth0_user_id</text>
<polygon fill="#bbdefb" stroke="none" points="433.88,-843.75 433.88,-862.5 520.88,-862.5 520.88,-843.75 433.88,-843.75"/>
<polygon fill="none" stroke="black" points="433.88,-843.75 433.88,-862.5 520.88,-862.5 520.88,-843.75 433.88,-843.75"/>
<text xml:space="preserve" text-anchor="start" x="436.88" y="-848.1" font-family="Roboto" font-size="12.00">TEXT (Unique)</text>
<polygon fill="#bbdefb" stroke="none" points="328.88,-825 328.88,-843.75 433.88,-843.75 433.88,-825 328.88,-825"/>
<polygon fill="none" stroke="black" points="328.88,-825 328.88,-843.75 433.88,-843.75 433.88,-825 328.88,-825"/>
<text xml:space="preserve" text-anchor="start" x="366.38" y="-829.35" font-family="Roboto" font-size="12.00">name</text>
<polygon fill="#bbdefb" stroke="none" points="433.88,-825 433.88,-843.75 520.88,-843.75 520.88,-825 433.88,-825"/>
<polygon fill="none" stroke="black" points="433.88,-825 433.88,-843.75 520.88,-843.75 520.88,-825 433.88,-825"/>
<text xml:space="preserve" text-anchor="start" x="456.38" y="-829.35" font-family="Roboto" font-size="12.00">TEXT ()</text>
<polygon fill="#bbdefb" stroke="none" points="328.88,-806.25 328.88,-825 433.88,-825 433.88,-806.25 328.88,-806.25"/>
<polygon fill="none" stroke="black" points="328.88,-806.25 328.88,-825 433.88,-825 433.88,-806.25 328.88,-806.25"/>
<text xml:space="preserve" text-anchor="start" x="366.75" y="-810.6" font-family="Roboto" font-size="12.00">email</text>
<polygon fill="#bbdefb" stroke="none" points="433.88,-806.25 433.88,-825 520.88,-825 520.88,-806.25 433.88,-806.25"/>
<polygon fill="none" stroke="black" points="433.88,-806.25 433.88,-825 520.88,-825 520.88,-806.25 433.88,-806.25"/>
<text xml:space="preserve" text-anchor="start" x="436.88" y="-810.6" font-family="Roboto" font-size="12.00">TEXT (Unique)</text>
<polygon fill="#bbdefb" stroke="none" points="328.88,-787.5 328.88,-806.25 433.88,-806.25 433.88,-787.5 328.88,-787.5"/>
<polygon fill="none" stroke="black" points="328.88,-787.5 328.88,-806.25 433.88,-806.25 433.88,-787.5 328.88,-787.5"/>
<text xml:space="preserve" text-anchor="start" x="366.75" y="-791.85" font-family="Roboto" font-size="12.00">credit</text>
<polygon fill="#bbdefb" stroke="none" points="433.88,-787.5 433.88,-806.25 520.88,-806.25 520.88,-787.5 433.88,-787.5"/>
<polygon fill="none" stroke="black" points="433.88,-787.5 433.88,-806.25 520.88,-806.25 520.88,-787.5 433.88,-787.5"/>
<text xml:space="preserve" text-anchor="start" x="452.25" y="-791.85" font-family="Roboto" font-size="12.00">BIGINT ()</text>
<polygon fill="#bbdefb" stroke="none" points="328.88,-768.75 328.88,-787.5 433.88,-787.5 433.88,-768.75 328.88,-768.75"/>
<polygon fill="none" stroke="black" points="328.88,-768.75 328.88,-787.5 433.88,-787.5 433.88,-768.75 328.88,-768.75"/>
<text xml:space="preserve" text-anchor="start" x="333.38" y="-773.1" font-family="Roboto" font-size="12.00">credit_updated_at</text>
<polygon fill="#bbdefb" stroke="none" points="433.88,-768.75 433.88,-787.5 520.88,-787.5 520.88,-768.75 433.88,-768.75"/>
<polygon fill="none" stroke="black" points="433.88,-768.75 433.88,-787.5 520.88,-787.5 520.88,-768.75 433.88,-768.75"/>
<text xml:space="preserve" text-anchor="start" x="442.12" y="-773.1" font-family="Roboto" font-size="12.00">DATETIME ()</text>
<polygon fill="#bbdefb" stroke="none" points="328.88,-750 328.88,-768.75 433.88,-768.75 433.88,-750 328.88,-750"/>
<polygon fill="none" stroke="black" points="328.88,-750 328.88,-768.75 433.88,-768.75 433.88,-750 328.88,-750"/>
<text xml:space="preserve" text-anchor="start" x="331.88" y="-754.35" font-family="Roboto" font-size="12.00">credit_updated_by</text>
<polygon fill="#bbdefb" stroke="none" points="433.88,-750 433.88,-768.75 520.88,-768.75 520.88,-750 433.88,-750"/>
<polygon fill="none" stroke="black" points="433.88,-750 433.88,-768.75 520.88,-768.75 520.88,-750 433.88,-750"/>
<text xml:space="preserve" text-anchor="start" x="456.38" y="-754.35" font-family="Roboto" font-size="12.00">TEXT ()</text>
</a>
</g>
</g>
<!-- WorkflowRun -->
<g id="node2" class="node">
<title>WorkflowRun</title>
<g id="a_node2"><a xlink:href="http://WorkflowRun_details.html" xlink:title="&lt;TABLE&gt;">
<polygon fill="#3f51b5" stroke="none" points="322.5,-676 322.5,-694.75 527.25,-694.75 527.25,-676 322.5,-676"/>
<polygon fill="none" stroke="black" points="322.5,-676 322.5,-694.75 527.25,-694.75 527.25,-676 322.5,-676"/>
<text xml:space="preserve" text-anchor="start" x="388.88" y="-680.35" font-family="Roboto" font-size="12.00" fill="white">WorkflowRun</text>
<polygon fill="#bbdefb" stroke="none" points="322.5,-657.25 322.5,-676 450.75,-676 450.75,-657.25 322.5,-657.25"/>
<polygon fill="none" stroke="black" points="322.5,-657.25 322.5,-676 450.75,-676 450.75,-657.25 322.5,-657.25"/>
<text xml:space="preserve" text-anchor="start" x="381.75" y="-661.6" font-family="Roboto" font-size="12.00">id</text>
<polygon fill="#bbdefb" stroke="none" points="450.75,-657.25 450.75,-676 527.25,-676 527.25,-657.25 450.75,-657.25"/>
<polygon fill="none" stroke="black" points="450.75,-657.25 450.75,-676 527.25,-676 527.25,-657.25 450.75,-657.25"/>
<text xml:space="preserve" text-anchor="start" x="460.5" y="-661.6" font-family="Roboto" font-size="12.00">UUID (PK)</text>
<polygon fill="#bbdefb" stroke="none" points="322.5,-638.5 322.5,-657.25 450.75,-657.25 450.75,-638.5 322.5,-638.5"/>
<polygon fill="none" stroke="black" points="322.5,-638.5 322.5,-657.25 450.75,-657.25 450.75,-638.5 322.5,-638.5"/>
<text xml:space="preserve" text-anchor="start" x="354.75" y="-642.85" font-family="Roboto" font-size="12.00">workflow_id</text>
<polygon fill="#bbdefb" stroke="none" points="450.75,-638.5 450.75,-657.25 527.25,-657.25 527.25,-638.5 450.75,-638.5"/>
<polygon fill="none" stroke="black" points="450.75,-638.5 450.75,-657.25 527.25,-657.25 527.25,-638.5 450.75,-638.5"/>
<text xml:space="preserve" text-anchor="start" x="468.75" y="-642.85" font-family="Roboto" font-size="12.00">UUID ()</text>
<polygon fill="#bbdefb" stroke="none" points="322.5,-619.75 322.5,-638.5 450.75,-638.5 450.75,-619.75 322.5,-619.75"/>
<polygon fill="none" stroke="black" points="322.5,-619.75 322.5,-638.5 450.75,-638.5 450.75,-619.75 322.5,-619.75"/>
<text xml:space="preserve" text-anchor="start" x="346.88" y="-624.1" font-family="Roboto" font-size="12.00">owner_user_id</text>
<polygon fill="#bbdefb" stroke="none" points="450.75,-619.75 450.75,-638.5 527.25,-638.5 527.25,-619.75 450.75,-619.75"/>
<polygon fill="none" stroke="black" points="450.75,-619.75 450.75,-638.5 527.25,-638.5 527.25,-619.75 450.75,-619.75"/>
<text xml:space="preserve" text-anchor="start" x="468.75" y="-624.1" font-family="Roboto" font-size="12.00">UUID ()</text>
<polygon fill="#bbdefb" stroke="none" points="322.5,-601 322.5,-619.75 450.75,-619.75 450.75,-601 322.5,-601"/>
<polygon fill="none" stroke="black" points="322.5,-601 322.5,-619.75 450.75,-619.75 450.75,-601 322.5,-601"/>
<text xml:space="preserve" text-anchor="start" x="337.12" y="-605.35" font-family="Roboto" font-size="12.00">seqera_dataset_id</text>
<polygon fill="#bbdefb" stroke="none" points="450.75,-601 450.75,-619.75 527.25,-619.75 527.25,-601 450.75,-601"/>
<polygon fill="none" stroke="black" points="450.75,-601 450.75,-619.75 527.25,-619.75 527.25,-601 450.75,-601"/>
<text xml:space="preserve" text-anchor="start" x="468" y="-605.35" font-family="Roboto" font-size="12.00">TEXT ()</text>
<polygon fill="#bbdefb" stroke="none" points="322.5,-582.25 322.5,-601 450.75,-601 450.75,-582.25 322.5,-582.25"/>
<polygon fill="none" stroke="black" points="322.5,-582.25 322.5,-601 450.75,-601 450.75,-582.25 322.5,-582.25"/>
<text xml:space="preserve" text-anchor="start" x="348" y="-586.6" font-family="Roboto" font-size="12.00">seqera_run_id</text>
<polygon fill="#bbdefb" stroke="none" points="450.75,-582.25 450.75,-601 527.25,-601 527.25,-582.25 450.75,-582.25"/>
<polygon fill="none" stroke="black" points="450.75,-582.25 450.75,-601 527.25,-601 527.25,-582.25 450.75,-582.25"/>
<text xml:space="preserve" text-anchor="start" x="468" y="-586.6" font-family="Roboto" font-size="12.00">TEXT ()</text>
<polygon fill="#bbdefb" stroke="none" points="322.5,-563.5 322.5,-582.25 450.75,-582.25 450.75,-563.5 322.5,-563.5"/>
<polygon fill="none" stroke="black" points="322.5,-563.5 322.5,-582.25 450.75,-582.25 450.75,-563.5 322.5,-563.5"/>
<text xml:space="preserve" text-anchor="start" x="351.38" y="-567.85" font-family="Roboto" font-size="12.00">binder_name</text>
<polygon fill="#bbdefb" stroke="none" points="450.75,-563.5 450.75,-582.25 527.25,-582.25 527.25,-563.5 450.75,-563.5"/>
<polygon fill="none" stroke="black" points="450.75,-563.5 450.75,-582.25 527.25,-582.25 527.25,-563.5 450.75,-563.5"/>
<text xml:space="preserve" text-anchor="start" x="468" y="-567.85" font-family="Roboto" font-size="12.00">TEXT ()</text>
<polygon fill="#bbdefb" stroke="none" points="322.5,-544.75 322.5,-563.5 450.75,-563.5 450.75,-544.75 322.5,-544.75"/>
<polygon fill="none" stroke="black" points="322.5,-544.75 322.5,-563.5 450.75,-563.5 450.75,-544.75 322.5,-544.75"/>
<text xml:space="preserve" text-anchor="start" x="358.88" y="-549.1" font-family="Roboto" font-size="12.00">sample_id</text>
<polygon fill="#bbdefb" stroke="none" points="450.75,-544.75 450.75,-563.5 527.25,-563.5 527.25,-544.75 450.75,-544.75"/>
<polygon fill="none" stroke="black" points="450.75,-544.75 450.75,-563.5 527.25,-563.5 527.25,-544.75 450.75,-544.75"/>
<text xml:space="preserve" text-anchor="start" x="468" y="-549.1" font-family="Roboto" font-size="12.00">TEXT ()</text>
<polygon fill="#bbdefb" stroke="none" points="322.5,-526 322.5,-544.75 450.75,-544.75 450.75,-526 322.5,-526"/>
<polygon fill="none" stroke="black" points="322.5,-526 322.5,-544.75 450.75,-544.75 450.75,-526 322.5,-526"/>
<text xml:space="preserve" text-anchor="start" x="359.62" y="-530.35" font-family="Roboto" font-size="12.00">run_name</text>
<polygon fill="#bbdefb" stroke="none" points="450.75,-526 450.75,-544.75 527.25,-544.75 527.25,-526 450.75,-526"/>
<polygon fill="none" stroke="black" points="450.75,-526 450.75,-544.75 527.25,-544.75 527.25,-526 450.75,-526"/>
<text xml:space="preserve" text-anchor="start" x="468" y="-530.35" font-family="Roboto" font-size="12.00">TEXT ()</text>
<polygon fill="#bbdefb" stroke="none" points="322.5,-507.25 322.5,-526 450.75,-526 450.75,-507.25 322.5,-507.25"/>
<polygon fill="none" stroke="black" points="322.5,-507.25 322.5,-526 450.75,-526 450.75,-507.25 322.5,-507.25"/>
<text xml:space="preserve" text-anchor="start" x="330.75" y="-511.6" font-family="Roboto" font-size="12.00">submitted_form_data</text>
<polygon fill="#bbdefb" stroke="none" points="450.75,-507.25 450.75,-526 527.25,-526 527.25,-507.25 450.75,-507.25"/>
<polygon fill="none" stroke="black" points="450.75,-507.25 450.75,-526 527.25,-526 527.25,-507.25 450.75,-507.25"/>
<text xml:space="preserve" text-anchor="start" x="467.62" y="-511.6" font-family="Roboto" font-size="12.00">JSON ()</text>
<polygon fill="#bbdefb" stroke="none" points="322.5,-488.5 322.5,-507.25 450.75,-507.25 450.75,-488.5 322.5,-488.5"/>
<polygon fill="none" stroke="black" points="322.5,-488.5 322.5,-507.25 450.75,-507.25 450.75,-488.5 322.5,-488.5"/>
<text xml:space="preserve" text-anchor="start" x="363.75" y="-492.85" font-family="Roboto" font-size="12.00">work_dir</text>
<polygon fill="#bbdefb" stroke="none" points="450.75,-488.5 450.75,-507.25 527.25,-507.25 527.25,-488.5 450.75,-488.5"/>
<polygon fill="none" stroke="black" points="450.75,-488.5 450.75,-507.25 527.25,-507.25 527.25,-488.5 450.75,-488.5"/>
<text xml:space="preserve" text-anchor="start" x="468" y="-492.85" font-family="Roboto" font-size="12.00">TEXT ()</text>
<polygon fill="#bbdefb" stroke="none" points="322.5,-469.75 322.5,-488.5 450.75,-488.5 450.75,-469.75 322.5,-469.75"/>
<polygon fill="none" stroke="black" points="322.5,-469.75 322.5,-488.5 450.75,-488.5 450.75,-469.75 322.5,-469.75"/>
<text xml:space="preserve" text-anchor="start" x="360.38" y="-474.1" font-family="Roboto" font-size="12.00">launch_ip</text>
<polygon fill="#bbdefb" stroke="none" points="450.75,-469.75 450.75,-488.5 527.25,-488.5 527.25,-469.75 450.75,-469.75"/>
<polygon fill="none" stroke="black" points="450.75,-469.75 450.75,-488.5 527.25,-488.5 527.25,-469.75 450.75,-469.75"/>
<text xml:space="preserve" text-anchor="start" x="468" y="-474.1" font-family="Roboto" font-size="12.00">TEXT ()</text>
<polygon fill="#bbdefb" stroke="none" points="322.5,-451 322.5,-469.75 450.75,-469.75 450.75,-451 322.5,-451"/>
<polygon fill="none" stroke="black" points="322.5,-451 322.5,-469.75 450.75,-469.75 450.75,-451 322.5,-451"/>
<text xml:space="preserve" text-anchor="start" x="325.5" y="-455.35" font-family="Roboto" font-size="12.00">submission_timestamp</text>
<polygon fill="#bbdefb" stroke="none" points="450.75,-451 450.75,-469.75 527.25,-469.75 527.25,-451 450.75,-451"/>
<polygon fill="none" stroke="black" points="450.75,-451 450.75,-469.75 527.25,-469.75 527.25,-451 450.75,-451"/>
<text xml:space="preserve" text-anchor="start" x="453.75" y="-455.35" font-family="Roboto" font-size="12.00">DATETIME ()</text>
<polygon fill="#bbdefb" stroke="none" points="322.5,-432.25 322.5,-451 450.75,-451 450.75,-432.25 322.5,-432.25"/>
<polygon fill="none" stroke="black" points="322.5,-432.25 322.5,-451 450.75,-451 450.75,-432.25 322.5,-432.25"/>
<text xml:space="preserve" text-anchor="start" x="376.88" y="-436.6" font-family="Roboto" font-size="12.00">tool</text>
<polygon fill="#bbdefb" stroke="none" points="450.75,-432.25 450.75,-451 527.25,-451 527.25,-432.25 450.75,-432.25"/>
<polygon fill="none" stroke="black" points="450.75,-432.25 450.75,-451 527.25,-451 527.25,-432.25 450.75,-432.25"/>
<text xml:space="preserve" text-anchor="start" x="468" y="-436.6" font-family="Roboto" font-size="12.00">TEXT ()</text>
</a>
</g>
</g>
<!-- AppUser&#45;&gt;WorkflowRun -->
<g id="edge1" class="edge">
<title>AppUser&#45;&gt;WorkflowRun</title>
<g id="a_edge1"><a xlink:title="Relation between AppUser and WorkflowRun">
<path fill="none" stroke="#1e88e5" stroke-dasharray="5,2" d="M387.67,-746.02C385.76,-740.01 384.12,-733.97 382.88,-728 381.62,-721.99 380.85,-715.88 380.49,-709.71"/>
<polygon fill="#1e88e5" stroke="#1e88e5" points="384,-710 380.32,-700.07 377,-710.13 384,-710"/>
</a>
</g>
<text xml:space="preserve" text-anchor="middle" x="414.38" y="-718.5" font-family="Roboto" font-size="10.00">workflow_runs</text>
</g>
<!-- WorkflowRun&#45;&gt;AppUser -->
<g id="edge3" class="edge">
<title>WorkflowRun&#45;&gt;AppUser</title>
<g id="a_edge3"><a xlink:title="Relation between WorkflowRun and AppUser">
<path fill="none" stroke="#1e88e5" stroke-dasharray="5,2" d="M447.23,-698.73C447.31,-708.63 446.91,-718.47 445.88,-728 445.62,-730.32 445.34,-732.66 445.03,-735.03"/>
<polygon fill="#1e88e5" stroke="#1e88e5" points="441.6,-734.26 443.59,-744.67 448.53,-735.29 441.6,-734.26"/>
</a>
</g>
<text xml:space="preserve" text-anchor="middle" x="459.77" y="-718.5" font-family="Roboto" font-size="10.00">owner</text>
</g>
<!-- Workflow -->
<g id="node3" class="node">
<title>Workflow</title>
<g id="a_node3"><a xlink:href="http://Workflow_details.html" xlink:title="&lt;TABLE&gt;">
<polygon fill="#3f51b5" stroke="none" points="8,-358.25 8,-377 161.75,-377 161.75,-358.25 8,-358.25"/>
<polygon fill="none" stroke="black" points="8,-358.25 8,-377 161.75,-377 161.75,-358.25 8,-358.25"/>
<text xml:space="preserve" text-anchor="start" x="60.12" y="-362.6" font-family="Roboto" font-size="12.00" fill="white">Workflow</text>
<polygon fill="#bbdefb" stroke="none" points="8,-339.5 8,-358.25 98.75,-358.25 98.75,-339.5 8,-339.5"/>
<polygon fill="none" stroke="black" points="8,-339.5 8,-358.25 98.75,-358.25 98.75,-339.5 8,-339.5"/>
<text xml:space="preserve" text-anchor="start" x="48.5" y="-343.85" font-family="Roboto" font-size="12.00">id</text>
<polygon fill="#bbdefb" stroke="none" points="98.75,-339.5 98.75,-358.25 161.75,-358.25 161.75,-339.5 98.75,-339.5"/>
<polygon fill="none" stroke="black" points="98.75,-339.5 98.75,-358.25 161.75,-358.25 161.75,-339.5 98.75,-339.5"/>
<text xml:space="preserve" text-anchor="start" x="101.75" y="-343.85" font-family="Roboto" font-size="12.00">UUID (PK)</text>
<polygon fill="#bbdefb" stroke="none" points="8,-320.75 8,-339.5 98.75,-339.5 98.75,-320.75 8,-320.75"/>
<polygon fill="none" stroke="black" points="8,-320.75 8,-339.5 98.75,-339.5 98.75,-320.75 8,-320.75"/>
<text xml:space="preserve" text-anchor="start" x="38.38" y="-325.1" font-family="Roboto" font-size="12.00">name</text>
<polygon fill="#bbdefb" stroke="none" points="98.75,-320.75 98.75,-339.5 161.75,-339.5 161.75,-320.75 98.75,-320.75"/>
<polygon fill="none" stroke="black" points="98.75,-320.75 98.75,-339.5 161.75,-339.5 161.75,-320.75 98.75,-320.75"/>
<text xml:space="preserve" text-anchor="start" x="109.25" y="-325.1" font-family="Roboto" font-size="12.00">TEXT ()</text>
<polygon fill="#bbdefb" stroke="none" points="8,-302 8,-320.75 98.75,-320.75 98.75,-302 8,-302"/>
<polygon fill="none" stroke="black" points="8,-302 8,-320.75 98.75,-320.75 98.75,-302 8,-302"/>
<text xml:space="preserve" text-anchor="start" x="24.12" y="-306.35" font-family="Roboto" font-size="12.00">description</text>
<polygon fill="#bbdefb" stroke="none" points="98.75,-302 98.75,-320.75 161.75,-320.75 161.75,-302 98.75,-302"/>
<polygon fill="none" stroke="black" points="98.75,-302 98.75,-320.75 161.75,-320.75 161.75,-302 98.75,-302"/>
<text xml:space="preserve" text-anchor="start" x="109.25" y="-306.35" font-family="Roboto" font-size="12.00">TEXT ()</text>
<polygon fill="#bbdefb" stroke="none" points="8,-283.25 8,-302 98.75,-302 98.75,-283.25 8,-283.25"/>
<polygon fill="none" stroke="black" points="8,-283.25 8,-302 98.75,-302 98.75,-283.25 8,-283.25"/>
<text xml:space="preserve" text-anchor="start" x="31.25" y="-287.6" font-family="Roboto" font-size="12.00">repo_url</text>
<polygon fill="#bbdefb" stroke="none" points="98.75,-283.25 98.75,-302 161.75,-302 161.75,-283.25 98.75,-283.25"/>
<polygon fill="none" stroke="black" points="98.75,-283.25 98.75,-302 161.75,-302 161.75,-283.25 98.75,-283.25"/>
<text xml:space="preserve" text-anchor="start" x="109.25" y="-287.6" font-family="Roboto" font-size="12.00">TEXT ()</text>
<polygon fill="#bbdefb" stroke="none" points="8,-264.5 8,-283.25 98.75,-283.25 98.75,-264.5 8,-264.5"/>
<polygon fill="none" stroke="black" points="8,-264.5 8,-283.25 98.75,-283.25 98.75,-264.5 8,-264.5"/>
<text xml:space="preserve" text-anchor="start" x="11" y="-268.85" font-family="Roboto" font-size="12.00">default_revision</text>
<polygon fill="#bbdefb" stroke="none" points="98.75,-264.5 98.75,-283.25 161.75,-283.25 161.75,-264.5 98.75,-264.5"/>
<polygon fill="none" stroke="black" points="98.75,-264.5 98.75,-283.25 161.75,-283.25 161.75,-264.5 98.75,-264.5"/>
<text xml:space="preserve" text-anchor="start" x="109.25" y="-268.85" font-family="Roboto" font-size="12.00">TEXT ()</text>
</a>
</g>
</g>
<!-- WorkflowRun&#45;&gt;Workflow -->
<g id="edge4" class="edge">
<title>WorkflowRun&#45;&gt;Workflow</title>
<g id="a_edge4"><a xlink:title="Relation between WorkflowRun and Workflow">
<path fill="none" stroke="#1e88e5" stroke-dasharray="5,2" d="M314.54,-514.1C261.97,-487.9 200.2,-452.27 151.88,-410.25 144.77,-404.07 137.93,-397.02 131.52,-389.67"/>
<polygon fill="#1e88e5" stroke="#1e88e5" points="134.28,-387.51 125.18,-382.08 128.91,-392 134.28,-387.51"/>
</a>
</g>
<text xml:space="preserve" text-anchor="middle" x="171.38" y="-400.75" font-family="Roboto" font-size="10.00">workflow</text>
</g>
<!-- RunMetric -->
<g id="node4" class="node">
<title>RunMetric</title>
<g id="a_node4"><a xlink:href="http://RunMetric_details.html" xlink:title="&lt;TABLE&gt;">
<polygon fill="#3f51b5" stroke="none" points="196,-339.5 196,-358.25 403.75,-358.25 403.75,-339.5 196,-339.5"/>
<polygon fill="none" stroke="black" points="196,-339.5 196,-358.25 403.75,-358.25 403.75,-339.5 196,-339.5"/>
<text xml:space="preserve" text-anchor="start" x="272.5" y="-343.85" font-family="Roboto" font-size="12.00" fill="white">RunMetric</text>
<polygon fill="#bbdefb" stroke="none" points="196,-320.75 196,-339.5 303.25,-339.5 303.25,-320.75 196,-320.75"/>
<polygon fill="none" stroke="black" points="196,-320.75 196,-339.5 303.25,-339.5 303.25,-320.75 196,-320.75"/>
<text xml:space="preserve" text-anchor="start" x="232.75" y="-325.1" font-family="Roboto" font-size="12.00">run_id</text>
<polygon fill="#bbdefb" stroke="none" points="303.25,-320.75 303.25,-339.5 403.75,-339.5 403.75,-320.75 303.25,-320.75"/>
<polygon fill="none" stroke="black" points="303.25,-320.75 303.25,-339.5 403.75,-339.5 403.75,-320.75 303.25,-320.75"/>
<text xml:space="preserve" text-anchor="start" x="325" y="-325.1" font-family="Roboto" font-size="12.00">UUID (PK)</text>
<polygon fill="#bbdefb" stroke="none" points="196,-302 196,-320.75 303.25,-320.75 303.25,-302 196,-302"/>
<polygon fill="none" stroke="black" points="196,-302 196,-320.75 303.25,-320.75 303.25,-302 196,-302"/>
<text xml:space="preserve" text-anchor="start" x="220.38" y="-306.35" font-family="Roboto" font-size="12.00">max_score</text>
<polygon fill="#bbdefb" stroke="none" points="303.25,-302 303.25,-320.75 403.75,-320.75 403.75,-302 303.25,-302"/>
<polygon fill="none" stroke="black" points="303.25,-302 303.25,-320.75 403.75,-320.75 403.75,-302 303.25,-302"/>
<text xml:space="preserve" text-anchor="start" x="306.25" y="-306.35" font-family="Roboto" font-size="12.00">NUMERIC(8, 2) ()</text>
<polygon fill="#bbdefb" stroke="none" points="196,-283.25 196,-302 303.25,-302 303.25,-283.25 196,-283.25"/>
<polygon fill="none" stroke="black" points="196,-283.25 196,-302 303.25,-302 303.25,-283.25 196,-283.25"/>
<text xml:space="preserve" text-anchor="start" x="199" y="-287.6" font-family="Roboto" font-size="12.00">final_design_count</text>
<polygon fill="#bbdefb" stroke="none" points="303.25,-283.25 303.25,-302 403.75,-302 403.75,-283.25 303.25,-283.25"/>
<polygon fill="none" stroke="black" points="303.25,-283.25 303.25,-302 403.75,-302 403.75,-283.25 303.25,-283.25"/>
<text xml:space="preserve" text-anchor="start" x="328.38" y="-287.6" font-family="Roboto" font-size="12.00">BIGINT ()</text>
</a>
</g>
</g>
<!-- WorkflowRun&#45;&gt;RunMetric -->
<g id="edge5" class="edge">
<title>WorkflowRun&#45;&gt;RunMetric</title>
<g id="a_edge5"><a xlink:title="Relation between WorkflowRun and RunMetric">
<path fill="none" stroke="#1e88e5" stroke-dasharray="5,2" d="M352.1,-428.59C348.87,-422.41 345.7,-416.27 342.62,-410.25 336.37,-398.02 329.83,-384.74 323.79,-372.27"/>
<polygon fill="#1e88e5" stroke="#1e88e5" points="327.01,-370.88 319.52,-363.39 320.7,-373.92 327.01,-370.88"/>
</a>
</g>
<text xml:space="preserve" text-anchor="middle" x="358.75" y="-400.75" font-family="Roboto" font-size="10.00">metrics</text>
</g>
<!-- RunInput -->
<g id="node5" class="node">
<title>RunInput</title>
<g id="a_node5"><a xlink:href="http://RunInput_details.html" xlink:title="&lt;TABLE&gt;">
<polygon fill="#3f51b5" stroke="none" points="441.5,-41.5 441.5,-60.25 580.25,-60.25 580.25,-41.5 441.5,-41.5"/>
<polygon fill="none" stroke="black" points="441.5,-41.5 441.5,-60.25 580.25,-60.25 580.25,-41.5 441.5,-41.5"/>
<text xml:space="preserve" text-anchor="start" x="486.5" y="-45.85" font-family="Roboto" font-size="12.00" fill="white">RunInput</text>
<polygon fill="#bbdefb" stroke="none" points="441.5,-22.75 441.5,-41.5 515.75,-41.5 515.75,-22.75 441.5,-22.75"/>
<polygon fill="none" stroke="black" points="441.5,-22.75 441.5,-41.5 515.75,-41.5 515.75,-22.75 441.5,-22.75"/>
<text xml:space="preserve" text-anchor="start" x="461.75" y="-27.1" font-family="Roboto" font-size="12.00">run_id</text>
<polygon fill="#bbdefb" stroke="none" points="515.75,-22.75 515.75,-41.5 580.25,-41.5 580.25,-22.75 515.75,-22.75"/>
<polygon fill="none" stroke="black" points="515.75,-22.75 515.75,-41.5 580.25,-41.5 580.25,-22.75 515.75,-22.75"/>
<text xml:space="preserve" text-anchor="start" x="519.5" y="-27.1" font-family="Roboto" font-size="12.00">UUID (PK)</text>
<polygon fill="#bbdefb" stroke="none" points="441.5,-4 441.5,-22.75 515.75,-22.75 515.75,-4 441.5,-4"/>
<polygon fill="none" stroke="black" points="441.5,-4 441.5,-22.75 515.75,-22.75 515.75,-4 441.5,-4"/>
<text xml:space="preserve" text-anchor="start" x="444.5" y="-8.35" font-family="Roboto" font-size="12.00">s3_object_id</text>
<polygon fill="#bbdefb" stroke="none" points="515.75,-4 515.75,-22.75 580.25,-22.75 580.25,-4 515.75,-4"/>
<polygon fill="none" stroke="black" points="515.75,-4 515.75,-22.75 580.25,-22.75 580.25,-4 515.75,-4"/>
<text xml:space="preserve" text-anchor="start" x="518.75" y="-8.35" font-family="Roboto" font-size="12.00">TEXT (PK)</text>
</a>
</g>
</g>
<!-- WorkflowRun&#45;&gt;RunInput -->
<g id="edge6" class="edge">
<title>WorkflowRun&#45;&gt;RunInput</title>
<g id="a_edge6"><a xlink:title="Relation between WorkflowRun and RunInput">
<path fill="none" stroke="#1e88e5" stroke-dasharray="5,2" d="M430.11,-428.46C435.19,-338.32 445.03,-217.11 463.88,-111.5 466.24,-98.23 465.78,-94.27 471.88,-82.25 473.35,-79.34 475.02,-76.43 476.81,-73.57"/>
<polygon fill="#1e88e5" stroke="#1e88e5" points="479.68,-75.57 482.43,-65.33 473.9,-71.62 479.68,-75.57"/>
</a>
</g>
<text xml:space="preserve" text-anchor="middle" x="459.37" y="-233" font-family="Roboto" font-size="10.00">inputs</text>
</g>
<!-- RunOutput -->
<g id="node6" class="node">
<title>RunOutput</title>
<g id="a_node6"><a xlink:href="http://RunOutput_details.html" xlink:title="&lt;TABLE&gt;">
<polygon fill="#3f51b5" stroke="none" points="475.5,-330.12 475.5,-348.88 614.25,-348.88 614.25,-330.12 475.5,-330.12"/>
<polygon fill="none" stroke="black" points="475.5,-330.12 475.5,-348.88 614.25,-348.88 614.25,-330.12 475.5,-330.12"/>
<text xml:space="preserve" text-anchor="start" x="516" y="-334.48" font-family="Roboto" font-size="12.00" fill="white">RunOutput</text>
<polygon fill="#bbdefb" stroke="none" points="475.5,-311.38 475.5,-330.12 549.75,-330.12 549.75,-311.38 475.5,-311.38"/>
<polygon fill="none" stroke="black" points="475.5,-311.38 475.5,-330.12 549.75,-330.12 549.75,-311.38 475.5,-311.38"/>
<text xml:space="preserve" text-anchor="start" x="495.75" y="-315.73" font-family="Roboto" font-size="12.00">run_id</text>
<polygon fill="#bbdefb" stroke="none" points="549.75,-311.38 549.75,-330.12 614.25,-330.12 614.25,-311.38 549.75,-311.38"/>
<polygon fill="none" stroke="black" points="549.75,-311.38 549.75,-330.12 614.25,-330.12 614.25,-311.38 549.75,-311.38"/>
<text xml:space="preserve" text-anchor="start" x="553.5" y="-315.73" font-family="Roboto" font-size="12.00">UUID (PK)</text>
<polygon fill="#bbdefb" stroke="none" points="475.5,-292.62 475.5,-311.38 549.75,-311.38 549.75,-292.62 475.5,-292.62"/>
<polygon fill="none" stroke="black" points="475.5,-292.62 475.5,-311.38 549.75,-311.38 549.75,-292.62 475.5,-292.62"/>
<text xml:space="preserve" text-anchor="start" x="478.5" y="-296.98" font-family="Roboto" font-size="12.00">s3_object_id</text>
<polygon fill="#bbdefb" stroke="none" points="549.75,-292.62 549.75,-311.38 614.25,-311.38 614.25,-292.62 549.75,-292.62"/>
<polygon fill="none" stroke="black" points="549.75,-292.62 549.75,-311.38 614.25,-311.38 614.25,-292.62 549.75,-292.62"/>
<text xml:space="preserve" text-anchor="start" x="552.75" y="-296.98" font-family="Roboto" font-size="12.00">TEXT (PK)</text>
</a>
</g>
</g>
<!-- WorkflowRun&#45;&gt;RunOutput -->
<g id="edge7" class="edge">
<title>WorkflowRun&#45;&gt;RunOutput</title>
<g id="a_edge7"><a xlink:title="Relation between WorkflowRun and RunOutput">
<path fill="none" stroke="#1e88e5" stroke-dasharray="5,2" d="M468.01,-428.33C472.54,-418.22 477.42,-408.33 482.62,-399 489.91,-385.94 499.42,-372.84 508.81,-361.25"/>
<polygon fill="#1e88e5" stroke="#1e88e5" points="511.25,-363.78 514.95,-353.86 505.87,-359.31 511.25,-363.78"/>
</a>
</g>
<text xml:space="preserve" text-anchor="middle" x="498.75" y="-400.75" font-family="Roboto" font-size="10.00">outputs</text>
</g>
<!-- Workflow&#45;&gt;WorkflowRun -->
<g id="edge2" class="edge">
<title>Workflow&#45;&gt;WorkflowRun</title>
<g id="a_edge2"><a xlink:title="Relation between Workflow and WorkflowRun">
<path fill="none" stroke="#1e88e5" stroke-dasharray="5,2" d="M168.55,-381C209.85,-410.24 260.41,-446.05 305.68,-478.1"/>
<polygon fill="#1e88e5" stroke="#1e88e5" points="303.54,-480.87 313.72,-483.79 307.58,-475.16 303.54,-480.87"/>
</a>
</g>
<text xml:space="preserve" text-anchor="middle" x="213.93" y="-400.75" font-family="Roboto" font-size="10.00">runs</text>
</g>
<!-- RunMetric&#45;&gt;WorkflowRun -->
<g id="edge14" class="edge">
<title>RunMetric&#45;&gt;WorkflowRun</title>
<g id="a_edge14"><a xlink:title="Relation between RunMetric and WorkflowRun">
<path fill="none" stroke="#1e88e5" stroke-dasharray="5,2" d="M345.91,-362.01C356.58,-373.14 367.08,-385.8 374.88,-399 378.58,-405.27 382.03,-411.83 385.25,-418.59"/>
<polygon fill="#1e88e5" stroke="#1e88e5" points="381.84,-419.56 389.16,-427.22 388.22,-416.66 381.84,-419.56"/>
</a>
</g>
<text xml:space="preserve" text-anchor="middle" x="386.13" y="-400.75" font-family="Roboto" font-size="10.00">run</text>
</g>
<!-- RunInput&#45;&gt;WorkflowRun -->
<g id="edge10" class="edge">
<title>RunInput&#45;&gt;WorkflowRun</title>
<g id="a_edge10"><a xlink:title="Relation between RunInput and WorkflowRun">
<path fill="none" stroke="#1e88e5" stroke-dasharray="5,2" d="M578.5,-64.24C597.1,-76.26 615.1,-91.92 625.88,-111.5 628.31,-115.93 639.69,-361.49 630.88,-381 612.11,-422.55 578.61,-458.38 544.01,-486.98"/>
<polygon fill="#1e88e5" stroke="#1e88e5" points="541.96,-484.14 536.37,-493.14 546.35,-489.58 541.96,-484.14"/>
</a>
</g>
<text xml:space="preserve" text-anchor="middle" x="639.34" y="-233" font-family="Roboto" font-size="10.00">run</text>
</g>
<!-- S3Object -->
<g id="node7" class="node">
<title>S3Object</title>
<g id="a_node7"><a xlink:href="http://S3Object_details.html" xlink:title="&lt;TABLE&gt;">
<polygon fill="#3f51b5" stroke="none" points="480.75,-190.5 480.75,-209.25 609,-209.25 609,-190.5 480.75,-190.5"/>
<polygon fill="none" stroke="black" points="480.75,-190.5 480.75,-209.25 609,-209.25 609,-190.5 480.75,-190.5"/>
<text xml:space="preserve" text-anchor="start" x="520.12" y="-194.85" font-family="Roboto" font-size="12.00" fill="white">S3Object</text>
<polygon fill="#bbdefb" stroke="none" points="480.75,-171.75 480.75,-190.5 544.5,-190.5 544.5,-171.75 480.75,-171.75"/>
<polygon fill="none" stroke="black" points="480.75,-171.75 480.75,-190.5 544.5,-190.5 544.5,-171.75 480.75,-171.75"/>
<text xml:space="preserve" text-anchor="start" x="483.75" y="-176.1" font-family="Roboto" font-size="12.00">object_key</text>
<polygon fill="#bbdefb" stroke="none" points="544.5,-171.75 544.5,-190.5 609,-190.5 609,-171.75 544.5,-171.75"/>
<polygon fill="none" stroke="black" points="544.5,-171.75 544.5,-190.5 609,-190.5 609,-171.75 544.5,-171.75"/>
<text xml:space="preserve" text-anchor="start" x="547.5" y="-176.1" font-family="Roboto" font-size="12.00">TEXT (PK)</text>
<polygon fill="#bbdefb" stroke="none" points="480.75,-153 480.75,-171.75 544.5,-171.75 544.5,-153 480.75,-153"/>
<polygon fill="none" stroke="black" points="480.75,-153 480.75,-171.75 544.5,-171.75 544.5,-153 480.75,-153"/>
<text xml:space="preserve" text-anchor="start" x="502.12" y="-157.35" font-family="Roboto" font-size="12.00">URI</text>
<polygon fill="#bbdefb" stroke="none" points="544.5,-153 544.5,-171.75 609,-171.75 609,-153 544.5,-153"/>
<polygon fill="none" stroke="black" points="544.5,-153 544.5,-171.75 609,-171.75 609,-153 544.5,-153"/>
<text xml:space="preserve" text-anchor="start" x="555.75" y="-157.35" font-family="Roboto" font-size="12.00">TEXT ()</text>
<polygon fill="#bbdefb" stroke="none" points="480.75,-134.25 480.75,-153 544.5,-153 544.5,-134.25 480.75,-134.25"/>
<polygon fill="none" stroke="black" points="480.75,-134.25 480.75,-153 544.5,-153 544.5,-134.25 480.75,-134.25"/>
<text xml:space="preserve" text-anchor="start" x="484.88" y="-138.6" font-family="Roboto" font-size="12.00">version_id</text>
<polygon fill="#bbdefb" stroke="none" points="544.5,-134.25 544.5,-153 609,-153 609,-134.25 544.5,-134.25"/>
<polygon fill="none" stroke="black" points="544.5,-134.25 544.5,-153 609,-153 609,-134.25 544.5,-134.25"/>
<text xml:space="preserve" text-anchor="start" x="555.75" y="-138.6" font-family="Roboto" font-size="12.00">TEXT ()</text>
<polygon fill="#bbdefb" stroke="none" points="480.75,-115.5 480.75,-134.25 544.5,-134.25 544.5,-115.5 480.75,-115.5"/>
<polygon fill="none" stroke="black" points="480.75,-115.5 480.75,-134.25 544.5,-134.25 544.5,-115.5 480.75,-115.5"/>
<text xml:space="preserve" text-anchor="start" x="484.12" y="-119.85" font-family="Roboto" font-size="12.00">size_bytes</text>
<polygon fill="#bbdefb" stroke="none" points="544.5,-115.5 544.5,-134.25 609,-134.25 609,-115.5 544.5,-115.5"/>
<polygon fill="none" stroke="black" points="544.5,-115.5 544.5,-134.25 609,-134.25 609,-115.5 544.5,-115.5"/>
<text xml:space="preserve" text-anchor="start" x="551.62" y="-119.85" font-family="Roboto" font-size="12.00">BIGINT ()</text>
</a>
</g>
</g>
<!-- RunInput&#45;&gt;S3Object -->
<g id="edge11" class="edge">
<title>RunInput&#45;&gt;S3Object</title>
<g id="a_edge11"><a xlink:title="Relation between RunInput and S3Object">
<path fill="none" stroke="#1e88e5" stroke-dasharray="5,2" d="M519.07,-64.05C522.01,-75.12 525.43,-88.01 528.79,-100.72"/>
<polygon fill="#1e88e5" stroke="#1e88e5" points="525.4,-101.56 531.34,-110.33 532.16,-99.76 525.4,-101.56"/>
</a>
</g>
<text xml:space="preserve" text-anchor="middle" x="547.86" y="-84" font-family="Roboto" font-size="10.00">s3_object</text>
</g>
<!-- RunOutput&#45;&gt;WorkflowRun -->
<g id="edge12" class="edge">
<title>RunOutput&#45;&gt;WorkflowRun</title>
<g id="a_edge12"><a xlink:title="Relation between RunOutput and WorkflowRun">
<path fill="none" stroke="#1e88e5" stroke-dasharray="5,2" d="M536.12,-352.67C530.8,-369.94 523.4,-391.67 514.88,-410.25 513.67,-412.87 512.43,-415.51 511.17,-418.16"/>
<polygon fill="#1e88e5" stroke="#1e88e5" points="508.07,-416.52 506.81,-427.04 514.36,-419.6 508.07,-416.52"/>
</a>
</g>
<text xml:space="preserve" text-anchor="middle" x="525.69" y="-400.75" font-family="Roboto" font-size="10.00">run</text>
</g>
<!-- RunOutput&#45;&gt;S3Object -->
<g id="edge13" class="edge">
<title>RunOutput&#45;&gt;S3Object</title>
<g id="a_edge13"><a xlink:title="Relation between RunOutput and S3Object">
<path fill="none" stroke="#1e88e5" stroke-dasharray="5,2" d="M515.16,-288.99C502.83,-272.49 492.68,-251.45 498.88,-231.25 499.67,-228.67 500.6,-226.09 501.64,-223.54"/>
<polygon fill="#1e88e5" stroke="#1e88e5" points="504.76,-225.13 505.83,-214.59 498.42,-222.16 504.76,-225.13"/>
</a>
</g>
<text xml:space="preserve" text-anchor="middle" x="519.88" y="-233" font-family="Roboto" font-size="10.00">s3_object</text>
</g>
<!-- S3Object&#45;&gt;RunInput -->
<g id="edge8" class="edge">
<title>S3Object&#45;&gt;RunInput</title>
<g id="a_edge8"><a xlink:title="Relation between S3Object and RunInput">
<path fill="none" stroke="#1e88e5" stroke-dasharray="5,2" d="M488.23,-111.87C484.09,-106.08 480.52,-99.93 477.88,-93.5 475.29,-87.2 475.49,-80.71 477.37,-74.43"/>
<polygon fill="#1e88e5" stroke="#1e88e5" points="480.47,-76.07 481.3,-65.51 474.07,-73.25 480.47,-76.07"/>
</a>
</g>
<text xml:space="preserve" text-anchor="middle" x="500.38" y="-84" font-family="Roboto" font-size="10.00">run_inputs</text>
</g>
<!-- S3Object&#45;&gt;RunOutput -->
<g id="edge9" class="edge">
<title>S3Object&#45;&gt;RunOutput</title>
<g id="a_edge9"><a xlink:title="Relation between S3Object and RunOutput">
<path fill="none" stroke="#1e88e5" stroke-dasharray="5,2" d="M544.88,-212.98C544.88,-233.68 544.88,-257.49 544.88,-277.36"/>
<polygon fill="#1e88e5" stroke="#1e88e5" points="541.38,-277.34 544.88,-287.34 548.38,-277.34 541.38,-277.34"/>
</a>
</g>
<text xml:space="preserve" text-anchor="middle" x="570.38" y="-233" font-family="Roboto" font-size="10.00">run_outputs</text>
</g>
</g>
</svg>
