<?xml version="1.0" encoding="UTF-8" standalone="no"?>
<!DOCTYPE svg PUBLIC "-//W3C//DTD SVG 1.1//EN"
 "http://www.w3.org/Graphics/SVG/1.1/DTD/svg11.dtd">
<!-- Generated by graphviz version 14.1.1 (20251213.1925)
 -->
<!-- Pages: 1 -->
<svg width="709pt" height="950pt"
 viewBox="0.00 0.00 709.00 950.00" xmlns="http://www.w3.org/2000/svg" xmlns:xlink="http://www.w3.org/1999/xlink">
<g id="graph0" class="graph" transform="scale(1 1) rotate(0) translate(4 945.5)">
<polygon fill="#eeeeee" stroke="none" points="-4,4 -4,-945.5 705,-945.5 705,4 -4,4"/>
<!-- AppUser -->
<g id="node1" class="node">
<title>AppUser</title>
<g id="a_node1"><a xlink:href="http://AppUser_details.html" xlink:title="&lt;TABLE&gt;">
<polygon fill="#3f51b5" stroke="none" points="343.38,-918.75 343.38,-937.5 535.38,-937.5 535.38,-918.75 343.38,-918.75"/>
<polygon fill="none" stroke="black" points="343.38,-918.75 343.38,-937.5 535.38,-937.5 535.38,-918.75 343.38,-918.75"/>
<text xml:space="preserve" text-anchor="start" x="415.75" y="-923.1" font-family="Roboto" font-size="12.00" fill="white">AppUser</text>
<polygon fill="#bbdefb" stroke="none" points="343.38,-900 343.38,-918.75 448.38,-918.75 448.38,-900 343.38,-900"/>
<polygon fill="none" stroke="black" points="343.38,-900 343.38,-918.75 448.38,-918.75 448.38,-900 343.38,-900"/>
<text xml:space="preserve" text-anchor="start" x="391" y="-904.35" font-family="Roboto" font-size="12.00">id</text>
<polygon fill="#bbdefb" stroke="none" points="448.38,-900 448.38,-918.75 535.38,-918.75 535.38,-900 448.38,-900"/>
<polygon fill="none" stroke="black" points="448.38,-900 448.38,-918.75 535.38,-918.75 535.38,-900 448.38,-900"/>
<text xml:space="preserve" text-anchor="start" x="463.38" y="-904.35" font-family="Roboto" font-size="12.00">UUID (PK)</text>
<polygon fill="#bbdefb" stroke="none" points="343.38,-881.25 343.38,-900 448.38,-900 448.38,-881.25 343.38,-881.25"/>
<polygon fill="none" stroke="black" points="343.38,-881.25 343.38,-900 448.38,-900 448.38,-881.25 343.38,-881.25"/>
<text xml:space="preserve" text-anchor="start" x="357.62" y="-885.6" font-family="Roboto" font-size="12.00">auth0_user_id</text>
<polygon fill="#bbdefb" stroke="none" points="448.38,-881.25 448.38,-900 535.38,-900 535.38,-881.25 448.38,-881.25"/>
<polygon fill="none" stroke="black" points="448.38,-881.25 448.38,-900 535.38,-900 535.38,-881.25 448.38,-881.25"/>
<text xml:space="preserve" text-anchor="start" x="451.38" y="-885.6" font-family="Roboto" font-size="12.00">TEXT (Unique)</text>
<polygon fill="#bbdefb" stroke="none" points="343.38,-862.5 343.38,-881.25 448.38,-881.25 448.38,-862.5 343.38,-862.5"/>
<polygon fill="none" stroke="black" points="343.38,-862.5 343.38,-881.25 448.38,-881.25 448.38,-862.5 343.38,-862.5"/>
<text xml:space="preserve" text-anchor="start" x="380.88" y="-866.85" font-family="Roboto" font-size="12.00">name</text>
<polygon fill="#bbdefb" stroke="none" points="448.38,-862.5 448.38,-881.25 535.38,-881.25 535.38,-862.5 448.38,-862.5"/>
<polygon fill="none" stroke="black" points="448.38,-862.5 448.38,-881.25 535.38,-881.25 535.38,-862.5 448.38,-862.5"/>
<text xml:space="preserve" text-anchor="start" x="470.88" y="-866.85" font-family="Roboto" font-size="12.00">TEXT ()</text>
<polygon fill="#bbdefb" stroke="none" points="343.38,-843.75 343.38,-862.5 448.38,-862.5 448.38,-843.75 343.38,-843.75"/>
<polygon fill="none" stroke="black" points="343.38,-843.75 343.38,-862.5 448.38,-862.5 448.38,-843.75 343.38,-843.75"/>
<text xml:space="preserve" text-anchor="start" x="381.25" y="-848.1" font-family="Roboto" font-size="12.00">email</text>
<polygon fill="#bbdefb" stroke="none" points="448.38,-843.75 448.38,-862.5 535.38,-862.5 535.38,-843.75 448.38,-843.75"/>
<polygon fill="none" stroke="black" points="448.38,-843.75 448.38,-862.5 535.38,-862.5 535.38,-843.75 448.38,-843.75"/>
<text xml:space="preserve" text-anchor="start" x="451.38" y="-848.1" font-family="Roboto" font-size="12.00">TEXT (Unique)</text>
<polygon fill="#bbdefb" stroke="none" points="343.38,-825 343.38,-843.75 448.38,-843.75 448.38,-825 343.38,-825"/>
<polygon fill="none" stroke="black" points="343.38,-825 343.38,-843.75 448.38,-843.75 448.38,-825 343.38,-825"/>
<text xml:space="preserve" text-anchor="start" x="381.25" y="-829.35" font-family="Roboto" font-size="12.00">credit</text>
<polygon fill="#bbdefb" stroke="none" points="448.38,-825 448.38,-843.75 535.38,-843.75 535.38,-825 448.38,-825"/>
<polygon fill="none" stroke="black" points="448.38,-825 448.38,-843.75 535.38,-843.75 535.38,-825 448.38,-825"/>
<text xml:space="preserve" text-anchor="start" x="466.75" y="-829.35" font-family="Roboto" font-size="12.00">BIGINT ()</text>
<polygon fill="#bbdefb" stroke="none" points="343.38,-806.25 343.38,-825 448.38,-825 448.38,-806.25 343.38,-806.25"/>
<polygon fill="none" stroke="black" points="343.38,-806.25 343.38,-825 448.38,-825 448.38,-806.25 343.38,-806.25"/>
<text xml:space="preserve" text-anchor="start" x="347.88" y="-810.6" font-family="Roboto" font-size="12.00">credit_updated_at</text>
<polygon fill="#bbdefb" stroke="none" points="448.38,-806.25 448.38,-825 535.38,-825 535.38,-806.25 448.38,-806.25"/>
<polygon fill="none" stroke="black" points="448.38,-806.25 448.38,-825 535.38,-825 535.38,-806.25 448.38,-806.25"/>
<text xml:space="preserve" text-anchor="start" x="456.62" y="-810.6" font-family="Roboto" font-size="12.00">DATETIME ()</text>
<polygon fill="#bbdefb" stroke="none" points="343.38,-787.5 343.38,-806.25 448.38,-806.25 448.38,-787.5 343.38,-787.5"/>
<polygon fill="none" stroke="black" points="343.38,-787.5 343.38,-806.25 448.38,-806.25 448.38,-787.5 343.38,-787.5"/>
<text xml:space="preserve" text-anchor="start" x="346.38" y="-791.85" font-family="Roboto" font-size="12.00">credit_updated_by</text>
<polygon fill="#bbdefb" stroke="none" points="448.38,-787.5 448.38,-806.25 535.38,-806.25 535.38,-787.5 448.38,-787.5"/>
<polygon fill="none" stroke="black" points="448.38,-787.5 448.38,-806.25 535.38,-806.25 535.38,-787.5 448.38,-787.5"/>
<text xml:space="preserve" text-anchor="start" x="470.88" y="-791.85" font-family="Roboto" font-size="12.00">TEXT ()</text>
</a>
</g>
</g>
<!-- WorkflowRun -->
<g id="node2" class="node">
<title>WorkflowRun</title>
<g id="a_node2"><a xlink:href="http://WorkflowRun_details.html" xlink:title="&lt;TABLE&gt;">
<polygon fill="#3f51b5" stroke="none" points="337,-713.5 337,-732.25 541.75,-732.25 541.75,-713.5 337,-713.5"/>
<polygon fill="none" stroke="black" points="337,-713.5 337,-732.25 541.75,-732.25 541.75,-713.5 337,-713.5"/>
<text xml:space="preserve" text-anchor="start" x="403.38" y="-717.85" font-family="Roboto" font-size="12.00" fill="white">WorkflowRun</text>
<polygon fill="#bbdefb" stroke="none" points="337,-694.75 337,-713.5 465.25,-713.5 465.25,-694.75 337,-694.75"/>
<polygon fill="none" stroke="black" points="337,-694.75 337,-713.5 465.25,-713.5 465.25,-694.75 337,-694.75"/>
<text xml:space="preserve" text-anchor="start" x="396.25" y="-699.1" font-family="Roboto" font-size="12.00">id</text>
<polygon fill="#bbdefb" stroke="none" points="465.25,-694.75 465.25,-713.5 541.75,-713.5 541.75,-694.75 465.25,-694.75"/>
<polygon fill="none" stroke="black" points="465.25,-694.75 465.25,-713.5 541.75,-713.5 541.75,-694.75 465.25,-694.75"/>
<text xml:space="preserve" text-anchor="start" x="475" y="-699.1" font-family="Roboto" font-size="12.00">UUID (PK)</text>
<polygon fill="#bbdefb" stroke="none" points="337,-676 337,-694.75 465.25,-694.75 465.25,-676 337,-676"/>
<polygon fill="none" stroke="black" points="337,-676 337,-694.75 465.25,-694.75 465.25,-676 337,-676"/>
<text xml:space="preserve" text-anchor="start" x="369.25" y="-680.35" font-family="Roboto" font-size="12.00">workflow_id</text>
<polygon fill="#bbdefb" stroke="none" points="465.25,-676 465.25,-694.75 541.75,-694.75 541.75,-676 465.25,-676"/>
<polygon fill="none" stroke="black" points="465.25,-676 465.25,-694.75 541.75,-694.75 541.75,-676 465.25,-676"/>
<text xml:space="preserve" text-anchor="start" x="483.25" y="-680.35" font-family="Roboto" font-size="12.00">UUID ()</text>
<polygon fill="#bbdefb" stroke="none" points="337,-657.25 337,-676 465.25,-676 465.25,-657.25 337,-657.25"/>
<polygon fill="none" stroke="black" points="337,-657.25 337,-676 465.25,-676 465.25,-657.25 337,-657.25"/>
<text xml:space="preserve" text-anchor="start" x="361.38" y="-661.6" font-family="Roboto" font-size="12.00">owner_user_id</text>
<polygon fill="#bbdefb" stroke="none" points="465.25,-657.25 465.25,-676 541.75,-676 541.75,-657.25 465.25,-657.25"/>
<polygon fill="none" stroke="black" points="465.25,-657.25 465.25,-676 541.75,-676 541.75,-657.25 465.25,-657.25"/>
<text xml:space="preserve" text-anchor="start" x="483.25" y="-661.6" font-family="Roboto" font-size="12.00">UUID ()</text>
<polygon fill="#bbdefb" stroke="none" points="337,-638.5 337,-657.25 465.25,-657.25 465.25,-638.5 337,-638.5"/>
<polygon fill="none" stroke="black" points="337,-638.5 337,-657.25 465.25,-657.25 465.25,-638.5 337,-638.5"/>
<text xml:space="preserve" text-anchor="start" x="351.62" y="-642.85" font-family="Roboto" font-size="12.00">seqera_dataset_id</text>
<polygon fill="#bbdefb" stroke="none" points="465.25,-638.5 465.25,-657.25 541.75,-657.25 541.75,-638.5 465.25,-638.5"/>
<polygon fill="none" stroke="black" points="465.25,-638.5 465.25,-657.25 541.75,-657.25 541.75,-638.5 465.25,-638.5"/>
<text xml:space="preserve" text-anchor="start" x="482.5" y="-642.85" font-family="Roboto" font-size="12.00">TEXT ()</text>
<polygon fill="#bbdefb" stroke="none" points="337,-619.75 337,-638.5 465.25,-638.5 465.25,-619.75 337,-619.75"/>
<polygon fill="none" stroke="black" points="337,-619.75 337,-638.5 465.25,-638.5 465.25,-619.75 337,-619.75"/>
<text xml:space="preserve" text-anchor="start" x="362.5" y="-624.1" font-family="Roboto" font-size="12.00">seqera_run_id</text>
<polygon fill="#bbdefb" stroke="none" points="465.25,-619.75 465.25,-638.5 541.75,-638.5 541.75,-619.75 465.25,-619.75"/>
<polygon fill="none" stroke="black" points="465.25,-619.75 465.25,-638.5 541.75,-638.5 541.75,-619.75 465.25,-619.75"/>
<text xml:space="preserve" text-anchor="start" x="482.5" y="-624.1" font-family="Roboto" font-size="12.00">TEXT ()</text>
<polygon fill="#bbdefb" stroke="none" points="337,-601 337,-619.75 465.25,-619.75 465.25,-601 337,-601"/>
<polygon fill="none" stroke="black" points="337,-601 337,-619.75 465.25,-619.75 465.25,-601 337,-601"/>
<text xml:space="preserve" text-anchor="start" x="365.88" y="-605.35" font-family="Roboto" font-size="12.00">binder_name</text>
<polygon fill="#bbdefb" stroke="none" points="465.25,-601 465.25,-619.75 541.75,-619.75 541.75,-601 465.25,-601"/>
<polygon fill="none" stroke="black" points="465.25,-601 465.25,-619.75 541.75,-619.75 541.75,-601 465.25,-601"/>
<text xml:space="preserve" text-anchor="start" x="482.5" y="-605.35" font-family="Roboto" font-size="12.00">TEXT ()</text>
<polygon fill="#bbdefb" stroke="none" points="337,-582.25 337,-601 465.25,-601 465.25,-582.25 337,-582.25"/>
<polygon fill="none" stroke="black" points="337,-582.25 337,-601 465.25,-601 465.25,-582.25 337,-582.25"/>
<text xml:space="preserve" text-anchor="start" x="373.38" y="-586.6" font-family="Roboto" font-size="12.00">sample_id</text>
<polygon fill="#bbdefb" stroke="none" points="465.25,-582.25 465.25,-601 541.75,-601 541.75,-582.25 465.25,-582.25"/>
<polygon fill="none" stroke="black" points="465.25,-582.25 465.25,-601 541.75,-601 541.75,-582.25 465.25,-582.25"/>
<text xml:space="preserve" text-anchor="start" x="482.5" y="-586.6" font-family="Roboto" font-size="12.00">TEXT ()</text>
<polygon fill="#bbdefb" stroke="none" points="337,-563.5 337,-582.25 465.25,-582.25 465.25,-563.5 337,-563.5"/>
<polygon fill="none" stroke="black" points="337,-563.5 337,-582.25 465.25,-582.25 465.25,-563.5 337,-563.5"/>
<text xml:space="preserve" text-anchor="start" x="374.12" y="-567.85" font-family="Roboto" font-size="12.00">run_name</text>
<polygon fill="#bbdefb" stroke="none" points="465.25,-563.5 465.25,-582.25 541.75,-582.25 541.75,-563.5 465.25,-563.5"/>
<polygon fill="none" stroke="black" points="465.25,-563.5 465.25,-582.25 541.75,-582.25 541.75,-563.5 465.25,-563.5"/>
<text xml:space="preserve" text-anchor="start" x="482.5" y="-567.85" font-family="Roboto" font-size="12.00">TEXT ()</text>
<polygon fill="#bbdefb" stroke="none" points="337,-544.75 337,-563.5 465.25,-563.5 465.25,-544.75 337,-544.75"/>
<polygon fill="none" stroke="black" points="337,-544.75 337,-563.5 465.25,-563.5 465.25,-544.75 337,-544.75"/>
<text xml:space="preserve" text-anchor="start" x="345.25" y="-549.1" font-family="Roboto" font-size="12.00">submitted_form_data</text>
<polygon fill="#bbdefb" stroke="none" points="465.25,-544.75 465.25,-563.5 541.75,-563.5 541.75,-544.75 465.25,-544.75"/>
<polygon fill="none" stroke="black" points="465.25,-544.75 465.25,-563.5 541.75,-563.5 541.75,-544.75 465.25,-544.75"/>
<text xml:space="preserve" text-anchor="start" x="482.12" y="-549.1" font-family="Roboto" font-size="12.00">JSON ()</text>
<polygon fill="#bbdefb" stroke="none" points="337,-526 337,-544.75 465.25,-544.75 465.25,-526 337,-526"/>
<polygon fill="none" stroke="black" points="337,-526 337,-544.75 465.25,-544.75 465.25,-526 337,-526"/>
<text xml:space="preserve" text-anchor="start" x="378.25" y="-530.35" font-family="Roboto" font-size="12.00">work_dir</text>
<polygon fill="#bbdefb" stroke="none" points="465.25,-526 465.25,-544.75 541.75,-544.75 541.75,-526 465.25,-526"/>
<polygon fill="none" stroke="black" points="465.25,-526 465.25,-544.75 541.75,-544.75 541.75,-526 465.25,-526"/>
<text xml:space="preserve" text-anchor="start" x="482.5" y="-530.35" font-family="Roboto" font-size="12.00">TEXT ()</text>
<polygon fill="#bbdefb" stroke="none" points="337,-507.25 337,-526 465.25,-526 465.25,-507.25 337,-507.25"/>
<polygon fill="none" stroke="black" points="337,-507.25 337,-526 465.25,-526 465.25,-507.25 337,-507.25"/>
<text xml:space="preserve" text-anchor="start" x="374.88" y="-511.6" font-family="Roboto" font-size="12.00">launch_ip</text>
<polygon fill="#bbdefb" stroke="none" points="465.25,-507.25 465.25,-526 541.75,-526 541.75,-507.25 465.25,-507.25"/>
<polygon fill="none" stroke="black" points="465.25,-507.25 465.25,-526 541.75,-526 541.75,-507.25 465.25,-507.25"/>
<text xml:space="preserve" text-anchor="start" x="482.5" y="-511.6" font-family="Roboto" font-size="12.00">TEXT ()</text>
<polygon fill="#bbdefb" stroke="none" points="337,-488.5 337,-507.25 465.25,-507.25 465.25,-488.5 337,-488.5"/>
<polygon fill="none" stroke="black" points="337,-488.5 337,-507.25 465.25,-507.25 465.25,-488.5 337,-488.5"/>
<text xml:space="preserve" text-anchor="start" x="340" y="-492.85" font-family="Roboto" font-size="12.00">submission_timestamp</text>
<polygon fill="#bbdefb" stroke="none" points="465.25,-488.5 465.25,-507.25 541.75,-507.25 541.75,-488.5 465.25,-488.5"/>
<polygon fill="none" stroke="black" points="465.25,-488.5 465.25,-507.25 541.75,-507.25 541.75,-488.5 465.25,-488.5"/>
<text xml:space="preserve" text-anchor="start" x="468.25" y="-492.85" font-family="Roboto" font-size="12.00">DATETIME ()</text>
<polygon fill="#bbdefb" stroke="none" points="337,-469.75 337,-488.5 465.25,-488.5 465.25,-469.75 337,-469.75"/>
<polygon fill="none" stroke="black" points="337,-469.75 337,-488.5 465.25,-488.5 465.25,-469.75 337,-469.75"/>
<text xml:space="preserve" text-anchor="start" x="391.38" y="-474.1" font-family="Roboto" font-size="12.00">tool</text>
<polygon fill="#bbdefb" stroke="none" points="465.25,-469.75 465.25,-488.5 541.75,-488.5 541.75,-469.75 465.25,-469.75"/>
<polygon fill="none" stroke="black" points="465.25,-469.75 465.25,-488.5 541.75,-488.5 541.75,-469.75 465.25,-469.75"/>
<text xml:space="preserve" text-anchor="start" x="482.5" y="-474.1" font-family="Roboto" font-size="12.00">TEXT ()</text>
</a>
</g>
</g>
<!-- AppUser&#45;&gt;WorkflowRun -->
<g id="edge1" class="edge">
<title>AppUser&#45;&gt;WorkflowRun</title>
<g id="a_edge1"><a xlink:title="Relation between AppUser and WorkflowRun">
<path fill="none" stroke="#1e88e5" stroke-dasharray="5,2" d="M402.17,-783.52C400.26,-777.51 398.62,-771.47 397.38,-765.5 396.12,-759.49 395.35,-753.38 394.99,-747.21"/>
<polygon fill="#1e88e5" stroke="#1e88e5" points="398.5,-747.5 394.82,-737.57 391.5,-747.63 398.5,-747.5"/>
</a>
</g>
<text xml:space="preserve" text-anchor="middle" x="428.88" y="-756" font-family="Roboto" font-size="10.00">workflow_runs</text>
</g>
<!-- WorkflowRun&#45;&gt;AppUser -->
<g id="edge3" class="edge">
<title>WorkflowRun&#45;&gt;AppUser</title>
<g id="a_edge3"><a xlink:title="Relation between WorkflowRun and AppUser">
<path fill="none" stroke="#1e88e5" stroke-dasharray="5,2" d="M461.73,-736.23C461.81,-746.13 461.41,-755.97 460.38,-765.5 460.12,-767.82 459.84,-770.16 459.53,-772.53"/>
<polygon fill="#1e88e5" stroke="#1e88e5" points="456.1,-771.76 458.09,-782.17 463.03,-772.79 456.1,-771.76"/>
</a>
</g>
<text xml:space="preserve" text-anchor="middle" x="474.27" y="-756" font-family="Roboto" font-size="10.00">owner</text>
</g>
<!-- Workflow -->
<g id="node3" class="node">
<title>Workflow</title>
<g id="a_node3"><a xlink:href="http://Workflow_details.html" xlink:title="&lt;TABLE&gt;">
<polygon fill="#3f51b5" stroke="none" points="8,-395.75 8,-414.5 176.75,-414.5 176.75,-395.75 8,-395.75"/>
<polygon fill="none" stroke="black" points="8,-395.75 8,-414.5 176.75,-414.5 176.75,-395.75 8,-395.75"/>
<text xml:space="preserve" text-anchor="start" x="67.62" y="-400.1" font-family="Roboto" font-size="12.00" fill="white">Workflow</text>
<polygon fill="#bbdefb" stroke="none" points="8,-377 8,-395.75 113.75,-395.75 113.75,-377 8,-377"/>
<polygon fill="none" stroke="black" points="8,-377 8,-395.75 113.75,-395.75 113.75,-377 8,-377"/>
<text xml:space="preserve" text-anchor="start" x="56" y="-381.35" font-family="Roboto" font-size="12.00">id</text>
<polygon fill="#bbdefb" stroke="none" points="113.75,-377 113.75,-395.75 176.75,-395.75 176.75,-377 113.75,-377"/>
<polygon fill="none" stroke="black" points="113.75,-377 113.75,-395.75 176.75,-395.75 176.75,-377 113.75,-377"/>
<text xml:space="preserve" text-anchor="start" x="116.75" y="-381.35" font-family="Roboto" font-size="12.00">UUID (PK)</text>
<polygon fill="#bbdefb" stroke="none" points="8,-358.25 8,-377 113.75,-377 113.75,-358.25 8,-358.25"/>
<polygon fill="none" stroke="black" points="8,-358.25 8,-377 113.75,-377 113.75,-358.25 8,-358.25"/>
<text xml:space="preserve" text-anchor="start" x="45.88" y="-362.6" font-family="Roboto" font-size="12.00">name</text>
<polygon fill="#bbdefb" stroke="none" points="113.75,-358.25 113.75,-377 176.75,-377 176.75,-358.25 113.75,-358.25"/>
<polygon fill="none" stroke="black" points="113.75,-358.25 113.75,-377 176.75,-377 176.75,-358.25 113.75,-358.25"/>
<text xml:space="preserve" text-anchor="start" x="124.25" y="-362.6" font-family="Roboto" font-size="12.00">TEXT ()</text>
<polygon fill="#bbdefb" stroke="none" points="8,-339.5 8,-358.25 113.75,-358.25 113.75,-339.5 8,-339.5"/>
<polygon fill="none" stroke="black" points="8,-339.5 8,-358.25 113.75,-358.25 113.75,-339.5 8,-339.5"/>
<text xml:space="preserve" text-anchor="start" x="31.62" y="-343.85" font-family="Roboto" font-size="12.00">description</text>
<polygon fill="#bbdefb" stroke="none" points="113.75,-339.5 113.75,-358.25 176.75,-358.25 176.75,-339.5 113.75,-339.5"/>
<polygon fill="none" stroke="black" points="113.75,-339.5 113.75,-358.25 176.75,-358.25 176.75,-339.5 113.75,-339.5"/>
<text xml:space="preserve" text-anchor="start" x="124.25" y="-343.85" font-family="Roboto" font-size="12.00">TEXT ()</text>
<polygon fill="#bbdefb" stroke="none" points="8,-320.75 8,-339.5 113.75,-339.5 113.75,-320.75 8,-320.75"/>
<polygon fill="none" stroke="black" points="8,-320.75 8,-339.5 113.75,-339.5 113.75,-320.75 8,-320.75"/>
<text xml:space="preserve" text-anchor="start" x="38.75" y="-325.1" font-family="Roboto" font-size="12.00">repo_url</text>
<polygon fill="#bbdefb" stroke="none" points="113.75,-320.75 113.75,-339.5 176.75,-339.5 176.75,-320.75 113.75,-320.75"/>
<polygon fill="none" stroke="black" points="113.75,-320.75 113.75,-339.5 176.75,-339.5 176.75,-320.75 113.75,-320.75"/>
<text xml:space="preserve" text-anchor="start" x="124.25" y="-325.1" font-family="Roboto" font-size="12.00">TEXT ()</text>
<polygon fill="#bbdefb" stroke="none" points="8,-302 8,-320.75 113.75,-320.75 113.75,-302 8,-302"/>
<polygon fill="none" stroke="black" points="8,-302 8,-320.75 113.75,-320.75 113.75,-302 8,-302"/>
<text xml:space="preserve" text-anchor="start" x="18.5" y="-306.35" font-family="Roboto" font-size="12.00">default_revision</text>
<polygon fill="#bbdefb" stroke="none" points="113.75,-302 113.75,-320.75 176.75,-320.75 176.75,-302 113.75,-302"/>
<polygon fill="none" stroke="black" points="113.75,-302 113.75,-320.75 176.75,-320.75 176.75,-302 113.75,-302"/>
<text xml:space="preserve" text-anchor="start" x="124.25" y="-306.35" font-family="Roboto" font-size="12.00">TEXT ()</text>
<polygon fill="#bbdefb" stroke="none" points="8,-283.25 8,-302 113.75,-302 113.75,-283.25 8,-283.25"/>
<polygon fill="none" stroke="black" points="8,-283.25 8,-302 113.75,-302 113.75,-283.25 8,-283.25"/>
<text xml:space="preserve" text-anchor="start" x="29.75" y="-287.6" font-family="Roboto" font-size="12.00">config_path</text>
<polygon fill="#bbdefb" stroke="none" points="113.75,-283.25 113.75,-302 176.75,-302 176.75,-283.25 113.75,-283.25"/>
<polygon fill="none" stroke="black" points="113.75,-283.25 113.75,-302 176.75,-302 176.75,-283.25 113.75,-283.25"/>
<text xml:space="preserve" text-anchor="start" x="124.25" y="-287.6" font-family="Roboto" font-size="12.00">TEXT ()</text>
<polygon fill="#bbdefb" stroke="none" points="8,-264.5 8,-283.25 113.75,-283.25 113.75,-264.5 8,-264.5"/>
<polygon fill="none" stroke="black" points="8,-264.5 8,-283.25 113.75,-283.25 113.75,-264.5 8,-264.5"/>
<text xml:space="preserve" text-anchor="start" x="11" y="-268.85" font-family="Roboto" font-size="12.00">prerun_script_path</text>
<polygon fill="#bbdefb" stroke="none" points="113.75,-264.5 113.75,-283.25 176.75,-283.25 176.75,-264.5 113.75,-264.5"/>
<polygon fill="none" stroke="black" points="113.75,-264.5 113.75,-283.25 176.75,-283.25 176.75,-264.5 113.75,-264.5"/>
<text xml:space="preserve" text-anchor="start" x="124.25" y="-268.85" font-family="Roboto" font-size="12.00">TEXT ()</text>
</a>
</g>
</g>
<!-- WorkflowRun&#45;&gt;Workflow -->
<g id="edge4" class="edge">
<title>WorkflowRun&#45;&gt;Workflow</title>
<g id="a_edge4"><a xlink:title="Relation between WorkflowRun and Workflow">
<path fill="none" stroke="#1e88e5" stroke-dasharray="5,2" d="M329.26,-548.37C279.64,-522.17 222.07,-487.47 176.38,-447.75 168.97,-441.31 161.76,-434.14 154.87,-426.65"/>
<polygon fill="#1e88e5" stroke="#1e88e5" points="157.8,-424.68 148.54,-419.54 152.58,-429.34 157.8,-424.68"/>
</a>
</g>
<text xml:space="preserve" text-anchor="middle" x="195.88" y="-438.25" font-family="Roboto" font-size="10.00">workflow</text>
</g>
<!-- RunMetric -->
<g id="node4" class="node">
<title>RunMetric</title>
<g id="a_node4"><a xlink:href="http://RunMetric_details.html" xlink:title="&lt;TABLE&gt;">
<polygon fill="#3f51b5" stroke="none" points="210.5,-358.25 210.5,-377 418.25,-377 418.25,-358.25 210.5,-358.25"/>
<polygon fill="none" stroke="black" points="210.5,-358.25 210.5,-377 418.25,-377 418.25,-358.25 210.5,-358.25"/>
<text xml:space="preserve" text-anchor="start" x="287" y="-362.6" font-family="Roboto" font-size="12.00" fill="white">RunMetric</text>
<polygon fill="#bbdefb" stroke="none" points="210.5,-339.5 210.5,-358.25 317.75,-358.25 317.75,-339.5 210.5,-339.5"/>
<polygon fill="none" stroke="black" points="210.5,-339.5 210.5,-358.25 317.75,-358.25 317.75,-339.5 210.5,-339.5"/>
<text xml:space="preserve" text-anchor="start" x="247.25" y="-343.85" font-family="Roboto" font-size="12.00">run_id</text>
<polygon fill="#bbdefb" stroke="none" points="317.75,-339.5 317.75,-358.25 418.25,-358.25 418.25,-339.5 317.75,-339.5"/>
<polygon fill="none" stroke="black" points="317.75,-339.5 317.75,-358.25 418.25,-358.25 418.25,-339.5 317.75,-339.5"/>
<text xml:space="preserve" text-anchor="start" x="339.5" y="-343.85" font-family="Roboto" font-size="12.00">UUID (PK)</text>
<polygon fill="#bbdefb" stroke="none" points="210.5,-320.75 210.5,-339.5 317.75,-339.5 317.75,-320.75 210.5,-320.75"/>
<polygon fill="none" stroke="black" points="210.5,-320.75 210.5,-339.5 317.75,-339.5 317.75,-320.75 210.5,-320.75"/>
<text xml:space="preserve" text-anchor="start" x="234.88" y="-325.1" font-family="Roboto" font-size="12.00">max_score</text>
<polygon fill="#bbdefb" stroke="none" points="317.75,-320.75 317.75,-339.5 418.25,-339.5 418.25,-320.75 317.75,-320.75"/>
<polygon fill="none" stroke="black" points="317.75,-320.75 317.75,-339.5 418.25,-339.5 418.25,-320.75 317.75,-320.75"/>
<text xml:space="preserve" text-anchor="start" x="320.75" y="-325.1" font-family="Roboto" font-size="12.00">NUMERIC(8, 2) ()</text>
<polygon fill="#bbdefb" stroke="none" points="210.5,-302 210.5,-320.75 317.75,-320.75 317.75,-302 210.5,-302"/>
<polygon fill="none" stroke="black" points="210.5,-302 210.5,-320.75 317.75,-320.75 317.75,-302 210.5,-302"/>
<text xml:space="preserve" text-anchor="start" x="213.5" y="-306.35" font-family="Roboto" font-size="12.00">final_design_count</text>
<polygon fill="#bbdefb" stroke="none" points="317.75,-302 317.75,-320.75 418.25,-320.75 418.25,-302 317.75,-302"/>
<polygon fill="none" stroke="black" points="317.75,-302 317.75,-320.75 418.25,-320.75 418.25,-302 317.75,-302"/>
<text xml:space="preserve" text-anchor="start" x="342.88" y="-306.35" font-family="Roboto" font-size="12.00">BIGINT ()</text>
</a>
</g>
</g>
<!-- WorkflowRun&#45;&gt;RunMetric -->
<g id="edge5" class="edge">
<title>WorkflowRun&#45;&gt;RunMetric</title>
<g id="a_edge5"><a xlink:title="Relation between WorkflowRun and RunMetric">
<path fill="none" stroke="#1e88e5" stroke-dasharray="5,2" d="M365.86,-465.94C362.85,-459.82 359.92,-453.74 357.12,-447.75 348.68,-429.7 340.35,-409.49 333.32,-391.52"/>
<polygon fill="#1e88e5" stroke="#1e88e5" points="336.64,-390.42 329.77,-382.36 330.12,-392.95 336.64,-390.42"/>
</a>
</g>
<text xml:space="preserve" text-anchor="middle" x="373.25" y="-438.25" font-family="Roboto" font-size="10.00">metrics</text>
</g>
<!-- RunInput -->
<g id="node5" class="node">
<title>RunInput</title>
<g id="a_node5"><a xlink:href="http://RunInput_details.html" xlink:title="&lt;TABLE&gt;">
<polygon fill="#3f51b5" stroke="none" points="456,-41.5 456,-60.25 594.75,-60.25 594.75,-41.5 456,-41.5"/>
<polygon fill="none" stroke="black" points="456,-41.5 456,-60.25 594.75,-60.25 594.75,-41.5 456,-41.5"/>
<text xml:space="preserve" text-anchor="start" x="501" y="-45.85" font-family="Roboto" font-size="12.00" fill="white">RunInput</text>
<polygon fill="#bbdefb" stroke="none" points="456,-22.75 456,-41.5 530.25,-41.5 530.25,-22.75 456,-22.75"/>
<polygon fill="none" stroke="black" points="456,-22.75 456,-41.5 530.25,-41.5 530.25,-22.75 456,-22.75"/>
<text xml:space="preserve" text-anchor="start" x="476.25" y="-27.1" font-family="Roboto" font-size="12.00">run_id</text>
<polygon fill="#bbdefb" stroke="none" points="530.25,-22.75 530.25,-41.5 594.75,-41.5 594.75,-22.75 530.25,-22.75"/>
<polygon fill="none" stroke="black" points="530.25,-22.75 530.25,-41.5 594.75,-41.5 594.75,-22.75 530.25,-22.75"/>
<text xml:space="preserve" text-anchor="start" x="534" y="-27.1" font-family="Roboto" font-size="12.00">UUID (PK)</text>
<polygon fill="#bbdefb" stroke="none" points="456,-4 456,-22.75 530.25,-22.75 530.25,-4 456,-4"/>
<polygon fill="none" stroke="black" points="456,-4 456,-22.75 530.25,-22.75 530.25,-4 456,-4"/>
<text xml:space="preserve" text-anchor="start" x="459" y="-8.35" font-family="Roboto" font-size="12.00">s3_object_id</text>
<polygon fill="#bbdefb" stroke="none" points="530.25,-4 530.25,-22.75 594.75,-22.75 594.75,-4 530.25,-4"/>
<polygon fill="none" stroke="black" points="530.25,-4 530.25,-22.75 594.75,-22.75 594.75,-4 530.25,-4"/>
<text xml:space="preserve" text-anchor="start" x="533.25" y="-8.35" font-family="Roboto" font-size="12.00">TEXT (PK)</text>
</a>
</g>
</g>
<!-- WorkflowRun&#45;&gt;RunInput -->
<g id="edge6" class="edge">
<title>WorkflowRun&#45;&gt;RunInput</title>
<g id="a_edge6"><a xlink:title="Relation between WorkflowRun and RunInput">
<path fill="none" stroke="#1e88e5" stroke-dasharray="5,2" d="M443.32,-465.94C447.85,-367.3 457.58,-230.29 478.38,-111.5 480.7,-98.22 480.28,-94.27 486.38,-82.25 487.85,-79.34 489.52,-76.43 491.31,-73.57"/>
<polygon fill="#1e88e5" stroke="#1e88e5" points="494.18,-75.57 496.93,-65.33 488.4,-71.62 494.18,-75.57"/>
</a>
</g>
<text xml:space="preserve" text-anchor="middle" x="474.17" y="-233" font-family="Roboto" font-size="10.00">inputs</text>
</g>
<!-- RunOutput -->
<g id="node6" class="node">
<title>RunOutput</title>
<g id="a_node6"><a xlink:href="http://RunOutput_details.html" xlink:title="&lt;TABLE&gt;">
<polygon fill="#3f51b5" stroke="none" points="490,-348.88 490,-367.62 628.75,-367.62 628.75,-348.88 490,-348.88"/>
<polygon fill="none" stroke="black" points="490,-348.88 490,-367.62 628.75,-367.62 628.75,-348.88 490,-348.88"/>
<text xml:space="preserve" text-anchor="start" x="530.5" y="-353.23" font-family="Roboto" font-size="12.00" fill="white">RunOutput</text>
<polygon fill="#bbdefb" stroke="none" points="490,-330.12 490,-348.88 564.25,-348.88 564.25,-330.12 490,-330.12"/>
<polygon fill="none" stroke="black" points="490,-330.12 490,-348.88 564.25,-348.88 564.25,-330.12 490,-330.12"/>
<text xml:space="preserve" text-anchor="start" x="510.25" y="-334.48" font-family="Roboto" font-size="12.00">run_id</text>
<polygon fill="#bbdefb" stroke="none" points="564.25,-330.12 564.25,-348.88 628.75,-348.88 628.75,-330.12 564.25,-330.12"/>
<polygon fill="none" stroke="black" points="564.25,-330.12 564.25,-348.88 628.75,-348.88 628.75,-330.12 564.25,-330.12"/>
<text xml:space="preserve" text-anchor="start" x="568" y="-334.48" font-family="Roboto" font-size="12.00">UUID (PK)</text>
<polygon fill="#bbdefb" stroke="none" points="490,-311.38 490,-330.12 564.25,-330.12 564.25,-311.38 490,-311.38"/>
<polygon fill="none" stroke="black" points="490,-311.38 490,-330.12 564.25,-330.12 564.25,-311.38 490,-311.38"/>
<text xml:space="preserve" text-anchor="start" x="493" y="-315.73" font-family="Roboto" font-size="12.00">s3_object_id</text>
<polygon fill="#bbdefb" stroke="none" points="564.25,-311.38 564.25,-330.12 628.75,-330.12 628.75,-311.38 564.25,-311.38"/>
<polygon fill="none" stroke="black" points="564.25,-311.38 564.25,-330.12 628.75,-330.12 628.75,-311.38 564.25,-311.38"/>
<text xml:space="preserve" text-anchor="start" x="567.25" y="-315.73" font-family="Roboto" font-size="12.00">TEXT (PK)</text>
</a>
</g>
</g>
<!-- WorkflowRun&#45;&gt;RunOutput -->
<g id="edge7" class="edge">
<title>WorkflowRun&#45;&gt;RunOutput</title>
<g id="a_edge7"><a xlink:title="Relation between WorkflowRun and RunOutput">
<path fill="none" stroke="#1e88e5" stroke-dasharray="5,2" d="M483.78,-465.97C488.01,-455.88 492.47,-445.95 497.12,-436.5 506.51,-417.43 518.93,-397.53 530.2,-380.83"/>
<polygon fill="#1e88e5" stroke="#1e88e5" points="533.04,-382.87 535.82,-372.64 527.27,-378.91 533.04,-382.87"/>
</a>
</g>
<text xml:space="preserve" text-anchor="middle" x="513.25" y="-438.25" font-family="Roboto" font-size="10.00">outputs</text>
</g>
<!-- Workflow&#45;&gt;WorkflowRun -->
<g id="edge2" class="edge">
<title>Workflow&#45;&gt;WorkflowRun</title>
<g id="a_edge2"><a xlink:title="Relation between Workflow and WorkflowRun">
<path fill="none" stroke="#1e88e5" stroke-dasharray="5,2" d="M184.51,-411.79C187.5,-414.05 190.46,-416.3 193.38,-418.5 234.43,-449.49 279.66,-483.03 320.02,-512.75"/>
<polygon fill="#1e88e5" stroke="#1e88e5" points="317.74,-515.42 327.87,-518.53 321.89,-509.78 317.74,-515.42"/>
</a>
</g>
<text xml:space="preserve" text-anchor="middle" x="235.99" y="-438.25" font-family="Roboto" font-size="10.00">runs</text>
</g>
<!-- RunMetric&#45;&gt;WorkflowRun -->
<g id="edge14" class="edge">
<title>RunMetric&#45;&gt;WorkflowRun</title>
<g id="a_edge14"><a xlink:title="Relation between RunMetric and WorkflowRun">
<path fill="none" stroke="#1e88e5" stroke-dasharray="5,2" d="M351.17,-380.74C364.66,-397.11 379.12,-416.8 389.38,-436.5 392.57,-442.63 395.59,-449.01 398.46,-455.52"/>
<polygon fill="#1e88e5" stroke="#1e88e5" points="395.12,-456.62 402.23,-464.47 401.57,-453.89 395.12,-456.62"/>
</a>
</g>
<text xml:space="preserve" text-anchor="middle" x="400.24" y="-438.25" font-family="Roboto" font-size="10.00">run</text>
</g>
<!-- RunInput&#45;&gt;WorkflowRun -->
<g id="edge10" class="edge">
<title>RunInput&#45;&gt;WorkflowRun</title>
<g id="a_edge10"><a xlink:title="Relation between RunInput and WorkflowRun">
<path fill="none" stroke="#1e88e5" stroke-dasharray="5,2" d="M593,-64.24C611.6,-76.26 629.6,-91.92 640.38,-111.5 706.17,-231.06 701.55,-294.14 645.38,-418.5 626.61,-460.05 593.11,-495.88 558.51,-524.48"/>
<polygon fill="#1e88e5" stroke="#1e88e5" points="556.46,-521.64 550.87,-530.64 560.85,-527.08 556.46,-521.64"/>
</a>
</g>
<text xml:space="preserve" text-anchor="middle" x="694.25" y="-233" font-family="Roboto" font-size="10.00">run</text>
</g>
<!-- S3Object -->
<g id="node7" class="node">
<title>S3Object</title>
<g id="a_node7"><a xlink:href="http://S3Object_details.html" xlink:title="&lt;TABLE&gt;">
<polygon fill="#3f51b5" stroke="none" points="495.25,-190.5 495.25,-209.25 623.5,-209.25 623.5,-190.5 495.25,-190.5"/>
<polygon fill="none" stroke="black" points="495.25,-190.5 495.25,-209.25 623.5,-209.25 623.5,-190.5 495.25,-190.5"/>
<text xml:space="preserve" text-anchor="start" x="534.62" y="-194.85" font-family="Roboto" font-size="12.00" fill="white">S3Object</text>
<polygon fill="#bbdefb" stroke="none" points="495.25,-171.75 495.25,-190.5 559,-190.5 559,-171.75 495.25,-171.75"/>
<polygon fill="none" stroke="black" points="495.25,-171.75 495.25,-190.5 559,-190.5 559,-171.75 495.25,-171.75"/>
<text xml:space="preserve" text-anchor="start" x="498.25" y="-176.1" font-family="Roboto" font-size="12.00">object_key</text>
<polygon fill="#bbdefb" stroke="none" points="559,-171.75 559,-190.5 623.5,-190.5 623.5,-171.75 559,-171.75"/>
<polygon fill="none" stroke="black" points="559,-171.75 559,-190.5 623.5,-190.5 623.5,-171.75 559,-171.75"/>
<text xml:space="preserve" text-anchor="start" x="562" y="-176.1" font-family="Roboto" font-size="12.00">TEXT (PK)</text>
<polygon fill="#bbdefb" stroke="none" points="495.25,-153 495.25,-171.75 559,-171.75 559,-153 495.25,-153"/>
<polygon fill="none" stroke="black" points="495.25,-153 495.25,-171.75 559,-171.75 559,-153 495.25,-153"/>
<text xml:space="preserve" text-anchor="start" x="516.62" y="-157.35" font-family="Roboto" font-size="12.00">URI</text>
<polygon fill="#bbdefb" stroke="none" points="559,-153 559,-171.75 623.5,-171.75 623.5,-153 559,-153"/>
<polygon fill="none" stroke="black" points="559,-153 559,-171.75 623.5,-171.75 623.5,-153 559,-153"/>
<text xml:space="preserve" text-anchor="start" x="570.25" y="-157.35" font-family="Roboto" font-size="12.00">TEXT ()</text>
<polygon fill="#bbdefb" stroke="none" points="495.25,-134.25 495.25,-153 559,-153 559,-134.25 495.25,-134.25"/>
<polygon fill="none" stroke="black" points="495.25,-134.25 495.25,-153 559,-153 559,-134.25 495.25,-134.25"/>
<text xml:space="preserve" text-anchor="start" x="499.38" y="-138.6" font-family="Roboto" font-size="12.00">version_id</text>
<polygon fill="#bbdefb" stroke="none" points="559,-134.25 559,-153 623.5,-153 623.5,-134.25 559,-134.25"/>
<polygon fill="none" stroke="black" points="559,-134.25 559,-153 623.5,-153 623.5,-134.25 559,-134.25"/>
<text xml:space="preserve" text-anchor="start" x="570.25" y="-138.6" font-family="Roboto" font-size="12.00">TEXT ()</text>
<polygon fill="#bbdefb" stroke="none" points="495.25,-115.5 495.25,-134.25 559,-134.25 559,-115.5 495.25,-115.5"/>
<polygon fill="none" stroke="black" points="495.25,-115.5 495.25,-134.25 559,-134.25 559,-115.5 495.25,-115.5"/>
<text xml:space="preserve" text-anchor="start" x="498.62" y="-119.85" font-family="Roboto" font-size="12.00">size_bytes</text>
<polygon fill="#bbdefb" stroke="none" points="559,-115.5 559,-134.25 623.5,-134.25 623.5,-115.5 559,-115.5"/>
<polygon fill="none" stroke="black" points="559,-115.5 559,-134.25 623.5,-134.25 623.5,-115.5 559,-115.5"/>
<text xml:space="preserve" text-anchor="start" x="566.12" y="-119.85" font-family="Roboto" font-size="12.00">BIGINT ()</text>
</a>
</g>
</g>
<!-- RunInput&#45;&gt;S3Object -->
<g id="edge11" class="edge">
<title>RunInput&#45;&gt;S3Object</title>
<g id="a_edge11"><a xlink:title="Relation between RunInput and S3Object">
<path fill="none" stroke="#1e88e5" stroke-dasharray="5,2" d="M533.57,-64.05C536.51,-75.12 539.93,-88.01 543.29,-100.72"/>
<polygon fill="#1e88e5" stroke="#1e88e5" points="539.9,-101.56 545.84,-110.33 546.66,-99.76 539.9,-101.56"/>
</a>
</g>
<text xml:space="preserve" text-anchor="middle" x="562.36" y="-84" font-family="Roboto" font-size="10.00">s3_object</text>
</g>
<!-- RunOutput&#45;&gt;WorkflowRun -->
<g id="edge12" class="edge">
<title>RunOutput&#45;&gt;WorkflowRun</title>
<g id="a_edge12"><a xlink:title="Relation between RunOutput and WorkflowRun">
<path fill="none" stroke="#1e88e5" stroke-dasharray="5,2" d="M553.02,-371.27C547.97,-393.11 540,-422.85 529.38,-447.75 528.24,-450.41 527.07,-453.07 525.86,-455.75"/>
<polygon fill="#1e88e5" stroke="#1e88e5" points="522.74,-454.16 521.69,-464.7 529.09,-457.12 522.74,-454.16"/>
</a>
</g>
<text xml:space="preserve" text-anchor="middle" x="540.62" y="-438.25" font-family="Roboto" font-size="10.00">run</text>
</g>
<!-- RunOutput&#45;&gt;S3Object -->
<g id="edge13" class="edge">
<title>RunOutput&#45;&gt;S3Object</title>
<g id="a_edge13"><a xlink:title="Relation between RunOutput and S3Object">
<path fill="none" stroke="#1e88e5" stroke-dasharray="5,2" d="M533.52,-307.72C518.98,-286.63 505.23,-257.78 513.38,-231.25 514.17,-228.67 515.1,-226.09 516.14,-223.54"/>
<polygon fill="#1e88e5" stroke="#1e88e5" points="519.26,-225.13 520.33,-214.59 512.92,-222.16 519.26,-225.13"/>
</a>
</g>
<text xml:space="preserve" text-anchor="middle" x="534.38" y="-233" font-family="Roboto" font-size="10.00">s3_object</text>
</g>
<!-- S3Object&#45;&gt;RunInput -->
<g id="edge8" class="edge">
<title>S3Object&#45;&gt;RunInput</title>
<g id="a_edge8"><a xlink:title="Relation between S3Object and RunInput">
<path fill="none" stroke="#1e88e5" stroke-dasharray="5,2" d="M502.73,-111.87C498.59,-106.08 495.02,-99.93 492.38,-93.5 489.79,-87.2 489.99,-80.71 491.87,-74.43"/>
<polygon fill="#1e88e5" stroke="#1e88e5" points="494.97,-76.07 495.8,-65.51 488.57,-73.25 494.97,-76.07"/>
</a>
</g>
<text xml:space="preserve" text-anchor="middle" x="514.88" y="-84" font-family="Roboto" font-size="10.00">run_inputs</text>
</g>
<!-- S3Object&#45;&gt;RunOutput -->
<g id="edge9" class="edge">
<title>S3Object&#45;&gt;RunOutput</title>
<g id="a_edge9"><a xlink:title="Relation between S3Object and RunOutput">
<path fill="none" stroke="#1e88e5" stroke-dasharray="5,2" d="M559.38,-213.17C559.38,-239.41 559.38,-271.25 559.38,-296.27"/>
<polygon fill="#1e88e5" stroke="#1e88e5" points="555.88,-296.08 559.38,-306.08 562.88,-296.08 555.88,-296.08"/>
</a>
</g>
<text xml:space="preserve" text-anchor="middle" x="584.88" y="-233" font-family="Roboto" font-size="10.00">run_outputs</text>
</g>
</g>
</svg>
