<?xml version="1.0" encoding="UTF-8" standalone="no"?>
<!DOCTYPE svg PUBLIC "-//W3C//DTD SVG 1.1//EN"
 "http://www.w3.org/Graphics/SVG/1.1/DTD/svg11.dtd">
<!-- Generated by graphviz version 14.1.1 (20251213.1925)
 -->
<!-- Pages: 1 -->
<svg width="697pt" height="1006pt"
 viewBox="0.00 0.00 697.00 1006.00" xmlns="http://www.w3.org/2000/svg" xmlns:xlink="http://www.w3.org/1999/xlink">
<g id="graph0" class="graph" transform="scale(1 1) rotate(0) translate(4 1001.75)">
<polygon fill="#eeeeee" stroke="none" points="-4,4 -4,-1001.75 693.12,-1001.75 693.12,4 -4,4"/>
<!-- AppUser -->
<g id="node1" class="node">
<title>AppUser</title>
<g id="a_node1"><a xlink:href="http://AppUser_details.html" xlink:title="&lt;TABLE&gt;">
<polygon fill="#3f51b5" stroke="none" points="254.88,-937.5 254.88,-956.25 446.88,-956.25 446.88,-937.5 254.88,-937.5"/>
<polygon fill="none" stroke="black" points="254.88,-937.5 254.88,-956.25 446.88,-956.25 446.88,-937.5 254.88,-937.5"/>
<text xml:space="preserve" text-anchor="start" x="327.25" y="-941.85" font-family="Roboto" font-size="12.00" fill="white">AppUser</text>
<polygon fill="#bbdefb" stroke="none" points="254.88,-918.75 254.88,-937.5 359.88,-937.5 359.88,-918.75 254.88,-918.75"/>
<polygon fill="none" stroke="black" points="254.88,-918.75 254.88,-937.5 359.88,-937.5 359.88,-918.75 254.88,-918.75"/>
<text xml:space="preserve" text-anchor="start" x="302.5" y="-923.1" font-family="Roboto" font-size="12.00">id</text>
<polygon fill="#bbdefb" stroke="none" points="359.88,-918.75 359.88,-937.5 446.88,-937.5 446.88,-918.75 359.88,-918.75"/>
<polygon fill="none" stroke="black" points="359.88,-918.75 359.88,-937.5 446.88,-937.5 446.88,-918.75 359.88,-918.75"/>
<text xml:space="preserve" text-anchor="start" x="374.88" y="-923.1" font-family="Roboto" font-size="12.00">UUID (PK)</text>
<polygon fill="#bbdefb" stroke="none" points="254.88,-900 254.88,-918.75 359.88,-918.75 359.88,-900 254.88,-900"/>
<polygon fill="none" stroke="black" points="254.88,-900 254.88,-918.75 359.88,-918.75 359.88,-900 254.88,-900"/>
<text xml:space="preserve" text-anchor="start" x="269.12" y="-904.35" font-family="Roboto" font-size="12.00">auth0_user_id</text>
<polygon fill="#bbdefb" stroke="none" points="359.88,-900 359.88,-918.75 446.88,-918.75 446.88,-900 359.88,-900"/>
<polygon fill="none" stroke="black" points="359.88,-900 359.88,-918.75 446.88,-918.75 446.88,-900 359.88,-900"/>
<text xml:space="preserve" text-anchor="start" x="362.88" y="-904.35" font-family="Roboto" font-size="12.00">TEXT (Unique)</text>
<polygon fill="#bbdefb" stroke="none" points="254.88,-881.25 254.88,-900 359.88,-900 359.88,-881.25 254.88,-881.25"/>
<polygon fill="none" stroke="black" points="254.88,-881.25 254.88,-900 359.88,-900 359.88,-881.25 254.88,-881.25"/>
<text xml:space="preserve" text-anchor="start" x="292.38" y="-885.6" font-family="Roboto" font-size="12.00">name</text>
<polygon fill="#bbdefb" stroke="none" points="359.88,-881.25 359.88,-900 446.88,-900 446.88,-881.25 359.88,-881.25"/>
<polygon fill="none" stroke="black" points="359.88,-881.25 359.88,-900 446.88,-900 446.88,-881.25 359.88,-881.25"/>
<text xml:space="preserve" text-anchor="start" x="382.38" y="-885.6" font-family="Roboto" font-size="12.00">TEXT ()</text>
<polygon fill="#bbdefb" stroke="none" points="254.88,-862.5 254.88,-881.25 359.88,-881.25 359.88,-862.5 254.88,-862.5"/>
<polygon fill="none" stroke="black" points="254.88,-862.5 254.88,-881.25 359.88,-881.25 359.88,-862.5 254.88,-862.5"/>
<text xml:space="preserve" text-anchor="start" x="292.75" y="-866.85" font-family="Roboto" font-size="12.00">email</text>
<polygon fill="#bbdefb" stroke="none" points="359.88,-862.5 359.88,-881.25 446.88,-881.25 446.88,-862.5 359.88,-862.5"/>
<polygon fill="none" stroke="black" points="359.88,-862.5 359.88,-881.25 446.88,-881.25 446.88,-862.5 359.88,-862.5"/>
<text xml:space="preserve" text-anchor="start" x="362.88" y="-866.85" font-family="Roboto" font-size="12.00">TEXT (Unique)</text>
<polygon fill="#bbdefb" stroke="none" points="254.88,-843.75 254.88,-862.5 359.88,-862.5 359.88,-843.75 254.88,-843.75"/>
<polygon fill="none" stroke="black" points="254.88,-843.75 254.88,-862.5 359.88,-862.5 359.88,-843.75 254.88,-843.75"/>
<text xml:space="preserve" text-anchor="start" x="292.75" y="-848.1" font-family="Roboto" font-size="12.00">credit</text>
<polygon fill="#bbdefb" stroke="none" points="359.88,-843.75 359.88,-862.5 446.88,-862.5 446.88,-843.75 359.88,-843.75"/>
<polygon fill="none" stroke="black" points="359.88,-843.75 359.88,-862.5 446.88,-862.5 446.88,-843.75 359.88,-843.75"/>
<text xml:space="preserve" text-anchor="start" x="378.25" y="-848.1" font-family="Roboto" font-size="12.00">BIGINT ()</text>
<polygon fill="#bbdefb" stroke="none" points="254.88,-825 254.88,-843.75 359.88,-843.75 359.88,-825 254.88,-825"/>
<polygon fill="none" stroke="black" points="254.88,-825 254.88,-843.75 359.88,-843.75 359.88,-825 254.88,-825"/>
<text xml:space="preserve" text-anchor="start" x="259.38" y="-829.35" font-family="Roboto" font-size="12.00">credit_updated_at</text>
<polygon fill="#bbdefb" stroke="none" points="359.88,-825 359.88,-843.75 446.88,-843.75 446.88,-825 359.88,-825"/>
<polygon fill="none" stroke="black" points="359.88,-825 359.88,-843.75 446.88,-843.75 446.88,-825 359.88,-825"/>
<text xml:space="preserve" text-anchor="start" x="368.12" y="-829.35" font-family="Roboto" font-size="12.00">DATETIME ()</text>
<polygon fill="#bbdefb" stroke="none" points="254.88,-806.25 254.88,-825 359.88,-825 359.88,-806.25 254.88,-806.25"/>
<polygon fill="none" stroke="black" points="254.88,-806.25 254.88,-825 359.88,-825 359.88,-806.25 254.88,-806.25"/>
<text xml:space="preserve" text-anchor="start" x="257.88" y="-810.6" font-family="Roboto" font-size="12.00">credit_updated_by</text>
<polygon fill="#bbdefb" stroke="none" points="359.88,-806.25 359.88,-825 446.88,-825 446.88,-806.25 359.88,-806.25"/>
<polygon fill="none" stroke="black" points="359.88,-806.25 359.88,-825 446.88,-825 446.88,-806.25 359.88,-806.25"/>
<text xml:space="preserve" text-anchor="start" x="382.38" y="-810.6" font-family="Roboto" font-size="12.00">TEXT ()</text>
</a>
</g>
</g>
<!-- WorkflowRun -->
<g id="node2" class="node">
<title>WorkflowRun</title>
<g id="a_node2"><a xlink:href="http://WorkflowRun_details.html" xlink:title="&lt;TABLE&gt;">
<polygon fill="#3f51b5" stroke="none" points="309.5,-694.75 309.5,-713.5 514.25,-713.5 514.25,-694.75 309.5,-694.75"/>
<polygon fill="none" stroke="black" points="309.5,-694.75 309.5,-713.5 514.25,-713.5 514.25,-694.75 309.5,-694.75"/>
<text xml:space="preserve" text-anchor="start" x="375.88" y="-699.1" font-family="Roboto" font-size="12.00" fill="white">WorkflowRun</text>
<polygon fill="#bbdefb" stroke="none" points="309.5,-676 309.5,-694.75 437.75,-694.75 437.75,-676 309.5,-676"/>
<polygon fill="none" stroke="black" points="309.5,-676 309.5,-694.75 437.75,-694.75 437.75,-676 309.5,-676"/>
<text xml:space="preserve" text-anchor="start" x="368.75" y="-680.35" font-family="Roboto" font-size="12.00">id</text>
<polygon fill="#bbdefb" stroke="none" points="437.75,-676 437.75,-694.75 514.25,-694.75 514.25,-676 437.75,-676"/>
<polygon fill="none" stroke="black" points="437.75,-676 437.75,-694.75 514.25,-694.75 514.25,-676 437.75,-676"/>
<text xml:space="preserve" text-anchor="start" x="447.5" y="-680.35" font-family="Roboto" font-size="12.00">UUID (PK)</text>
<polygon fill="#bbdefb" stroke="none" points="309.5,-657.25 309.5,-676 437.75,-676 437.75,-657.25 309.5,-657.25"/>
<polygon fill="none" stroke="black" points="309.5,-657.25 309.5,-676 437.75,-676 437.75,-657.25 309.5,-657.25"/>
<text xml:space="preserve" text-anchor="start" x="341.75" y="-661.6" font-family="Roboto" font-size="12.00">workflow_id</text>
<polygon fill="#bbdefb" stroke="none" points="437.75,-657.25 437.75,-676 514.25,-676 514.25,-657.25 437.75,-657.25"/>
<polygon fill="none" stroke="black" points="437.75,-657.25 437.75,-676 514.25,-676 514.25,-657.25 437.75,-657.25"/>
<text xml:space="preserve" text-anchor="start" x="455.75" y="-661.6" font-family="Roboto" font-size="12.00">UUID ()</text>
<polygon fill="#bbdefb" stroke="none" points="309.5,-638.5 309.5,-657.25 437.75,-657.25 437.75,-638.5 309.5,-638.5"/>
<polygon fill="none" stroke="black" points="309.5,-638.5 309.5,-657.25 437.75,-657.25 437.75,-638.5 309.5,-638.5"/>
<text xml:space="preserve" text-anchor="start" x="333.88" y="-642.85" font-family="Roboto" font-size="12.00">owner_user_id</text>
<polygon fill="#bbdefb" stroke="none" points="437.75,-638.5 437.75,-657.25 514.25,-657.25 514.25,-638.5 437.75,-638.5"/>
<polygon fill="none" stroke="black" points="437.75,-638.5 437.75,-657.25 514.25,-657.25 514.25,-638.5 437.75,-638.5"/>
<text xml:space="preserve" text-anchor="start" x="455.75" y="-642.85" font-family="Roboto" font-size="12.00">UUID ()</text>
<polygon fill="#bbdefb" stroke="none" points="309.5,-619.75 309.5,-638.5 437.75,-638.5 437.75,-619.75 309.5,-619.75"/>
<polygon fill="none" stroke="black" points="309.5,-619.75 309.5,-638.5 437.75,-638.5 437.75,-619.75 309.5,-619.75"/>
<text xml:space="preserve" text-anchor="start" x="335" y="-624.1" font-family="Roboto" font-size="12.00">seqera_run_id</text>
<polygon fill="#bbdefb" stroke="none" points="437.75,-619.75 437.75,-638.5 514.25,-638.5 514.25,-619.75 437.75,-619.75"/>
<polygon fill="none" stroke="black" points="437.75,-619.75 437.75,-638.5 514.25,-638.5 514.25,-619.75 437.75,-619.75"/>
<text xml:space="preserve" text-anchor="start" x="455" y="-624.1" font-family="Roboto" font-size="12.00">TEXT ()</text>
<polygon fill="#bbdefb" stroke="none" points="309.5,-601 309.5,-619.75 437.75,-619.75 437.75,-601 309.5,-601"/>
<polygon fill="none" stroke="black" points="309.5,-601 309.5,-619.75 437.75,-619.75 437.75,-601 309.5,-601"/>
<text xml:space="preserve" text-anchor="start" x="338.38" y="-605.35" font-family="Roboto" font-size="12.00">binder_name</text>
<polygon fill="#bbdefb" stroke="none" points="437.75,-601 437.75,-619.75 514.25,-619.75 514.25,-601 437.75,-601"/>
<polygon fill="none" stroke="black" points="437.75,-601 437.75,-619.75 514.25,-619.75 514.25,-601 437.75,-601"/>
<text xml:space="preserve" text-anchor="start" x="455" y="-605.35" font-family="Roboto" font-size="12.00">TEXT ()</text>
<polygon fill="#bbdefb" stroke="none" points="309.5,-582.25 309.5,-601 437.75,-601 437.75,-582.25 309.5,-582.25"/>
<polygon fill="none" stroke="black" points="309.5,-582.25 309.5,-601 437.75,-601 437.75,-582.25 309.5,-582.25"/>
<text xml:space="preserve" text-anchor="start" x="345.88" y="-586.6" font-family="Roboto" font-size="12.00">sample_id</text>
<polygon fill="#bbdefb" stroke="none" points="437.75,-582.25 437.75,-601 514.25,-601 514.25,-582.25 437.75,-582.25"/>
<polygon fill="none" stroke="black" points="437.75,-582.25 437.75,-601 514.25,-601 514.25,-582.25 437.75,-582.25"/>
<text xml:space="preserve" text-anchor="start" x="455" y="-586.6" font-family="Roboto" font-size="12.00">TEXT ()</text>
<polygon fill="#bbdefb" stroke="none" points="309.5,-563.5 309.5,-582.25 437.75,-582.25 437.75,-563.5 309.5,-563.5"/>
<polygon fill="none" stroke="black" points="309.5,-563.5 309.5,-582.25 437.75,-582.25 437.75,-563.5 309.5,-563.5"/>
<text xml:space="preserve" text-anchor="start" x="346.62" y="-567.85" font-family="Roboto" font-size="12.00">run_name</text>
<polygon fill="#bbdefb" stroke="none" points="437.75,-563.5 437.75,-582.25 514.25,-582.25 514.25,-563.5 437.75,-563.5"/>
<polygon fill="none" stroke="black" points="437.75,-563.5 437.75,-582.25 514.25,-582.25 514.25,-563.5 437.75,-563.5"/>
<text xml:space="preserve" text-anchor="start" x="455" y="-567.85" font-family="Roboto" font-size="12.00">TEXT ()</text>
<polygon fill="#bbdefb" stroke="none" points="309.5,-544.75 309.5,-563.5 437.75,-563.5 437.75,-544.75 309.5,-544.75"/>
<polygon fill="none" stroke="black" points="309.5,-544.75 309.5,-563.5 437.75,-563.5 437.75,-544.75 309.5,-544.75"/>
<text xml:space="preserve" text-anchor="start" x="317.75" y="-549.1" font-family="Roboto" font-size="12.00">submitted_form_data</text>
<polygon fill="#bbdefb" stroke="none" points="437.75,-544.75 437.75,-563.5 514.25,-563.5 514.25,-544.75 437.75,-544.75"/>
<polygon fill="none" stroke="black" points="437.75,-544.75 437.75,-563.5 514.25,-563.5 514.25,-544.75 437.75,-544.75"/>
<text xml:space="preserve" text-anchor="start" x="454.62" y="-549.1" font-family="Roboto" font-size="12.00">JSON ()</text>
<polygon fill="#bbdefb" stroke="none" points="309.5,-526 309.5,-544.75 437.75,-544.75 437.75,-526 309.5,-526"/>
<polygon fill="none" stroke="black" points="309.5,-526 309.5,-544.75 437.75,-544.75 437.75,-526 309.5,-526"/>
<text xml:space="preserve" text-anchor="start" x="350.75" y="-530.35" font-family="Roboto" font-size="12.00">work_dir</text>
<polygon fill="#bbdefb" stroke="none" points="437.75,-526 437.75,-544.75 514.25,-544.75 514.25,-526 437.75,-526"/>
<polygon fill="none" stroke="black" points="437.75,-526 437.75,-544.75 514.25,-544.75 514.25,-526 437.75,-526"/>
<text xml:space="preserve" text-anchor="start" x="455" y="-530.35" font-family="Roboto" font-size="12.00">TEXT ()</text>
<polygon fill="#bbdefb" stroke="none" points="309.5,-507.25 309.5,-526 437.75,-526 437.75,-507.25 309.5,-507.25"/>
<polygon fill="none" stroke="black" points="309.5,-507.25 309.5,-526 437.75,-526 437.75,-507.25 309.5,-507.25"/>
<text xml:space="preserve" text-anchor="start" x="347.38" y="-511.6" font-family="Roboto" font-size="12.00">launch_ip</text>
<polygon fill="#bbdefb" stroke="none" points="437.75,-507.25 437.75,-526 514.25,-526 514.25,-507.25 437.75,-507.25"/>
<polygon fill="none" stroke="black" points="437.75,-507.25 437.75,-526 514.25,-526 514.25,-507.25 437.75,-507.25"/>
<text xml:space="preserve" text-anchor="start" x="455" y="-511.6" font-family="Roboto" font-size="12.00">TEXT ()</text>
<polygon fill="#bbdefb" stroke="none" points="309.5,-488.5 309.5,-507.25 437.75,-507.25 437.75,-488.5 309.5,-488.5"/>
<polygon fill="none" stroke="black" points="309.5,-488.5 309.5,-507.25 437.75,-507.25 437.75,-488.5 309.5,-488.5"/>
<text xml:space="preserve" text-anchor="start" x="312.5" y="-492.85" font-family="Roboto" font-size="12.00">submission_timestamp</text>
<polygon fill="#bbdefb" stroke="none" points="437.75,-488.5 437.75,-507.25 514.25,-507.25 514.25,-488.5 437.75,-488.5"/>
<polygon fill="none" stroke="black" points="437.75,-488.5 437.75,-507.25 514.25,-507.25 514.25,-488.5 437.75,-488.5"/>
<text xml:space="preserve" text-anchor="start" x="440.75" y="-492.85" font-family="Roboto" font-size="12.00">DATETIME ()</text>
<polygon fill="#bbdefb" stroke="none" points="309.5,-469.75 309.5,-488.5 437.75,-488.5 437.75,-469.75 309.5,-469.75"/>
<polygon fill="none" stroke="black" points="309.5,-469.75 309.5,-488.5 437.75,-488.5 437.75,-469.75 309.5,-469.75"/>
<text xml:space="preserve" text-anchor="start" x="363.88" y="-474.1" font-family="Roboto" font-size="12.00">tool</text>
<polygon fill="#bbdefb" stroke="none" points="437.75,-469.75 437.75,-488.5 514.25,-488.5 514.25,-469.75 437.75,-469.75"/>
<polygon fill="none" stroke="black" points="437.75,-469.75 437.75,-488.5 514.25,-488.5 514.25,-469.75 437.75,-469.75"/>
<text xml:space="preserve" text-anchor="start" x="455" y="-474.1" font-family="Roboto" font-size="12.00">TEXT ()</text>
</a>
</g>
</g>
<!-- AppUser&#45;&gt;WorkflowRun -->
<g id="edge1" class="edge">
<title>AppUser&#45;&gt;WorkflowRun</title>
<g id="a_edge1"><a xlink:title="Relation between AppUser and WorkflowRun">
<path fill="none" stroke="#1e88e5" stroke-dasharray="5,2" d="M329.74,-802.56C326.72,-780.66 326.28,-756.96 331.88,-735.5 332.52,-733.04 333.21,-730.58 333.95,-728.12"/>
<polygon fill="#1e88e5" stroke="#1e88e5" points="337.22,-729.38 337.03,-718.78 330.58,-727.19 337.22,-729.38"/>
</a>
</g>
<text xml:space="preserve" text-anchor="middle" x="363.38" y="-737.25" font-family="Roboto" font-size="10.00">workflow_runs</text>
</g>
<!-- WorkflowRun&#45;&gt;AppUser -->
<g id="edge3" class="edge">
<title>WorkflowRun&#45;&gt;AppUser</title>
<g id="a_edge3"><a xlink:title="Relation between WorkflowRun and AppUser">
<path fill="none" stroke="#1e88e5" stroke-dasharray="5,2" d="M400.35,-717.48C398.75,-727.43 396.93,-737.28 394.88,-746.75 391.68,-761.43 387.48,-776.77 382.94,-791.6"/>
<polygon fill="#1e88e5" stroke="#1e88e5" points="379.69,-790.26 380.04,-800.85 386.37,-792.36 379.69,-790.26"/>
</a>
</g>
<text xml:space="preserve" text-anchor="middle" x="409.7" y="-737.25" font-family="Roboto" font-size="10.00">owner</text>
</g>
<!-- Workflow -->
<g id="node3" class="node">
<title>Workflow</title>
<g id="a_node3"><a xlink:href="http://Workflow_details.html" xlink:title="&lt;TABLE&gt;">
<polygon fill="#3f51b5" stroke="none" points="497.5,-395.75 497.5,-414.5 666.25,-414.5 666.25,-395.75 497.5,-395.75"/>
<polygon fill="none" stroke="black" points="497.5,-395.75 497.5,-414.5 666.25,-414.5 666.25,-395.75 497.5,-395.75"/>
<text xml:space="preserve" text-anchor="start" x="557.12" y="-400.1" font-family="Roboto" font-size="12.00" fill="white">Workflow</text>
<polygon fill="#bbdefb" stroke="none" points="497.5,-377 497.5,-395.75 603.25,-395.75 603.25,-377 497.5,-377"/>
<polygon fill="none" stroke="black" points="497.5,-377 497.5,-395.75 603.25,-395.75 603.25,-377 497.5,-377"/>
<text xml:space="preserve" text-anchor="start" x="545.5" y="-381.35" font-family="Roboto" font-size="12.00">id</text>
<polygon fill="#bbdefb" stroke="none" points="603.25,-377 603.25,-395.75 666.25,-395.75 666.25,-377 603.25,-377"/>
<polygon fill="none" stroke="black" points="603.25,-377 603.25,-395.75 666.25,-395.75 666.25,-377 603.25,-377"/>
<text xml:space="preserve" text-anchor="start" x="606.25" y="-381.35" font-family="Roboto" font-size="12.00">UUID (PK)</text>
<polygon fill="#bbdefb" stroke="none" points="497.5,-358.25 497.5,-377 603.25,-377 603.25,-358.25 497.5,-358.25"/>
<polygon fill="none" stroke="black" points="497.5,-358.25 497.5,-377 603.25,-377 603.25,-358.25 497.5,-358.25"/>
<text xml:space="preserve" text-anchor="start" x="535.38" y="-362.6" font-family="Roboto" font-size="12.00">name</text>
<polygon fill="#bbdefb" stroke="none" points="603.25,-358.25 603.25,-377 666.25,-377 666.25,-358.25 603.25,-358.25"/>
<polygon fill="none" stroke="black" points="603.25,-358.25 603.25,-377 666.25,-377 666.25,-358.25 603.25,-358.25"/>
<text xml:space="preserve" text-anchor="start" x="613.75" y="-362.6" font-family="Roboto" font-size="12.00">TEXT ()</text>
<polygon fill="#bbdefb" stroke="none" points="497.5,-339.5 497.5,-358.25 603.25,-358.25 603.25,-339.5 497.5,-339.5"/>
<polygon fill="none" stroke="black" points="497.5,-339.5 497.5,-358.25 603.25,-358.25 603.25,-339.5 497.5,-339.5"/>
<text xml:space="preserve" text-anchor="start" x="521.12" y="-343.85" font-family="Roboto" font-size="12.00">description</text>
<polygon fill="#bbdefb" stroke="none" points="603.25,-339.5 603.25,-358.25 666.25,-358.25 666.25,-339.5 603.25,-339.5"/>
<polygon fill="none" stroke="black" points="603.25,-339.5 603.25,-358.25 666.25,-358.25 666.25,-339.5 603.25,-339.5"/>
<text xml:space="preserve" text-anchor="start" x="613.75" y="-343.85" font-family="Roboto" font-size="12.00">TEXT ()</text>
<polygon fill="#bbdefb" stroke="none" points="497.5,-320.75 497.5,-339.5 603.25,-339.5 603.25,-320.75 497.5,-320.75"/>
<polygon fill="none" stroke="black" points="497.5,-320.75 497.5,-339.5 603.25,-339.5 603.25,-320.75 497.5,-320.75"/>
<text xml:space="preserve" text-anchor="start" x="528.25" y="-325.1" font-family="Roboto" font-size="12.00">repo_url</text>
<polygon fill="#bbdefb" stroke="none" points="603.25,-320.75 603.25,-339.5 666.25,-339.5 666.25,-320.75 603.25,-320.75"/>
<polygon fill="none" stroke="black" points="603.25,-320.75 603.25,-339.5 666.25,-339.5 666.25,-320.75 603.25,-320.75"/>
<text xml:space="preserve" text-anchor="start" x="613.75" y="-325.1" font-family="Roboto" font-size="12.00">TEXT ()</text>
<polygon fill="#bbdefb" stroke="none" points="497.5,-302 497.5,-320.75 603.25,-320.75 603.25,-302 497.5,-302"/>
<polygon fill="none" stroke="black" points="497.5,-302 497.5,-320.75 603.25,-320.75 603.25,-302 497.5,-302"/>
<text xml:space="preserve" text-anchor="start" x="508" y="-306.35" font-family="Roboto" font-size="12.00">default_revision</text>
<polygon fill="#bbdefb" stroke="none" points="603.25,-302 603.25,-320.75 666.25,-320.75 666.25,-302 603.25,-302"/>
<polygon fill="none" stroke="black" points="603.25,-302 603.25,-320.75 666.25,-320.75 666.25,-302 603.25,-302"/>
<text xml:space="preserve" text-anchor="start" x="613.75" y="-306.35" font-family="Roboto" font-size="12.00">TEXT ()</text>
<polygon fill="#bbdefb" stroke="none" points="497.5,-283.25 497.5,-302 603.25,-302 603.25,-283.25 497.5,-283.25"/>
<polygon fill="none" stroke="black" points="497.5,-283.25 497.5,-302 603.25,-302 603.25,-283.25 497.5,-283.25"/>
<text xml:space="preserve" text-anchor="start" x="519.25" y="-287.6" font-family="Roboto" font-size="12.00">config_path</text>
<polygon fill="#bbdefb" stroke="none" points="603.25,-283.25 603.25,-302 666.25,-302 666.25,-283.25 603.25,-283.25"/>
<polygon fill="none" stroke="black" points="603.25,-283.25 603.25,-302 666.25,-302 666.25,-283.25 603.25,-283.25"/>
<text xml:space="preserve" text-anchor="start" x="613.75" y="-287.6" font-family="Roboto" font-size="12.00">TEXT ()</text>
<polygon fill="#bbdefb" stroke="none" points="497.5,-264.5 497.5,-283.25 603.25,-283.25 603.25,-264.5 497.5,-264.5"/>
<polygon fill="none" stroke="black" points="497.5,-264.5 497.5,-283.25 603.25,-283.25 603.25,-264.5 497.5,-264.5"/>
<text xml:space="preserve" text-anchor="start" x="500.5" y="-268.85" font-family="Roboto" font-size="12.00">prerun_script_path</text>
<polygon fill="#bbdefb" stroke="none" points="603.25,-264.5 603.25,-283.25 666.25,-283.25 666.25,-264.5 603.25,-264.5"/>
<polygon fill="none" stroke="black" points="603.25,-264.5 603.25,-283.25 666.25,-283.25 666.25,-264.5 603.25,-264.5"/>
<text xml:space="preserve" text-anchor="start" x="613.75" y="-268.85" font-family="Roboto" font-size="12.00">TEXT ()</text>
</a>
</g>
</g>
<!-- WorkflowRun&#45;&gt;Workflow -->
<g id="edge4" class="edge">
<title>WorkflowRun&#45;&gt;Workflow</title>
<g id="a_edge4"><a xlink:title="Relation between WorkflowRun and Workflow">
<path fill="none" stroke="#1e88e5" stroke-dasharray="5,2" d="M502.52,-465.9C506.73,-459.79 510.87,-453.72 514.88,-447.75 519.25,-441.23 523.71,-434.45 528.15,-427.59"/>
<polygon fill="#1e88e5" stroke="#1e88e5" points="530.89,-429.8 533.35,-419.49 525,-426.01 530.89,-429.8"/>
</a>
</g>
<text xml:space="preserve" text-anchor="middle" x="540.05" y="-438.25" font-family="Roboto" font-size="10.00">workflow</text>
</g>
<!-- RunMetric -->
<g id="node4" class="node">
<title>RunMetric</title>
<g id="a_node4"><a xlink:href="http://RunMetric_details.html" xlink:title="&lt;TABLE&gt;">
<polygon fill="#3f51b5" stroke="none" points="8,-358.25 8,-377 215.75,-377 215.75,-358.25 8,-358.25"/>
<polygon fill="none" stroke="black" points="8,-358.25 8,-377 215.75,-377 215.75,-358.25 8,-358.25"/>
<text xml:space="preserve" text-anchor="start" x="84.5" y="-362.6" font-family="Roboto" font-size="12.00" fill="white">RunMetric</text>
<polygon fill="#bbdefb" stroke="none" points="8,-339.5 8,-358.25 115.25,-358.25 115.25,-339.5 8,-339.5"/>
<polygon fill="none" stroke="black" points="8,-339.5 8,-358.25 115.25,-358.25 115.25,-339.5 8,-339.5"/>
<text xml:space="preserve" text-anchor="start" x="44.75" y="-343.85" font-family="Roboto" font-size="12.00">run_id</text>
<polygon fill="#bbdefb" stroke="none" points="115.25,-339.5 115.25,-358.25 215.75,-358.25 215.75,-339.5 115.25,-339.5"/>
<polygon fill="none" stroke="black" points="115.25,-339.5 115.25,-358.25 215.75,-358.25 215.75,-339.5 115.25,-339.5"/>
<text xml:space="preserve" text-anchor="start" x="137" y="-343.85" font-family="Roboto" font-size="12.00">UUID (PK)</text>
<polygon fill="#bbdefb" stroke="none" points="8,-320.75 8,-339.5 115.25,-339.5 115.25,-320.75 8,-320.75"/>
<polygon fill="none" stroke="black" points="8,-320.75 8,-339.5 115.25,-339.5 115.25,-320.75 8,-320.75"/>
<text xml:space="preserve" text-anchor="start" x="32.38" y="-325.1" font-family="Roboto" font-size="12.00">max_score</text>
<polygon fill="#bbdefb" stroke="none" points="115.25,-320.75 115.25,-339.5 215.75,-339.5 215.75,-320.75 115.25,-320.75"/>
<polygon fill="none" stroke="black" points="115.25,-320.75 115.25,-339.5 215.75,-339.5 215.75,-320.75 115.25,-320.75"/>
<text xml:space="preserve" text-anchor="start" x="118.25" y="-325.1" font-family="Roboto" font-size="12.00">NUMERIC(8, 2) ()</text>
<polygon fill="#bbdefb" stroke="none" points="8,-302 8,-320.75 115.25,-320.75 115.25,-302 8,-302"/>
<polygon fill="none" stroke="black" points="8,-302 8,-320.75 115.25,-320.75 115.25,-302 8,-302"/>
<text xml:space="preserve" text-anchor="start" x="11" y="-306.35" font-family="Roboto" font-size="12.00">final_design_count</text>
<polygon fill="#bbdefb" stroke="none" points="115.25,-302 115.25,-320.75 215.75,-320.75 215.75,-302 115.25,-302"/>
<polygon fill="none" stroke="black" points="115.25,-302 115.25,-320.75 215.75,-320.75 215.75,-302 115.25,-302"/>
<text xml:space="preserve" text-anchor="start" x="140.38" y="-306.35" font-family="Roboto" font-size="12.00">BIGINT ()</text>
</a>
</g>
</g>
<!-- WorkflowRun&#45;&gt;RunMetric -->
<g id="edge5" class="edge">
<title>WorkflowRun&#45;&gt;RunMetric</title>
<g id="a_edge5"><a xlink:title="Relation between WorkflowRun and RunMetric">
<path fill="none" stroke="#1e88e5" stroke-dasharray="5,2" d="M301.63,-549.69C251.23,-526.33 194.11,-492.63 154.62,-447.75 140.67,-431.89 130.96,-410.91 124.36,-391.71"/>
<polygon fill="#1e88e5" stroke="#1e88e5" points="127.77,-390.87 121.38,-382.41 121.1,-393 127.77,-390.87"/>
</a>
</g>
<text xml:space="preserve" text-anchor="middle" x="170.75" y="-438.25" font-family="Roboto" font-size="10.00">metrics</text>
</g>
<!-- RunInput -->
<g id="node5" class="node">
<title>RunInput</title>
<g id="a_node5"><a xlink:href="http://RunInput_details.html" xlink:title="&lt;TABLE&gt;">
<polygon fill="#3f51b5" stroke="none" points="253.5,-41.5 253.5,-60.25 392.25,-60.25 392.25,-41.5 253.5,-41.5"/>
<polygon fill="none" stroke="black" points="253.5,-41.5 253.5,-60.25 392.25,-60.25 392.25,-41.5 253.5,-41.5"/>
<text xml:space="preserve" text-anchor="start" x="298.5" y="-45.85" font-family="Roboto" font-size="12.00" fill="white">RunInput</text>
<polygon fill="#bbdefb" stroke="none" points="253.5,-22.75 253.5,-41.5 327.75,-41.5 327.75,-22.75 253.5,-22.75"/>
<polygon fill="none" stroke="black" points="253.5,-22.75 253.5,-41.5 327.75,-41.5 327.75,-22.75 253.5,-22.75"/>
<text xml:space="preserve" text-anchor="start" x="273.75" y="-27.1" font-family="Roboto" font-size="12.00">run_id</text>
<polygon fill="#bbdefb" stroke="none" points="327.75,-22.75 327.75,-41.5 392.25,-41.5 392.25,-22.75 327.75,-22.75"/>
<polygon fill="none" stroke="black" points="327.75,-22.75 327.75,-41.5 392.25,-41.5 392.25,-22.75 327.75,-22.75"/>
<text xml:space="preserve" text-anchor="start" x="331.5" y="-27.1" font-family="Roboto" font-size="12.00">UUID (PK)</text>
<polygon fill="#bbdefb" stroke="none" points="253.5,-4 253.5,-22.75 327.75,-22.75 327.75,-4 253.5,-4"/>
<polygon fill="none" stroke="black" points="253.5,-4 253.5,-22.75 327.75,-22.75 327.75,-4 253.5,-4"/>
<text xml:space="preserve" text-anchor="start" x="256.5" y="-8.35" font-family="Roboto" font-size="12.00">s3_object_id</text>
<polygon fill="#bbdefb" stroke="none" points="327.75,-4 327.75,-22.75 392.25,-22.75 392.25,-4 327.75,-4"/>
<polygon fill="none" stroke="black" points="327.75,-4 327.75,-22.75 392.25,-22.75 392.25,-4 327.75,-4"/>
<text xml:space="preserve" text-anchor="start" x="330.75" y="-8.35" font-family="Roboto" font-size="12.00">TEXT (PK)</text>
</a>
</g>
</g>
<!-- WorkflowRun&#45;&gt;RunInput -->
<g id="edge6" class="edge">
<title>WorkflowRun&#45;&gt;RunInput</title>
<g id="a_edge6"><a xlink:title="Relation between WorkflowRun and RunInput">
<path fill="none" stroke="#1e88e5" stroke-dasharray="5,2" d="M301.83,-477.4C289.19,-458.92 278.22,-439.05 270.88,-418.5 224.96,-289.99 255.45,-246.42 275.88,-111.5 277.89,-98.17 277.78,-94.27 283.88,-82.25 285.35,-79.34 287.02,-76.43 288.81,-73.57"/>
<polygon fill="#1e88e5" stroke="#1e88e5" points="291.68,-75.57 294.43,-65.33 285.9,-71.62 291.68,-75.57"/>
</a>
</g>
<text xml:space="preserve" text-anchor="middle" x="266.61" y="-233" font-family="Roboto" font-size="10.00">inputs</text>
</g>
<!-- RunOutput -->
<g id="node6" class="node">
<title>RunOutput</title>
<g id="a_node6"><a xlink:href="http://RunOutput_details.html" xlink:title="&lt;TABLE&gt;">
<polygon fill="#3f51b5" stroke="none" points="287.5,-348.88 287.5,-367.62 426.25,-367.62 426.25,-348.88 287.5,-348.88"/>
<polygon fill="none" stroke="black" points="287.5,-348.88 287.5,-367.62 426.25,-367.62 426.25,-348.88 287.5,-348.88"/>
<text xml:space="preserve" text-anchor="start" x="328" y="-353.23" font-family="Roboto" font-size="12.00" fill="white">RunOutput</text>
<polygon fill="#bbdefb" stroke="none" points="287.5,-330.12 287.5,-348.88 361.75,-348.88 361.75,-330.12 287.5,-330.12"/>
<polygon fill="none" stroke="black" points="287.5,-330.12 287.5,-348.88 361.75,-348.88 361.75,-330.12 287.5,-330.12"/>
<text xml:space="preserve" text-anchor="start" x="307.75" y="-334.48" font-family="Roboto" font-size="12.00">run_id</text>
<polygon fill="#bbdefb" stroke="none" points="361.75,-330.12 361.75,-348.88 426.25,-348.88 426.25,-330.12 361.75,-330.12"/>
<polygon fill="none" stroke="black" points="361.75,-330.12 361.75,-348.88 426.25,-348.88 426.25,-330.12 361.75,-330.12"/>
<text xml:space="preserve" text-anchor="start" x="365.5" y="-334.48" font-family="Roboto" font-size="12.00">UUID (PK)</text>
<polygon fill="#bbdefb" stroke="none" points="287.5,-311.38 287.5,-330.12 361.75,-330.12 361.75,-311.38 287.5,-311.38"/>
<polygon fill="none" stroke="black" points="287.5,-311.38 287.5,-330.12 361.75,-330.12 361.75,-311.38 287.5,-311.38"/>
<text xml:space="preserve" text-anchor="start" x="290.5" y="-315.73" font-family="Roboto" font-size="12.00">s3_object_id</text>
<polygon fill="#bbdefb" stroke="none" points="361.75,-311.38 361.75,-330.12 426.25,-330.12 426.25,-311.38 361.75,-311.38"/>
<polygon fill="none" stroke="black" points="361.75,-311.38 361.75,-330.12 426.25,-330.12 426.25,-311.38 361.75,-311.38"/>
<text xml:space="preserve" text-anchor="start" x="364.75" y="-315.73" font-family="Roboto" font-size="12.00">TEXT (PK)</text>
</a>
</g>
</g>
<!-- WorkflowRun&#45;&gt;RunOutput -->
<g id="edge7" class="edge">
<title>WorkflowRun&#45;&gt;RunOutput</title>
<g id="a_edge7"><a xlink:title="Relation between WorkflowRun and RunOutput">
<path fill="none" stroke="#1e88e5" stroke-dasharray="5,2" d="M361.65,-465.91C360.11,-459.82 358.75,-453.75 357.62,-447.75 353.67,-426.58 353.13,-402.65 353.73,-382.77"/>
<polygon fill="#1e88e5" stroke="#1e88e5" points="357.23,-382.94 354.16,-372.8 350.24,-382.64 357.23,-382.94"/>
</a>
</g>
<text xml:space="preserve" text-anchor="middle" x="373.75" y="-438.25" font-family="Roboto" font-size="10.00">outputs</text>
</g>
<!-- Workflow&#45;&gt;WorkflowRun -->
<g id="edge2" class="edge">
<title>Workflow&#45;&gt;WorkflowRun</title>
<g id="a_edge2"><a xlink:title="Relation between Workflow and WorkflowRun">
<path fill="none" stroke="#1e88e5" stroke-dasharray="5,2" d="M509.71,-418.41C504.96,-424.41 500.38,-430.48 496.12,-436.5 491.59,-442.92 487.12,-449.62 482.73,-456.46"/>
<polygon fill="#1e88e5" stroke="#1e88e5" points="479.98,-454.26 477.62,-464.59 485.91,-457.98 479.98,-454.26"/>
</a>
</g>
<text xml:space="preserve" text-anchor="middle" x="505.5" y="-438.25" font-family="Roboto" font-size="10.00">runs</text>
</g>
<!-- RunMetric&#45;&gt;WorkflowRun -->
<g id="edge14" class="edge">
<title>RunMetric&#45;&gt;WorkflowRun</title>
<g id="a_edge14"><a xlink:title="Relation between RunMetric and WorkflowRun">
<path fill="none" stroke="#1e88e5" stroke-dasharray="5,2" d="M152.01,-380.84C173.04,-401.44 199.54,-426.56 224.38,-447.75 245.95,-466.16 269.59,-485.07 292.58,-502.86"/>
<polygon fill="#1e88e5" stroke="#1e88e5" points="290.45,-505.63 300.5,-508.96 294.72,-500.09 290.45,-505.63"/>
</a>
</g>
<text xml:space="preserve" text-anchor="middle" x="231.12" y="-438.25" font-family="Roboto" font-size="10.00">run</text>
</g>
<!-- RunInput&#45;&gt;WorkflowRun -->
<g id="edge10" class="edge">
<title>RunInput&#45;&gt;WorkflowRun</title>
<g id="a_edge10"><a xlink:title="Relation between RunInput and WorkflowRun">
<path fill="none" stroke="#1e88e5" stroke-dasharray="5,2" d="M390.5,-64.24C409.1,-76.26 427.1,-91.92 437.88,-111.5 495.52,-216.25 480.35,-354.14 455.9,-455.08"/>
<polygon fill="#1e88e5" stroke="#1e88e5" points="452.58,-453.95 453.56,-464.5 459.37,-455.64 452.58,-453.95"/>
</a>
</g>
<text xml:space="preserve" text-anchor="middle" x="481.94" y="-233" font-family="Roboto" font-size="10.00">run</text>
</g>
<!-- S3Object -->
<g id="node7" class="node">
<title>S3Object</title>
<g id="a_node7"><a xlink:href="http://S3Object_details.html" xlink:title="&lt;TABLE&gt;">
<polygon fill="#3f51b5" stroke="none" points="292.75,-190.5 292.75,-209.25 421,-209.25 421,-190.5 292.75,-190.5"/>
<polygon fill="none" stroke="black" points="292.75,-190.5 292.75,-209.25 421,-209.25 421,-190.5 292.75,-190.5"/>
<text xml:space="preserve" text-anchor="start" x="332.12" y="-194.85" font-family="Roboto" font-size="12.00" fill="white">S3Object</text>
<polygon fill="#bbdefb" stroke="none" points="292.75,-171.75 292.75,-190.5 356.5,-190.5 356.5,-171.75 292.75,-171.75"/>
<polygon fill="none" stroke="black" points="292.75,-171.75 292.75,-190.5 356.5,-190.5 356.5,-171.75 292.75,-171.75"/>
<text xml:space="preserve" text-anchor="start" x="295.75" y="-176.1" font-family="Roboto" font-size="12.00">object_key</text>
<polygon fill="#bbdefb" stroke="none" points="356.5,-171.75 356.5,-190.5 421,-190.5 421,-171.75 356.5,-171.75"/>
<polygon fill="none" stroke="black" points="356.5,-171.75 356.5,-190.5 421,-190.5 421,-171.75 356.5,-171.75"/>
<text xml:space="preserve" text-anchor="start" x="359.5" y="-176.1" font-family="Roboto" font-size="12.00">TEXT (PK)</text>
<polygon fill="#bbdefb" stroke="none" points="292.75,-153 292.75,-171.75 356.5,-171.75 356.5,-153 292.75,-153"/>
<polygon fill="none" stroke="black" points="292.75,-153 292.75,-171.75 356.5,-171.75 356.5,-153 292.75,-153"/>
<text xml:space="preserve" text-anchor="start" x="314.12" y="-157.35" font-family="Roboto" font-size="12.00">URI</text>
<polygon fill="#bbdefb" stroke="none" points="356.5,-153 356.5,-171.75 421,-171.75 421,-153 356.5,-153"/>
<polygon fill="none" stroke="black" points="356.5,-153 356.5,-171.75 421,-171.75 421,-153 356.5,-153"/>
<text xml:space="preserve" text-anchor="start" x="367.75" y="-157.35" font-family="Roboto" font-size="12.00">TEXT ()</text>
<polygon fill="#bbdefb" stroke="none" points="292.75,-134.25 292.75,-153 356.5,-153 356.5,-134.25 292.75,-134.25"/>
<polygon fill="none" stroke="black" points="292.75,-134.25 292.75,-153 356.5,-153 356.5,-134.25 292.75,-134.25"/>
<text xml:space="preserve" text-anchor="start" x="296.88" y="-138.6" font-family="Roboto" font-size="12.00">version_id</text>
<polygon fill="#bbdefb" stroke="none" points="356.5,-134.25 356.5,-153 421,-153 421,-134.25 356.5,-134.25"/>
<polygon fill="none" stroke="black" points="356.5,-134.25 356.5,-153 421,-153 421,-134.25 356.5,-134.25"/>
<text xml:space="preserve" text-anchor="start" x="367.75" y="-138.6" font-family="Roboto" font-size="12.00">TEXT ()</text>
<polygon fill="#bbdefb" stroke="none" points="292.75,-115.5 292.75,-134.25 356.5,-134.25 356.5,-115.5 292.75,-115.5"/>
<polygon fill="none" stroke="black" points="292.75,-115.5 292.75,-134.25 356.5,-134.25 356.5,-115.5 292.75,-115.5"/>
<text xml:space="preserve" text-anchor="start" x="296.12" y="-119.85" font-family="Roboto" font-size="12.00">size_bytes</text>
<polygon fill="#bbdefb" stroke="none" points="356.5,-115.5 356.5,-134.25 421,-134.25 421,-115.5 356.5,-115.5"/>
<polygon fill="none" stroke="black" points="356.5,-115.5 356.5,-134.25 421,-134.25 421,-115.5 356.5,-115.5"/>
<text xml:space="preserve" text-anchor="start" x="363.62" y="-119.85" font-family="Roboto" font-size="12.00">BIGINT ()</text>
</a>
</g>
</g>
<!-- RunInput&#45;&gt;S3Object -->
<g id="edge11" class="edge">
<title>RunInput&#45;&gt;S3Object</title>
<g id="a_edge11"><a xlink:title="Relation between RunInput and S3Object">
<path fill="none" stroke="#1e88e5" stroke-dasharray="5,2" d="M331.07,-64.05C334.01,-75.12 337.43,-88.01 340.79,-100.72"/>
<polygon fill="#1e88e5" stroke="#1e88e5" points="337.4,-101.56 343.34,-110.33 344.16,-99.76 337.4,-101.56"/>
</a>
</g>
<text xml:space="preserve" text-anchor="middle" x="359.86" y="-84" font-family="Roboto" font-size="10.00">s3_object</text>
</g>
<!-- RunOutput&#45;&gt;WorkflowRun -->
<g id="edge12" class="edge">
<title>RunOutput&#45;&gt;WorkflowRun</title>
<g id="a_edge12"><a xlink:title="Relation between RunOutput and WorkflowRun">
<path fill="none" stroke="#1e88e5" stroke-dasharray="5,2" d="M369.25,-371.62C376.21,-390.19 384.55,-414.4 389.88,-436.5 391.32,-442.49 392.68,-448.64 393.96,-454.87"/>
<polygon fill="#1e88e5" stroke="#1e88e5" points="390.53,-455.54 395.89,-464.67 397.39,-454.19 390.53,-455.54"/>
</a>
</g>
<text xml:space="preserve" text-anchor="middle" x="398.52" y="-438.25" font-family="Roboto" font-size="10.00">run</text>
</g>
<!-- RunOutput&#45;&gt;S3Object -->
<g id="edge13" class="edge">
<title>RunOutput&#45;&gt;S3Object</title>
<g id="a_edge13"><a xlink:title="Relation between RunOutput and S3Object">
<path fill="none" stroke="#1e88e5" stroke-dasharray="5,2" d="M331.02,-307.72C316.48,-286.63 302.73,-257.78 310.88,-231.25 311.67,-228.67 312.6,-226.09 313.64,-223.54"/>
<polygon fill="#1e88e5" stroke="#1e88e5" points="316.76,-225.13 317.83,-214.59 310.42,-222.16 316.76,-225.13"/>
</a>
</g>
<text xml:space="preserve" text-anchor="middle" x="331.88" y="-233" font-family="Roboto" font-size="10.00">s3_object</text>
</g>
<!-- S3Object&#45;&gt;RunInput -->
<g id="edge8" class="edge">
<title>S3Object&#45;&gt;RunInput</title>
<g id="a_edge8"><a xlink:title="Relation between S3Object and RunInput">
<path fill="none" stroke="#1e88e5" stroke-dasharray="5,2" d="M300.23,-111.87C296.09,-106.08 292.52,-99.93 289.88,-93.5 287.29,-87.2 287.49,-80.71 289.37,-74.43"/>
<polygon fill="#1e88e5" stroke="#1e88e5" points="292.47,-76.07 293.3,-65.51 286.07,-73.25 292.47,-76.07"/>
</a>
</g>
<text xml:space="preserve" text-anchor="middle" x="312.38" y="-84" font-family="Roboto" font-size="10.00">run_inputs</text>
</g>
<!-- S3Object&#45;&gt;RunOutput -->
<g id="edge9" class="edge">
<title>S3Object&#45;&gt;RunOutput</title>
<g id="a_edge9"><a xlink:title="Relation between S3Object and RunOutput">
<path fill="none" stroke="#1e88e5" stroke-dasharray="5,2" d="M356.88,-213.17C356.88,-239.41 356.88,-271.25 356.88,-296.27"/>
<polygon fill="#1e88e5" stroke="#1e88e5" points="353.38,-296.08 356.88,-306.08 360.38,-296.08 353.38,-296.08"/>
</a>
</g>
<text xml:space="preserve" text-anchor="middle" x="382.38" y="-233" font-family="Roboto" font-size="10.00">run_outputs</text>
</g>
<!-- QueuedJob -->
<g id="node8" class="node">
<title>QueuedJob</title>
<g id="a_node8"><a xlink:href="http://QueuedJob_details.html" xlink:title="&lt;TABLE&gt;">
<polygon fill="#3f51b5" stroke="none" points="490.62,-975 490.62,-993.75 681.12,-993.75 681.12,-975 490.62,-975"/>
<polygon fill="none" stroke="black" points="490.62,-975 490.62,-993.75 681.12,-993.75 681.12,-975 490.62,-975"/>
<text xml:space="preserve" text-anchor="start" x="554.75" y="-979.35" font-family="Roboto" font-size="12.00" fill="white">QueuedJob</text>
<polygon fill="#bbdefb" stroke="none" points="490.62,-956.25 490.62,-975 584.38,-975 584.38,-956.25 490.62,-956.25"/>
<polygon fill="none" stroke="black" points="490.62,-956.25 490.62,-975 584.38,-975 584.38,-956.25 490.62,-956.25"/>
<text xml:space="preserve" text-anchor="start" x="532.62" y="-960.6" font-family="Roboto" font-size="12.00">id</text>
<polygon fill="#bbdefb" stroke="none" points="584.38,-956.25 584.38,-975 681.12,-975 681.12,-956.25 584.38,-956.25"/>
<polygon fill="none" stroke="black" points="584.38,-956.25 584.38,-975 681.12,-975 681.12,-956.25 584.38,-956.25"/>
<text xml:space="preserve" text-anchor="start" x="604.25" y="-960.6" font-family="Roboto" font-size="12.00">UUID (PK)</text>
<polygon fill="#bbdefb" stroke="none" points="490.62,-937.5 490.62,-956.25 584.38,-956.25 584.38,-937.5 490.62,-937.5"/>
<polygon fill="none" stroke="black" points="490.62,-937.5 490.62,-956.25 584.38,-956.25 584.38,-937.5 490.62,-937.5"/>
<text xml:space="preserve" text-anchor="start" x="493.62" y="-941.85" font-family="Roboto" font-size="12.00">workflow_run_id</text>
<polygon fill="#bbdefb" stroke="none" points="584.38,-937.5 584.38,-956.25 681.12,-956.25 681.12,-937.5 584.38,-937.5"/>
<polygon fill="none" stroke="black" points="584.38,-937.5 584.38,-956.25 681.12,-956.25 681.12,-937.5 584.38,-937.5"/>
<text xml:space="preserve" text-anchor="start" x="612.5" y="-941.85" font-family="Roboto" font-size="12.00">UUID ()</text>
<polygon fill="#bbdefb" stroke="none" points="490.62,-918.75 490.62,-937.5 584.38,-937.5 584.38,-918.75 490.62,-918.75"/>
<polygon fill="none" stroke="black" points="490.62,-918.75 490.62,-937.5 584.38,-937.5 584.38,-918.75 490.62,-918.75"/>
<text xml:space="preserve" text-anchor="start" x="505.62" y="-923.1" font-family="Roboto" font-size="12.00">workflow_id</text>
<polygon fill="#bbdefb" stroke="none" points="584.38,-918.75 584.38,-937.5 681.12,-937.5 681.12,-918.75 584.38,-918.75"/>
<polygon fill="none" stroke="black" points="584.38,-918.75 584.38,-937.5 681.12,-937.5 681.12,-918.75 584.38,-918.75"/>
<text xml:space="preserve" text-anchor="start" x="612.5" y="-923.1" font-family="Roboto" font-size="12.00">UUID ()</text>
<polygon fill="#bbdefb" stroke="none" points="490.62,-900 490.62,-918.75 584.38,-918.75 584.38,-900 490.62,-900"/>
<polygon fill="none" stroke="black" points="490.62,-900 490.62,-918.75 584.38,-918.75 584.38,-900 490.62,-900"/>
<text xml:space="preserve" text-anchor="start" x="494.75" y="-904.35" font-family="Roboto" font-size="12.00">launch_payload</text>
<polygon fill="#bbdefb" stroke="none" points="584.38,-900 584.38,-918.75 681.12,-918.75 681.12,-900 584.38,-900"/>
<polygon fill="none" stroke="black" points="584.38,-900 584.38,-918.75 681.12,-918.75 681.12,-900 584.38,-900"/>
<text xml:space="preserve" text-anchor="start" x="611.38" y="-904.35" font-family="Roboto" font-size="12.00">JSON ()</text>
<polygon fill="#bbdefb" stroke="none" points="490.62,-881.25 490.62,-900 584.38,-900 584.38,-881.25 490.62,-881.25"/>
<polygon fill="none" stroke="black" points="490.62,-881.25 490.62,-900 584.38,-900 584.38,-881.25 490.62,-881.25"/>
<text xml:space="preserve" text-anchor="start" x="521.75" y="-885.6" font-family="Roboto" font-size="12.00">status</text>
<polygon fill="#bbdefb" stroke="none" points="584.38,-881.25 584.38,-900 681.12,-900 681.12,-881.25 584.38,-881.25"/>
<polygon fill="none" stroke="black" points="584.38,-881.25 584.38,-900 681.12,-900 681.12,-881.25 584.38,-881.25"/>
<text xml:space="preserve" text-anchor="start" x="587.38" y="-885.6" font-family="Roboto" font-size="12.00">VARCHAR(20) ()</text>
<polygon fill="#bbdefb" stroke="none" points="490.62,-862.5 490.62,-881.25 584.38,-881.25 584.38,-862.5 490.62,-862.5"/>
<polygon fill="none" stroke="black" points="490.62,-862.5 490.62,-881.25 584.38,-881.25 584.38,-862.5 490.62,-862.5"/>
<text xml:space="preserve" text-anchor="start" x="515" y="-866.85" font-family="Roboto" font-size="12.00">attempts</text>
<polygon fill="#bbdefb" stroke="none" points="584.38,-862.5 584.38,-881.25 681.12,-881.25 681.12,-862.5 584.38,-862.5"/>
<polygon fill="none" stroke="black" points="584.38,-862.5 584.38,-881.25 681.12,-881.25 681.12,-862.5 584.38,-862.5"/>
<text xml:space="preserve" text-anchor="start" x="600.5" y="-866.85" font-family="Roboto" font-size="12.00">INTEGER ()</text>
<polygon fill="#bbdefb" stroke="none" points="490.62,-843.75 490.62,-862.5 584.38,-862.5 584.38,-843.75 490.62,-843.75"/>
<polygon fill="none" stroke="black" points="490.62,-843.75 490.62,-862.5 584.38,-862.5 584.38,-843.75 490.62,-843.75"/>
<text xml:space="preserve" text-anchor="start" x="509" y="-848.1" font-family="Roboto" font-size="12.00">queued_at</text>
<polygon fill="#bbdefb" stroke="none" points="584.38,-843.75 584.38,-862.5 681.12,-862.5 681.12,-843.75 584.38,-843.75"/>
<polygon fill="none" stroke="black" points="584.38,-843.75 584.38,-862.5 681.12,-862.5 681.12,-843.75 584.38,-843.75"/>
<text xml:space="preserve" text-anchor="start" x="597.5" y="-848.1" font-family="Roboto" font-size="12.00">DATETIME ()</text>
<polygon fill="#bbdefb" stroke="none" points="490.62,-825 490.62,-843.75 584.38,-843.75 584.38,-825 490.62,-825"/>
<polygon fill="none" stroke="black" points="490.62,-825 490.62,-843.75 584.38,-843.75 584.38,-825 490.62,-825"/>
<text xml:space="preserve" text-anchor="start" x="497" y="-829.35" font-family="Roboto" font-size="12.00">last_attempt_at</text>
<polygon fill="#bbdefb" stroke="none" points="584.38,-825 584.38,-843.75 681.12,-843.75 681.12,-825 584.38,-825"/>
<polygon fill="none" stroke="black" points="584.38,-825 584.38,-843.75 681.12,-843.75 681.12,-825 584.38,-825"/>
<text xml:space="preserve" text-anchor="start" x="597.5" y="-829.35" font-family="Roboto" font-size="12.00">DATETIME ()</text>
<polygon fill="#bbdefb" stroke="none" points="490.62,-806.25 490.62,-825 584.38,-825 584.38,-806.25 490.62,-806.25"/>
<polygon fill="none" stroke="black" points="490.62,-806.25 490.62,-825 584.38,-825 584.38,-806.25 490.62,-806.25"/>
<text xml:space="preserve" text-anchor="start" x="495.12" y="-810.6" font-family="Roboto" font-size="12.00">next_attempt_at</text>
<polygon fill="#bbdefb" stroke="none" points="584.38,-806.25 584.38,-825 681.12,-825 681.12,-806.25 584.38,-806.25"/>
<polygon fill="none" stroke="black" points="584.38,-806.25 584.38,-825 681.12,-825 681.12,-806.25 584.38,-806.25"/>
<text xml:space="preserve" text-anchor="start" x="597.5" y="-810.6" font-family="Roboto" font-size="12.00">DATETIME ()</text>
<polygon fill="#bbdefb" stroke="none" points="490.62,-787.5 490.62,-806.25 584.38,-806.25 584.38,-787.5 490.62,-787.5"/>
<polygon fill="none" stroke="black" points="490.62,-787.5 490.62,-806.25 584.38,-806.25 584.38,-787.5 490.62,-787.5"/>
<text xml:space="preserve" text-anchor="start" x="503.38" y="-791.85" font-family="Roboto" font-size="12.00">submitted_at</text>
<polygon fill="#bbdefb" stroke="none" points="584.38,-787.5 584.38,-806.25 681.12,-806.25 681.12,-787.5 584.38,-787.5"/>
<polygon fill="none" stroke="black" points="584.38,-787.5 584.38,-806.25 681.12,-806.25 681.12,-787.5 584.38,-787.5"/>
<text xml:space="preserve" text-anchor="start" x="597.5" y="-791.85" font-family="Roboto" font-size="12.00">DATETIME ()</text>
<polygon fill="#bbdefb" stroke="none" points="490.62,-768.75 490.62,-787.5 584.38,-787.5 584.38,-768.75 490.62,-768.75"/>
<polygon fill="none" stroke="black" points="490.62,-768.75 490.62,-787.5 584.38,-787.5 584.38,-768.75 490.62,-768.75"/>
<text xml:space="preserve" text-anchor="start" x="525.12" y="-773.1" font-family="Roboto" font-size="12.00">error</text>
<polygon fill="#bbdefb" stroke="none" points="584.38,-768.75 584.38,-787.5 681.12,-787.5 681.12,-768.75 584.38,-768.75"/>
<polygon fill="none" stroke="black" points="584.38,-768.75 584.38,-787.5 681.12,-787.5 681.12,-768.75 584.38,-768.75"/>
<text xml:space="preserve" text-anchor="start" x="611.75" y="-773.1" font-family="Roboto" font-size="12.00">TEXT ()</text>
</a>
</g>
</g>
<!-- QueuedJob&#45;&gt;WorkflowRun -->
<g id="edge16" class="edge">
<title>QueuedJob&#45;&gt;WorkflowRun</title>
<g id="a_edge16"><a xlink:title="Relation between QueuedJob and WorkflowRun">
<path fill="none" stroke="#1e88e5" stroke-dasharray="5,2" d="M516.11,-764.92C508.57,-752.46 500.86,-739.71 493.2,-727.06"/>
<polygon fill="#1e88e5" stroke="#1e88e5" points="496.32,-725.45 488.15,-718.7 490.33,-729.07 496.32,-725.45"/>
</a>
</g>
<text xml:space="preserve" text-anchor="middle" x="532.97" y="-737.25" font-family="Roboto" font-size="10.00">workflow_run</text>
</g>
<!-- QueuedJob&#45;&gt;Workflow -->
<g id="edge15" class="edge">
<title>QueuedJob&#45;&gt;Workflow</title>
<g id="a_edge15"><a xlink:title="Relation between QueuedJob and Workflow">
<path fill="none" stroke="#1e88e5" stroke-dasharray="5,2" d="M585.02,-764.79C584.28,-664.56 583.22,-521.5 582.54,-429.81"/>
<polygon fill="#1e88e5" stroke="#1e88e5" points="586.04,-429.83 582.46,-419.85 579.04,-429.88 586.04,-429.83"/>
</a>
</g>
<text xml:space="preserve" text-anchor="middle" x="604.16" y="-587.75" font-family="Roboto" font-size="10.00">workflow</text>
</g>
</g>
</svg>
