<?xml version="1.0" encoding="UTF-8" standalone="no"?>
<!DOCTYPE svg PUBLIC "-//W3C//DTD SVG 1.1//EN"
 "http://www.w3.org/Graphics/SVG/1.1/DTD/svg11.dtd">
<!-- Generated by graphviz version 14.1.1 (20251213.1925)
 -->
<!-- Pages: 1 -->
<svg width="655pt" height="800pt"
 viewBox="0.00 0.00 655.00 800.00" xmlns="http://www.w3.org/2000/svg" xmlns:xlink="http://www.w3.org/1999/xlink">
<g id="graph0" class="graph" transform="scale(1 1) rotate(0) translate(4 795.5)">
<polygon fill="#eeeeee" stroke="none" points="-4,4 -4,-795.5 650.53,-795.5 650.53,4 -4,4"/>
<!-- AppUser -->
<g id="node1" class="node">
<title>AppUser</title>
<g id="a_node1"><a xlink:href="http://AppUser_details.html" xlink:title="&lt;TABLE&gt;">
<polygon fill="#3f51b5" stroke="none" points="340.12,-768.75 340.12,-787.5 509.62,-787.5 509.62,-768.75 340.12,-768.75"/>
<polygon fill="none" stroke="black" points="340.12,-768.75 340.12,-787.5 509.62,-787.5 509.62,-768.75 340.12,-768.75"/>
<text xml:space="preserve" text-anchor="start" x="401.25" y="-773.1" font-family="Roboto" font-size="12.00" fill="white">AppUser</text>
<polygon fill="#bbdefb" stroke="none" points="340.12,-750 340.12,-768.75 422.62,-768.75 422.62,-750 340.12,-750"/>
<polygon fill="none" stroke="black" points="340.12,-750 340.12,-768.75 422.62,-768.75 422.62,-750 340.12,-750"/>
<text xml:space="preserve" text-anchor="start" x="376.5" y="-754.35" font-family="Roboto" font-size="12.00">id</text>
<polygon fill="#bbdefb" stroke="none" points="422.62,-750 422.62,-768.75 509.62,-768.75 509.62,-750 422.62,-750"/>
<polygon fill="none" stroke="black" points="422.62,-750 422.62,-768.75 509.62,-768.75 509.62,-750 422.62,-750"/>
<text xml:space="preserve" text-anchor="start" x="437.62" y="-754.35" font-family="Roboto" font-size="12.00">UUID (PK)</text>
<polygon fill="#bbdefb" stroke="none" points="340.12,-731.25 340.12,-750 422.62,-750 422.62,-731.25 340.12,-731.25"/>
<polygon fill="none" stroke="black" points="340.12,-731.25 340.12,-750 422.62,-750 422.62,-731.25 340.12,-731.25"/>
<text xml:space="preserve" text-anchor="start" x="343.12" y="-735.6" font-family="Roboto" font-size="12.00">auth0_user_id</text>
<polygon fill="#bbdefb" stroke="none" points="422.62,-731.25 422.62,-750 509.62,-750 509.62,-731.25 422.62,-731.25"/>
<polygon fill="none" stroke="black" points="422.62,-731.25 422.62,-750 509.62,-750 509.62,-731.25 422.62,-731.25"/>
<text xml:space="preserve" text-anchor="start" x="425.62" y="-735.6" font-family="Roboto" font-size="12.00">TEXT (Unique)</text>
<polygon fill="#bbdefb" stroke="none" points="340.12,-712.5 340.12,-731.25 422.62,-731.25 422.62,-712.5 340.12,-712.5"/>
<polygon fill="none" stroke="black" points="340.12,-712.5 340.12,-731.25 422.62,-731.25 422.62,-712.5 340.12,-712.5"/>
<text xml:space="preserve" text-anchor="start" x="366.38" y="-716.85" font-family="Roboto" font-size="12.00">name</text>
<polygon fill="#bbdefb" stroke="none" points="422.62,-712.5 422.62,-731.25 509.62,-731.25 509.62,-712.5 422.62,-712.5"/>
<polygon fill="none" stroke="black" points="422.62,-712.5 422.62,-731.25 509.62,-731.25 509.62,-712.5 422.62,-712.5"/>
<text xml:space="preserve" text-anchor="start" x="445.12" y="-716.85" font-family="Roboto" font-size="12.00">TEXT ()</text>
<polygon fill="#bbdefb" stroke="none" points="340.12,-693.75 340.12,-712.5 422.62,-712.5 422.62,-693.75 340.12,-693.75"/>
<polygon fill="none" stroke="black" points="340.12,-693.75 340.12,-712.5 422.62,-712.5 422.62,-693.75 340.12,-693.75"/>
<text xml:space="preserve" text-anchor="start" x="366.75" y="-698.1" font-family="Roboto" font-size="12.00">email</text>
<polygon fill="#bbdefb" stroke="none" points="422.62,-693.75 422.62,-712.5 509.62,-712.5 509.62,-693.75 422.62,-693.75"/>
<polygon fill="none" stroke="black" points="422.62,-693.75 422.62,-712.5 509.62,-712.5 509.62,-693.75 422.62,-693.75"/>
<text xml:space="preserve" text-anchor="start" x="425.62" y="-698.1" font-family="Roboto" font-size="12.00">TEXT (Unique)</text>
</a>
</g>
</g>
<!-- WorkflowRun -->
<g id="node2" class="node">
<title>WorkflowRun</title>
<g id="a_node2"><a xlink:href="http://WorkflowRun_details.html" xlink:title="&lt;TABLE&gt;">
<polygon fill="#3f51b5" stroke="none" points="334.5,-619.75 334.5,-638.5 515.25,-638.5 515.25,-619.75 334.5,-619.75"/>
<polygon fill="none" stroke="black" points="334.5,-619.75 334.5,-638.5 515.25,-638.5 515.25,-619.75 334.5,-619.75"/>
<text xml:space="preserve" text-anchor="start" x="388.88" y="-624.1" font-family="Roboto" font-size="12.00" fill="white">WorkflowRun</text>
<polygon fill="#bbdefb" stroke="none" points="334.5,-601 334.5,-619.75 452.25,-619.75 452.25,-601 334.5,-601"/>
<polygon fill="none" stroke="black" points="334.5,-601 334.5,-619.75 452.25,-619.75 452.25,-601 334.5,-601"/>
<text xml:space="preserve" text-anchor="start" x="388.5" y="-605.35" font-family="Roboto" font-size="12.00">id</text>
<polygon fill="#bbdefb" stroke="none" points="452.25,-601 452.25,-619.75 515.25,-619.75 515.25,-601 452.25,-601"/>
<polygon fill="none" stroke="black" points="452.25,-601 452.25,-619.75 515.25,-619.75 515.25,-601 452.25,-601"/>
<text xml:space="preserve" text-anchor="start" x="455.25" y="-605.35" font-family="Roboto" font-size="12.00">UUID (PK)</text>
<polygon fill="#bbdefb" stroke="none" points="334.5,-582.25 334.5,-601 452.25,-601 452.25,-582.25 334.5,-582.25"/>
<polygon fill="none" stroke="black" points="334.5,-582.25 334.5,-601 452.25,-601 452.25,-582.25 334.5,-582.25"/>
<text xml:space="preserve" text-anchor="start" x="361.5" y="-586.6" font-family="Roboto" font-size="12.00">workflow_id</text>
<polygon fill="#bbdefb" stroke="none" points="452.25,-582.25 452.25,-601 515.25,-601 515.25,-582.25 452.25,-582.25"/>
<polygon fill="none" stroke="black" points="452.25,-582.25 452.25,-601 515.25,-601 515.25,-582.25 452.25,-582.25"/>
<text xml:space="preserve" text-anchor="start" x="463.5" y="-586.6" font-family="Roboto" font-size="12.00">UUID ()</text>
<polygon fill="#bbdefb" stroke="none" points="334.5,-563.5 334.5,-582.25 452.25,-582.25 452.25,-563.5 334.5,-563.5"/>
<polygon fill="none" stroke="black" points="334.5,-563.5 334.5,-582.25 452.25,-582.25 452.25,-563.5 334.5,-563.5"/>
<text xml:space="preserve" text-anchor="start" x="353.62" y="-567.85" font-family="Roboto" font-size="12.00">owner_user_id</text>
<polygon fill="#bbdefb" stroke="none" points="452.25,-563.5 452.25,-582.25 515.25,-582.25 515.25,-563.5 452.25,-563.5"/>
<polygon fill="none" stroke="black" points="452.25,-563.5 452.25,-582.25 515.25,-582.25 515.25,-563.5 452.25,-563.5"/>
<text xml:space="preserve" text-anchor="start" x="463.5" y="-567.85" font-family="Roboto" font-size="12.00">UUID ()</text>
<polygon fill="#bbdefb" stroke="none" points="334.5,-544.75 334.5,-563.5 452.25,-563.5 452.25,-544.75 334.5,-544.75"/>
<polygon fill="none" stroke="black" points="334.5,-544.75 334.5,-563.5 452.25,-563.5 452.25,-544.75 334.5,-544.75"/>
<text xml:space="preserve" text-anchor="start" x="343.88" y="-549.1" font-family="Roboto" font-size="12.00">seqera_dataset_id</text>
<polygon fill="#bbdefb" stroke="none" points="452.25,-544.75 452.25,-563.5 515.25,-563.5 515.25,-544.75 452.25,-544.75"/>
<polygon fill="none" stroke="black" points="452.25,-544.75 452.25,-563.5 515.25,-563.5 515.25,-544.75 452.25,-544.75"/>
<text xml:space="preserve" text-anchor="start" x="462.75" y="-549.1" font-family="Roboto" font-size="12.00">TEXT ()</text>
<polygon fill="#bbdefb" stroke="none" points="334.5,-526 334.5,-544.75 452.25,-544.75 452.25,-526 334.5,-526"/>
<polygon fill="none" stroke="black" points="334.5,-526 334.5,-544.75 452.25,-544.75 452.25,-526 334.5,-526"/>
<text xml:space="preserve" text-anchor="start" x="354.75" y="-530.35" font-family="Roboto" font-size="12.00">seqera_run_id</text>
<polygon fill="#bbdefb" stroke="none" points="452.25,-526 452.25,-544.75 515.25,-544.75 515.25,-526 452.25,-526"/>
<polygon fill="none" stroke="black" points="452.25,-526 452.25,-544.75 515.25,-544.75 515.25,-526 452.25,-526"/>
<text xml:space="preserve" text-anchor="start" x="462.75" y="-530.35" font-family="Roboto" font-size="12.00">TEXT ()</text>
<polygon fill="#bbdefb" stroke="none" points="334.5,-507.25 334.5,-526 452.25,-526 452.25,-507.25 334.5,-507.25"/>
<polygon fill="none" stroke="black" points="334.5,-507.25 334.5,-526 452.25,-526 452.25,-507.25 334.5,-507.25"/>
<text xml:space="preserve" text-anchor="start" x="358.12" y="-511.6" font-family="Roboto" font-size="12.00">binder_name</text>
<polygon fill="#bbdefb" stroke="none" points="452.25,-507.25 452.25,-526 515.25,-526 515.25,-507.25 452.25,-507.25"/>
<polygon fill="none" stroke="black" points="452.25,-507.25 452.25,-526 515.25,-526 515.25,-507.25 452.25,-507.25"/>
<text xml:space="preserve" text-anchor="start" x="462.75" y="-511.6" font-family="Roboto" font-size="12.00">TEXT ()</text>
<polygon fill="#bbdefb" stroke="none" points="334.5,-488.5 334.5,-507.25 452.25,-507.25 452.25,-488.5 334.5,-488.5"/>
<polygon fill="none" stroke="black" points="334.5,-488.5 334.5,-507.25 452.25,-507.25 452.25,-488.5 334.5,-488.5"/>
<text xml:space="preserve" text-anchor="start" x="365.62" y="-492.85" font-family="Roboto" font-size="12.00">sample_id</text>
<polygon fill="#bbdefb" stroke="none" points="452.25,-488.5 452.25,-507.25 515.25,-507.25 515.25,-488.5 452.25,-488.5"/>
<polygon fill="none" stroke="black" points="452.25,-488.5 452.25,-507.25 515.25,-507.25 515.25,-488.5 452.25,-488.5"/>
<text xml:space="preserve" text-anchor="start" x="462.75" y="-492.85" font-family="Roboto" font-size="12.00">TEXT ()</text>
<polygon fill="#bbdefb" stroke="none" points="334.5,-469.75 334.5,-488.5 452.25,-488.5 452.25,-469.75 334.5,-469.75"/>
<polygon fill="none" stroke="black" points="334.5,-469.75 334.5,-488.5 452.25,-488.5 452.25,-469.75 334.5,-469.75"/>
<text xml:space="preserve" text-anchor="start" x="366.38" y="-474.1" font-family="Roboto" font-size="12.00">run_name</text>
<polygon fill="#bbdefb" stroke="none" points="452.25,-469.75 452.25,-488.5 515.25,-488.5 515.25,-469.75 452.25,-469.75"/>
<polygon fill="none" stroke="black" points="452.25,-469.75 452.25,-488.5 515.25,-488.5 515.25,-469.75 452.25,-469.75"/>
<text xml:space="preserve" text-anchor="start" x="462.75" y="-474.1" font-family="Roboto" font-size="12.00">TEXT ()</text>
<polygon fill="#bbdefb" stroke="none" points="334.5,-451 334.5,-469.75 452.25,-469.75 452.25,-451 334.5,-451"/>
<polygon fill="none" stroke="black" points="334.5,-451 334.5,-469.75 452.25,-469.75 452.25,-451 334.5,-451"/>
<text xml:space="preserve" text-anchor="start" x="337.5" y="-455.35" font-family="Roboto" font-size="12.00">submitted_form_data</text>
<polygon fill="#bbdefb" stroke="none" points="452.25,-451 452.25,-469.75 515.25,-469.75 515.25,-451 452.25,-451"/>
<polygon fill="none" stroke="black" points="452.25,-451 452.25,-469.75 515.25,-469.75 515.25,-451 452.25,-451"/>
<text xml:space="preserve" text-anchor="start" x="462.38" y="-455.35" font-family="Roboto" font-size="12.00">JSON ()</text>
<polygon fill="#bbdefb" stroke="none" points="334.5,-432.25 334.5,-451 452.25,-451 452.25,-432.25 334.5,-432.25"/>
<polygon fill="none" stroke="black" points="334.5,-432.25 334.5,-451 452.25,-451 452.25,-432.25 334.5,-432.25"/>
<text xml:space="preserve" text-anchor="start" x="370.5" y="-436.6" font-family="Roboto" font-size="12.00">work_dir</text>
<polygon fill="#bbdefb" stroke="none" points="452.25,-432.25 452.25,-451 515.25,-451 515.25,-432.25 452.25,-432.25"/>
<polygon fill="none" stroke="black" points="452.25,-432.25 452.25,-451 515.25,-451 515.25,-432.25 452.25,-432.25"/>
<text xml:space="preserve" text-anchor="start" x="462.75" y="-436.6" font-family="Roboto" font-size="12.00">TEXT ()</text>
</a>
</g>
</g>
<!-- AppUser&#45;&gt;WorkflowRun -->
<g id="edge1" class="edge">
<title>AppUser&#45;&gt;WorkflowRun</title>
<g id="a_edge1"><a xlink:title="Relation between AppUser and WorkflowRun">
<path fill="none" stroke="#1e88e5" stroke-dasharray="5,2" d="M389.98,-689.91C387.09,-684 384.62,-677.88 382.88,-671.75 381.17,-665.76 380.22,-659.63 379.88,-653.45"/>
<polygon fill="#1e88e5" stroke="#1e88e5" points="383.37,-653.8 379.9,-643.79 376.37,-653.78 383.37,-653.8"/>
</a>
</g>
<text xml:space="preserve" text-anchor="middle" x="414.38" y="-662.25" font-family="Roboto" font-size="10.00">workflow_runs</text>
</g>
<!-- WorkflowRun&#45;&gt;AppUser -->
<g id="edge3" class="edge">
<title>WorkflowRun&#45;&gt;AppUser</title>
<g id="a_edge3"><a xlink:title="Relation between WorkflowRun and AppUser">
<path fill="none" stroke="#1e88e5" stroke-dasharray="5,2" d="M447.53,-642.41C447.77,-652.33 447.31,-662.23 445.88,-671.75 445.52,-674.08 445.1,-676.45 444.63,-678.83"/>
<polygon fill="#1e88e5" stroke="#1e88e5" points="441.24,-677.98 442.43,-688.5 448.06,-679.53 441.24,-677.98"/>
</a>
</g>
<text xml:space="preserve" text-anchor="middle" x="460.23" y="-662.25" font-family="Roboto" font-size="10.00">owner</text>
</g>
<!-- Workflow -->
<g id="node3" class="node">
<title>Workflow</title>
<g id="a_node3"><a xlink:href="http://Workflow_details.html" xlink:title="&lt;TABLE&gt;">
<polygon fill="#3f51b5" stroke="none" points="8,-358.25 8,-377 161.75,-377 161.75,-358.25 8,-358.25"/>
<polygon fill="none" stroke="black" points="8,-358.25 8,-377 161.75,-377 161.75,-358.25 8,-358.25"/>
<text xml:space="preserve" text-anchor="start" x="60.12" y="-362.6" font-family="Roboto" font-size="12.00" fill="white">Workflow</text>
<polygon fill="#bbdefb" stroke="none" points="8,-339.5 8,-358.25 98.75,-358.25 98.75,-339.5 8,-339.5"/>
<polygon fill="none" stroke="black" points="8,-339.5 8,-358.25 98.75,-358.25 98.75,-339.5 8,-339.5"/>
<text xml:space="preserve" text-anchor="start" x="48.5" y="-343.85" font-family="Roboto" font-size="12.00">id</text>
<polygon fill="#bbdefb" stroke="none" points="98.75,-339.5 98.75,-358.25 161.75,-358.25 161.75,-339.5 98.75,-339.5"/>
<polygon fill="none" stroke="black" points="98.75,-339.5 98.75,-358.25 161.75,-358.25 161.75,-339.5 98.75,-339.5"/>
<text xml:space="preserve" text-anchor="start" x="101.75" y="-343.85" font-family="Roboto" font-size="12.00">UUID (PK)</text>
<polygon fill="#bbdefb" stroke="none" points="8,-320.75 8,-339.5 98.75,-339.5 98.75,-320.75 8,-320.75"/>
<polygon fill="none" stroke="black" points="8,-320.75 8,-339.5 98.75,-339.5 98.75,-320.75 8,-320.75"/>
<text xml:space="preserve" text-anchor="start" x="38.38" y="-325.1" font-family="Roboto" font-size="12.00">name</text>
<polygon fill="#bbdefb" stroke="none" points="98.75,-320.75 98.75,-339.5 161.75,-339.5 161.75,-320.75 98.75,-320.75"/>
<polygon fill="none" stroke="black" points="98.75,-320.75 98.75,-339.5 161.75,-339.5 161.75,-320.75 98.75,-320.75"/>
<text xml:space="preserve" text-anchor="start" x="109.25" y="-325.1" font-family="Roboto" font-size="12.00">TEXT ()</text>
<polygon fill="#bbdefb" stroke="none" points="8,-302 8,-320.75 98.75,-320.75 98.75,-302 8,-302"/>
<polygon fill="none" stroke="black" points="8,-302 8,-320.75 98.75,-320.75 98.75,-302 8,-302"/>
<text xml:space="preserve" text-anchor="start" x="24.12" y="-306.35" font-family="Roboto" font-size="12.00">description</text>
<polygon fill="#bbdefb" stroke="none" points="98.75,-302 98.75,-320.75 161.75,-320.75 161.75,-302 98.75,-302"/>
<polygon fill="none" stroke="black" points="98.75,-302 98.75,-320.75 161.75,-320.75 161.75,-302 98.75,-302"/>
<text xml:space="preserve" text-anchor="start" x="109.25" y="-306.35" font-family="Roboto" font-size="12.00">TEXT ()</text>
<polygon fill="#bbdefb" stroke="none" points="8,-283.25 8,-302 98.75,-302 98.75,-283.25 8,-283.25"/>
<polygon fill="none" stroke="black" points="8,-283.25 8,-302 98.75,-302 98.75,-283.25 8,-283.25"/>
<text xml:space="preserve" text-anchor="start" x="31.25" y="-287.6" font-family="Roboto" font-size="12.00">repo_url</text>
<polygon fill="#bbdefb" stroke="none" points="98.75,-283.25 98.75,-302 161.75,-302 161.75,-283.25 98.75,-283.25"/>
<polygon fill="none" stroke="black" points="98.75,-283.25 98.75,-302 161.75,-302 161.75,-283.25 98.75,-283.25"/>
<text xml:space="preserve" text-anchor="start" x="109.25" y="-287.6" font-family="Roboto" font-size="12.00">TEXT ()</text>
<polygon fill="#bbdefb" stroke="none" points="8,-264.5 8,-283.25 98.75,-283.25 98.75,-264.5 8,-264.5"/>
<polygon fill="none" stroke="black" points="8,-264.5 8,-283.25 98.75,-283.25 98.75,-264.5 8,-264.5"/>
<text xml:space="preserve" text-anchor="start" x="11" y="-268.85" font-family="Roboto" font-size="12.00">default_revision</text>
<polygon fill="#bbdefb" stroke="none" points="98.75,-264.5 98.75,-283.25 161.75,-283.25 161.75,-264.5 98.75,-264.5"/>
<polygon fill="none" stroke="black" points="98.75,-264.5 98.75,-283.25 161.75,-283.25 161.75,-264.5 98.75,-264.5"/>
<text xml:space="preserve" text-anchor="start" x="109.25" y="-268.85" font-family="Roboto" font-size="12.00">TEXT ()</text>
</a>
</g>
</g>
<!-- WorkflowRun&#45;&gt;Workflow -->
<g id="edge4" class="edge">
<title>WorkflowRun&#45;&gt;Workflow</title>
<g id="a_edge4"><a xlink:title="Relation between WorkflowRun and Workflow">
<path fill="none" stroke="#1e88e5" stroke-dasharray="5,2" d="M326.63,-496.66C276.95,-475.19 217.12,-445.53 168.88,-410.25 160.03,-403.78 151.32,-396.31 143.07,-388.5"/>
<polygon fill="#1e88e5" stroke="#1e88e5" points="145.66,-386.14 136.06,-381.67 140.78,-391.16 145.66,-386.14"/>
</a>
</g>
<text xml:space="preserve" text-anchor="middle" x="188.38" y="-400.75" font-family="Roboto" font-size="10.00">workflow</text>
</g>
<!-- RunMetric -->
<g id="node4" class="node">
<title>RunMetric</title>
<g id="a_node4"><a xlink:href="http://RunMetric_details.html" xlink:title="&lt;TABLE&gt;">
<polygon fill="#3f51b5" stroke="none" points="196,-339.5 196,-358.25 403.75,-358.25 403.75,-339.5 196,-339.5"/>
<polygon fill="none" stroke="black" points="196,-339.5 196,-358.25 403.75,-358.25 403.75,-339.5 196,-339.5"/>
<text xml:space="preserve" text-anchor="start" x="272.5" y="-343.85" font-family="Roboto" font-size="12.00" fill="white">RunMetric</text>
<polygon fill="#bbdefb" stroke="none" points="196,-320.75 196,-339.5 303.25,-339.5 303.25,-320.75 196,-320.75"/>
<polygon fill="none" stroke="black" points="196,-320.75 196,-339.5 303.25,-339.5 303.25,-320.75 196,-320.75"/>
<text xml:space="preserve" text-anchor="start" x="232.75" y="-325.1" font-family="Roboto" font-size="12.00">run_id</text>
<polygon fill="#bbdefb" stroke="none" points="303.25,-320.75 303.25,-339.5 403.75,-339.5 403.75,-320.75 303.25,-320.75"/>
<polygon fill="none" stroke="black" points="303.25,-320.75 303.25,-339.5 403.75,-339.5 403.75,-320.75 303.25,-320.75"/>
<text xml:space="preserve" text-anchor="start" x="325" y="-325.1" font-family="Roboto" font-size="12.00">UUID (PK)</text>
<polygon fill="#bbdefb" stroke="none" points="196,-302 196,-320.75 303.25,-320.75 303.25,-302 196,-302"/>
<polygon fill="none" stroke="black" points="196,-302 196,-320.75 303.25,-320.75 303.25,-302 196,-302"/>
<text xml:space="preserve" text-anchor="start" x="220.38" y="-306.35" font-family="Roboto" font-size="12.00">max_score</text>
<polygon fill="#bbdefb" stroke="none" points="303.25,-302 303.25,-320.75 403.75,-320.75 403.75,-302 303.25,-302"/>
<polygon fill="none" stroke="black" points="303.25,-302 303.25,-320.75 403.75,-320.75 403.75,-302 303.25,-302"/>
<text xml:space="preserve" text-anchor="start" x="306.25" y="-306.35" font-family="Roboto" font-size="12.00">NUMERIC(8, 2) ()</text>
<polygon fill="#bbdefb" stroke="none" points="196,-283.25 196,-302 303.25,-302 303.25,-283.25 196,-283.25"/>
<polygon fill="none" stroke="black" points="196,-283.25 196,-302 303.25,-302 303.25,-283.25 196,-283.25"/>
<text xml:space="preserve" text-anchor="start" x="199" y="-287.6" font-family="Roboto" font-size="12.00">final_design_count</text>
<polygon fill="#bbdefb" stroke="none" points="303.25,-283.25 303.25,-302 403.75,-302 403.75,-283.25 303.25,-283.25"/>
<polygon fill="none" stroke="black" points="303.25,-283.25 303.25,-302 403.75,-302 403.75,-283.25 303.25,-283.25"/>
<text xml:space="preserve" text-anchor="start" x="328.38" y="-287.6" font-family="Roboto" font-size="12.00">BIGINT ()</text>
</a>
</g>
</g>
<!-- WorkflowRun&#45;&gt;RunMetric -->
<g id="edge5" class="edge">
<title>WorkflowRun&#45;&gt;RunMetric</title>
<g id="a_edge5"><a xlink:title="Relation between WorkflowRun and RunMetric">
<path fill="none" stroke="#1e88e5" stroke-dasharray="5,2" d="M353.26,-428.32C349.58,-422.25 346.01,-416.2 342.62,-410.25 335.77,-398.2 328.95,-384.89 322.85,-372.32"/>
<polygon fill="#1e88e5" stroke="#1e88e5" points="326.03,-370.86 318.56,-363.35 319.72,-373.89 326.03,-370.86"/>
</a>
</g>
<text xml:space="preserve" text-anchor="middle" x="358.75" y="-400.75" font-family="Roboto" font-size="10.00">metrics</text>
</g>
<!-- RunInput -->
<g id="node5" class="node">
<title>RunInput</title>
<g id="a_node5"><a xlink:href="http://RunInput_details.html" xlink:title="&lt;TABLE&gt;">
<polygon fill="#3f51b5" stroke="none" points="441.5,-41.5 441.5,-60.25 580.25,-60.25 580.25,-41.5 441.5,-41.5"/>
<polygon fill="none" stroke="black" points="441.5,-41.5 441.5,-60.25 580.25,-60.25 580.25,-41.5 441.5,-41.5"/>
<text xml:space="preserve" text-anchor="start" x="486.5" y="-45.85" font-family="Roboto" font-size="12.00" fill="white">RunInput</text>
<polygon fill="#bbdefb" stroke="none" points="441.5,-22.75 441.5,-41.5 515.75,-41.5 515.75,-22.75 441.5,-22.75"/>
<polygon fill="none" stroke="black" points="441.5,-22.75 441.5,-41.5 515.75,-41.5 515.75,-22.75 441.5,-22.75"/>
<text xml:space="preserve" text-anchor="start" x="461.75" y="-27.1" font-family="Roboto" font-size="12.00">run_id</text>
<polygon fill="#bbdefb" stroke="none" points="515.75,-22.75 515.75,-41.5 580.25,-41.5 580.25,-22.75 515.75,-22.75"/>
<polygon fill="none" stroke="black" points="515.75,-22.75 515.75,-41.5 580.25,-41.5 580.25,-22.75 515.75,-22.75"/>
<text xml:space="preserve" text-anchor="start" x="519.5" y="-27.1" font-family="Roboto" font-size="12.00">UUID (PK)</text>
<polygon fill="#bbdefb" stroke="none" points="441.5,-4 441.5,-22.75 515.75,-22.75 515.75,-4 441.5,-4"/>
<polygon fill="none" stroke="black" points="441.5,-4 441.5,-22.75 515.75,-22.75 515.75,-4 441.5,-4"/>
<text xml:space="preserve" text-anchor="start" x="444.5" y="-8.35" font-family="Roboto" font-size="12.00">s3_object_id</text>
<polygon fill="#bbdefb" stroke="none" points="515.75,-4 515.75,-22.75 580.25,-22.75 580.25,-4 515.75,-4"/>
<polygon fill="none" stroke="black" points="515.75,-4 515.75,-22.75 580.25,-22.75 580.25,-4 515.75,-4"/>
<text xml:space="preserve" text-anchor="start" x="518.75" y="-8.35" font-family="Roboto" font-size="12.00">TEXT (PK)</text>
</a>
</g>
</g>
<!-- WorkflowRun&#45;&gt;RunInput -->
<g id="edge6" class="edge">
<title>WorkflowRun&#45;&gt;RunInput</title>
<g id="a_edge6"><a xlink:title="Relation between WorkflowRun and RunInput">
<path fill="none" stroke="#1e88e5" stroke-dasharray="5,2" d="M429.49,-428.54C434.47,-342.58 444.46,-218.5 463.88,-111.5 466.28,-98.24 465.78,-94.27 471.88,-82.25 473.35,-79.34 475.02,-76.43 476.81,-73.57"/>
<polygon fill="#1e88e5" stroke="#1e88e5" points="479.68,-75.57 482.43,-65.33 473.9,-71.62 479.68,-75.57"/>
</a>
</g>
<text xml:space="preserve" text-anchor="middle" x="459.47" y="-233" font-family="Roboto" font-size="10.00">inputs</text>
</g>
<!-- RunOutput -->
<g id="node6" class="node">
<title>RunOutput</title>
<g id="a_node6"><a xlink:href="http://RunOutput_details.html" xlink:title="&lt;TABLE&gt;">
<polygon fill="#3f51b5" stroke="none" points="475.5,-330.12 475.5,-348.88 614.25,-348.88 614.25,-330.12 475.5,-330.12"/>
<polygon fill="none" stroke="black" points="475.5,-330.12 475.5,-348.88 614.25,-348.88 614.25,-330.12 475.5,-330.12"/>
<text xml:space="preserve" text-anchor="start" x="516" y="-334.48" font-family="Roboto" font-size="12.00" fill="white">RunOutput</text>
<polygon fill="#bbdefb" stroke="none" points="475.5,-311.38 475.5,-330.12 549.75,-330.12 549.75,-311.38 475.5,-311.38"/>
<polygon fill="none" stroke="black" points="475.5,-311.38 475.5,-330.12 549.75,-330.12 549.75,-311.38 475.5,-311.38"/>
<text xml:space="preserve" text-anchor="start" x="495.75" y="-315.73" font-family="Roboto" font-size="12.00">run_id</text>
<polygon fill="#bbdefb" stroke="none" points="549.75,-311.38 549.75,-330.12 614.25,-330.12 614.25,-311.38 549.75,-311.38"/>
<polygon fill="none" stroke="black" points="549.75,-311.38 549.75,-330.12 614.25,-330.12 614.25,-311.38 549.75,-311.38"/>
<text xml:space="preserve" text-anchor="start" x="553.5" y="-315.73" font-family="Roboto" font-size="12.00">UUID (PK)</text>
<polygon fill="#bbdefb" stroke="none" points="475.5,-292.62 475.5,-311.38 549.75,-311.38 549.75,-292.62 475.5,-292.62"/>
<polygon fill="none" stroke="black" points="475.5,-292.62 475.5,-311.38 549.75,-311.38 549.75,-292.62 475.5,-292.62"/>
<text xml:space="preserve" text-anchor="start" x="478.5" y="-296.98" font-family="Roboto" font-size="12.00">s3_object_id</text>
<polygon fill="#bbdefb" stroke="none" points="549.75,-292.62 549.75,-311.38 614.25,-311.38 614.25,-292.62 549.75,-292.62"/>
<polygon fill="none" stroke="black" points="549.75,-292.62 549.75,-311.38 614.25,-311.38 614.25,-292.62 549.75,-292.62"/>
<text xml:space="preserve" text-anchor="start" x="552.75" y="-296.98" font-family="Roboto" font-size="12.00">TEXT (PK)</text>
</a>
</g>
</g>
<!-- WorkflowRun&#45;&gt;RunOutput -->
<g id="edge7" class="edge">
<title>WorkflowRun&#45;&gt;RunOutput</title>
<g id="a_edge7"><a xlink:title="Relation between WorkflowRun and RunOutput">
<path fill="none" stroke="#1e88e5" stroke-dasharray="5,2" d="M466.71,-428.38C471.71,-418.26 477.03,-408.31 482.62,-399 490.4,-386.06 500.15,-372.92 509.6,-361.24"/>
<polygon fill="#1e88e5" stroke="#1e88e5" points="512.1,-363.72 515.78,-353.78 506.7,-359.25 512.1,-363.72"/>
</a>
</g>
<text xml:space="preserve" text-anchor="middle" x="498.75" y="-400.75" font-family="Roboto" font-size="10.00">outputs</text>
</g>
<!-- Workflow&#45;&gt;WorkflowRun -->
<g id="edge2" class="edge">
<title>Workflow&#45;&gt;WorkflowRun</title>
<g id="a_edge2"><a xlink:title="Relation between Workflow and WorkflowRun">
<path fill="none" stroke="#1e88e5" stroke-dasharray="5,2" d="M169.67,-375.22C172.77,-377.17 175.85,-379.1 178.88,-381 224.07,-409.33 274.01,-440.49 317.01,-467.28"/>
<polygon fill="#1e88e5" stroke="#1e88e5" points="315.02,-470.17 325.36,-472.49 318.72,-464.23 315.02,-470.17"/>
</a>
</g>
<text xml:space="preserve" text-anchor="middle" x="228.46" y="-400.75" font-family="Roboto" font-size="10.00">runs</text>
</g>
<!-- RunMetric&#45;&gt;WorkflowRun -->
<g id="edge14" class="edge">
<title>RunMetric&#45;&gt;WorkflowRun</title>
<g id="a_edge14"><a xlink:title="Relation between RunMetric and WorkflowRun">
<path fill="none" stroke="#1e88e5" stroke-dasharray="5,2" d="M345.01,-361.92C355.81,-373.14 366.6,-385.87 374.88,-399 378.78,-405.2 382.44,-411.74 385.87,-418.48"/>
<polygon fill="#1e88e5" stroke="#1e88e5" points="382.54,-419.63 390.06,-427.1 388.84,-416.57 382.54,-419.63"/>
</a>
</g>
<text xml:space="preserve" text-anchor="middle" x="387.58" y="-400.75" font-family="Roboto" font-size="10.00">run</text>
</g>
<!-- RunInput&#45;&gt;WorkflowRun -->
<g id="edge10" class="edge">
<title>RunInput&#45;&gt;WorkflowRun</title>
<g id="a_edge10"><a xlink:title="Relation between RunInput and WorkflowRun">
<path fill="none" stroke="#1e88e5" stroke-dasharray="5,2" d="M578.5,-64.24C597.1,-76.26 615.1,-91.92 625.88,-111.5 628.95,-117.09 640.2,-362.43 630.88,-381 609.75,-423.06 571.03,-456.51 532.81,-481.3"/>
<polygon fill="#1e88e5" stroke="#1e88e5" points="530.98,-478.31 524.39,-486.61 534.72,-484.23 530.98,-478.31"/>
</a>
</g>
<text xml:space="preserve" text-anchor="middle" x="639.78" y="-233" font-family="Roboto" font-size="10.00">run</text>
</g>
<!-- S3Object -->
<g id="node7" class="node">
<title>S3Object</title>
<g id="a_node7"><a xlink:href="http://S3Object_details.html" xlink:title="&lt;TABLE&gt;">
<polygon fill="#3f51b5" stroke="none" points="480.75,-190.5 480.75,-209.25 609,-209.25 609,-190.5 480.75,-190.5"/>
<polygon fill="none" stroke="black" points="480.75,-190.5 480.75,-209.25 609,-209.25 609,-190.5 480.75,-190.5"/>
<text xml:space="preserve" text-anchor="start" x="520.12" y="-194.85" font-family="Roboto" font-size="12.00" fill="white">S3Object</text>
<polygon fill="#bbdefb" stroke="none" points="480.75,-171.75 480.75,-190.5 544.5,-190.5 544.5,-171.75 480.75,-171.75"/>
<polygon fill="none" stroke="black" points="480.75,-171.75 480.75,-190.5 544.5,-190.5 544.5,-171.75 480.75,-171.75"/>
<text xml:space="preserve" text-anchor="start" x="483.75" y="-176.1" font-family="Roboto" font-size="12.00">object_key</text>
<polygon fill="#bbdefb" stroke="none" points="544.5,-171.75 544.5,-190.5 609,-190.5 609,-171.75 544.5,-171.75"/>
<polygon fill="none" stroke="black" points="544.5,-171.75 544.5,-190.5 609,-190.5 609,-171.75 544.5,-171.75"/>
<text xml:space="preserve" text-anchor="start" x="547.5" y="-176.1" font-family="Roboto" font-size="12.00">TEXT (PK)</text>
<polygon fill="#bbdefb" stroke="none" points="480.75,-153 480.75,-171.75 544.5,-171.75 544.5,-153 480.75,-153"/>
<polygon fill="none" stroke="black" points="480.75,-153 480.75,-171.75 544.5,-171.75 544.5,-153 480.75,-153"/>
<text xml:space="preserve" text-anchor="start" x="502.12" y="-157.35" font-family="Roboto" font-size="12.00">URI</text>
<polygon fill="#bbdefb" stroke="none" points="544.5,-153 544.5,-171.75 609,-171.75 609,-153 544.5,-153"/>
<polygon fill="none" stroke="black" points="544.5,-153 544.5,-171.75 609,-171.75 609,-153 544.5,-153"/>
<text xml:space="preserve" text-anchor="start" x="555.75" y="-157.35" font-family="Roboto" font-size="12.00">TEXT ()</text>
<polygon fill="#bbdefb" stroke="none" points="480.75,-134.25 480.75,-153 544.5,-153 544.5,-134.25 480.75,-134.25"/>
<polygon fill="none" stroke="black" points="480.75,-134.25 480.75,-153 544.5,-153 544.5,-134.25 480.75,-134.25"/>
<text xml:space="preserve" text-anchor="start" x="484.88" y="-138.6" font-family="Roboto" font-size="12.00">version_id</text>
<polygon fill="#bbdefb" stroke="none" points="544.5,-134.25 544.5,-153 609,-153 609,-134.25 544.5,-134.25"/>
<polygon fill="none" stroke="black" points="544.5,-134.25 544.5,-153 609,-153 609,-134.25 544.5,-134.25"/>
<text xml:space="preserve" text-anchor="start" x="555.75" y="-138.6" font-family="Roboto" font-size="12.00">TEXT ()</text>
<polygon fill="#bbdefb" stroke="none" points="480.75,-115.5 480.75,-134.25 544.5,-134.25 544.5,-115.5 480.75,-115.5"/>
<polygon fill="none" stroke="black" points="480.75,-115.5 480.75,-134.25 544.5,-134.25 544.5,-115.5 480.75,-115.5"/>
<text xml:space="preserve" text-anchor="start" x="484.12" y="-119.85" font-family="Roboto" font-size="12.00">size_bytes</text>
<polygon fill="#bbdefb" stroke="none" points="544.5,-115.5 544.5,-134.25 609,-134.25 609,-115.5 544.5,-115.5"/>
<polygon fill="none" stroke="black" points="544.5,-115.5 544.5,-134.25 609,-134.25 609,-115.5 544.5,-115.5"/>
<text xml:space="preserve" text-anchor="start" x="551.62" y="-119.85" font-family="Roboto" font-size="12.00">BIGINT ()</text>
</a>
</g>
</g>
<!-- RunInput&#45;&gt;S3Object -->
<g id="edge11" class="edge">
<title>RunInput&#45;&gt;S3Object</title>
<g id="a_edge11"><a xlink:title="Relation between RunInput and S3Object">
<path fill="none" stroke="#1e88e5" stroke-dasharray="5,2" d="M519.07,-64.05C522.01,-75.12 525.43,-88.01 528.79,-100.72"/>
<polygon fill="#1e88e5" stroke="#1e88e5" points="525.4,-101.56 531.34,-110.33 532.16,-99.76 525.4,-101.56"/>
</a>
</g>
<text xml:space="preserve" text-anchor="middle" x="547.86" y="-84" font-family="Roboto" font-size="10.00">s3_object</text>
</g>
<!-- RunOutput&#45;&gt;WorkflowRun -->
<g id="edge12" class="edge">
<title>RunOutput&#45;&gt;WorkflowRun</title>
<g id="a_edge12"><a xlink:title="Relation between RunOutput and WorkflowRun">
<path fill="none" stroke="#1e88e5" stroke-dasharray="5,2" d="M536.91,-352.58C531.79,-370.02 524.34,-391.95 514.88,-410.25 513.46,-412.98 511.99,-415.72 510.48,-418.46"/>
<polygon fill="#1e88e5" stroke="#1e88e5" points="507.49,-416.64 505.55,-427.05 513.56,-420.12 507.49,-416.64"/>
</a>
</g>
<text xml:space="preserve" text-anchor="middle" x="526.04" y="-400.75" font-family="Roboto" font-size="10.00">run</text>
</g>
<!-- RunOutput&#45;&gt;S3Object -->
<g id="edge13" class="edge">
<title>RunOutput&#45;&gt;S3Object</title>
<g id="a_edge13"><a xlink:title="Relation between RunOutput and S3Object">
<path fill="none" stroke="#1e88e5" stroke-dasharray="5,2" d="M515.16,-288.99C502.83,-272.49 492.68,-251.45 498.88,-231.25 499.67,-228.67 500.6,-226.09 501.64,-223.54"/>
<polygon fill="#1e88e5" stroke="#1e88e5" points="504.76,-225.13 505.83,-214.59 498.42,-222.16 504.76,-225.13"/>
</a>
</g>
<text xml:space="preserve" text-anchor="middle" x="519.88" y="-233" font-family="Roboto" font-size="10.00">s3_object</text>
</g>
<!-- S3Object&#45;&gt;RunInput -->
<g id="edge8" class="edge">
<title>S3Object&#45;&gt;RunInput</title>
<g id="a_edge8"><a xlink:title="Relation between S3Object and RunInput">
<path fill="none" stroke="#1e88e5" stroke-dasharray="5,2" d="M488.23,-111.87C484.09,-106.08 480.52,-99.93 477.88,-93.5 475.29,-87.2 475.49,-80.71 477.37,-74.43"/>
<polygon fill="#1e88e5" stroke="#1e88e5" points="480.47,-76.07 481.3,-65.51 474.07,-73.25 480.47,-76.07"/>
</a>
</g>
<text xml:space="preserve" text-anchor="middle" x="500.38" y="-84" font-family="Roboto" font-size="10.00">run_inputs</text>
</g>
<!-- S3Object&#45;&gt;RunOutput -->
<g id="edge9" class="edge">
<title>S3Object&#45;&gt;RunOutput</title>
<g id="a_edge9"><a xlink:title="Relation between S3Object and RunOutput">
<path fill="none" stroke="#1e88e5" stroke-dasharray="5,2" d="M544.88,-212.98C544.88,-233.68 544.88,-257.49 544.88,-277.36"/>
<polygon fill="#1e88e5" stroke="#1e88e5" points="541.38,-277.34 544.88,-287.34 548.38,-277.34 541.38,-277.34"/>
</a>
</g>
<text xml:space="preserve" text-anchor="middle" x="570.38" y="-233" font-family="Roboto" font-size="10.00">run_outputs</text>
</g>
</g>
</svg>
